<svg xmlns="http://www.w3.org/2000/svg" xmlns:xlink="http://www.w3.org/1999/xlink" viewBox="-0.5 -0.5 824 155" height="155" width="824"><style><![CDATA[.B{color-interpolation-filters:sRGB}.C{flood-color:#000}.D{flood-opacity:.125}.E{opacity:.25}.F{stroke:#000}.G{stroke:#fff}.H{fill:#f2f2f2}]]></style><defs><path id="B" d="M33.492 24.4c0 2.9 2.1 5.34 5.48 5.34 2.54 0 4.1-1.54 4.1-1.54l-1.06-1.76s-1.22 1.14-2.86 1.14c-1.54 0-2.86-.94-3.06-2.74h7.04l.06-.94c0-2.7-1.6-4.84-4.52-4.84-3.06 0-5.18 2.2-5.18 5.34zm2.68-1.32c.28-1.28 1.2-2.06 2.5-2.06 1.04 0 1.88.84 1.92 2.06z"/><path id="C" d="M71.693 69.9c0 2.6 1.9 4.806 4.932 4.806 2.286 0 3.7-1.386 3.7-1.386l-.954-1.584s-1.098 1.026-2.574 1.026c-1.386 0-2.574-.846-2.754-2.466h6.336l.054-.846c0-2.43-1.44-4.356-4.068-4.356-2.754 0-4.662 1.98-4.662 4.806zm2.412-1.188c.252-1.152 1.08-1.854 2.25-1.854.936 0 1.692.756 1.728 1.854z"/><path id="D" d="M81.73 71.854c0 1.836 1.494 2.862 3.132 2.862 2.07 0 2.772-1.62 2.772-1.62h.036s-.018.162-.018.396c0 .54.324 1.008 1.17 1.008h2.052v-1.926h-.72c-.252 0-.396-.144-.396-.396v-3.42c0-2.052-.9-3.654-3.96-3.654-.954 0-3.366.18-3.366 1.9v.972h2.124v-.486c0-.504.8-.612 1.224-.612 1.17 0 1.692.486 1.692 1.8v.072h-.288c-1.494 0-5.454.234-5.454 3.114zm2.304-.108c0-1.278 1.9-1.44 3.078-1.44h.396v.216c0 1.116-.864 2.412-2.088 2.412-.936 0-1.386-.576-1.386-1.188z"/><path id="E" d="M91.803 69.9c0 2.844 1.602 4.806 4.086 4.806 2.106 0 2.862-1.494 2.862-1.494h.036v.342c0 .54.306.936 1.134.936h2.106v-1.926h-.702c-.252 0-.396-.144-.396-.396v-9.234c0-.846-.378-1.224-1.224-1.224h-2.178v1.944h.72c.252 0 .396.126.396.396v1.62l.018.54h-.036s-.648-1.116-2.646-1.116c-2.43 0-4.176 1.9-4.176 4.806zm4.6 2.88c-1.35 0-2.268-1.134-2.268-2.88 0-1.818 1.044-2.844 2.304-2.844 1.53 0 2.268 1.404 2.268 2.826 0 2.034-1.116 2.898-2.304 2.898z"/><path id="F" d="M113.92 74.5h2.268v-3.636c0-.54.072-1.044.198-1.494.414-1.368 1.53-1.926 2.502-1.926.324 0 .558.036.558.036v-2.25s-.216-.036-.414-.036c-1.404 0-2.502 1.044-2.916 2.358h-.036s.036-.234.036-.576v-.54c0-.774-.414-1.116-1.224-1.116h-2.088v1.944h.72c.252 0 .396.126.396.396z"/><path id="G" d="M120.294 73.078s1.296 1.638 3.816 1.638c1.998 0 3.528-1.08 3.528-2.808 0-3.06-4.878-2.772-4.878-4.212 0-.54.558-.828 1.368-.828.504 0 1.152.216 1.152.648v.45h2.016v-.954c0-1.494-1.98-1.908-3.222-1.908-1.908 0-3.564.846-3.564 2.682 0 2.97 4.842 2.952 4.842 4.248 0 .612-.54.9-1.242.9-1.566 0-2.736-1.35-2.736-1.35z"/><path id="H" d="M169.81 71.134c0 3.078 2.538 3.456 3.816 3.456.414 0 .702-.054.702-.054v-1.998s-.162.036-.414.036c-.63 0-1.818-.216-1.818-1.728v-3.708h2.088V65.32h-2.088v-2.502h-2.232v2.502h-1.242v1.818h1.188z"/><path id="I" d="M50.542 118.5h1.8v-5.832h1.08c.522 0 .918.054 1.134.468l2.196 4.4c.414.828.774.954 1.764.954h1v-1.548h-.342c-.432 0-.72-.036-.9-.414l-1.908-3.816c-.36-.702-.72-.792-.72-.792v-.036s.36-.198.72-.828l3.078-5.274h-2.016l-2.826 4.914c-.216.36-.576.432-1.044.432h-1.206v-4.194c0-.8-.342-1.152-1.152-1.152h-1.818v1.548h.774c.252 0 .396.126.396.396z"/><path id="J" d="M61.347 107.6h1.566v-1.818h-1.566zm-.036 9.738c0 .8.342 1.152 1.152 1.152h1.7v-1.494h-.738c-.252 0-.396-.126-.396-.396v-6.066c0-.8-.342-1.152-1.152-1.152h-1.7v1.494h.738c.252 0 .396.126.396.396z"/><path id="K" d="M173.15 92.864c0 2.358 2.034 3.852 4.428 3.852 2.592 0 4.392-1.746 4.392-3.726 0-1.368-.738-2.25-1.9-2.916v-.036s1.53-1.152 1.53-3.024c0-1.98-1.548-3.438-3.978-3.438-2.556 0-3.96 1.638-3.96 3.402s1.566 2.592 1.566 2.592v.036s-2.088 1.17-2.088 3.258zm4.374-3.852c-1.134-.45-2.088-.882-2.088-1.998 0-1.008.8-1.8 2.196-1.8 1.296 0 2.232.738 2.232 1.908 0 1.134-.918 2.196-1.35 2.196-.216 0-.738-.198-1-.306zm-2.556 3.762c0-1.35 1.278-2.394 1.728-2.394.144 0 .828.27 1.314.468 1.188.486 2.142.972 2.142 2.088 0 1.26-1.242 2.142-2.574 2.142-1.386 0-2.6-.882-2.6-2.304z"/><path id="L" d="M188.202 96.716c2.376 0 4.086-1.746 4.086-4.248 0-2.322-1.602-4.14-4.014-4.14-1.116 0-2.286.468-2.808 1.242h-.036c.27-2.178 1.494-4.356 3.816-4.356 1.008 0 1.818.414 1.818.414l.576-1.53s-.954-.522-2.466-.522c-3.942 0-5.724 3.978-5.724 7.3 0 3.546 2.052 5.85 4.752 5.85zm-2.862-5.094c0-.918 1.152-1.782 2.574-1.782 1.638 0 2.6 1.098 2.6 2.628 0 1.476-.864 2.6-2.34 2.6-1.62 0-2.844-1.836-2.844-3.456z"/><path id="M" d="M200.25 94.934s1.548 1.782 4.194 1.782 4.356-1.908 4.356-4.032c0-2.448-1.944-3.546-3.6-3.726l3.348-4.032v-1.134h-6.696c-.8 0-1.098.342-1.098 1.152v1.602h1.656v-.8c0-.27.144-.396.396-.396h2.448c.702 0 1.08-.054 1.08-.054v.036s-.36.288-.738.828l-2.646 3.33.378.954h.9c1.476 0 2.736.846 2.736 2.268 0 1.368-1.152 2.322-2.52 2.322-1.962 0-3.222-1.44-3.222-1.44z"/><path id="N" d="M210.204 95.042c0 1.026.216 1.458 1.206 1.458h6.516c.8 0 1.152-.342 1.152-1.152v-1.602h-1.656v.8c0 .252-.144.396-.396.396h-4.518c-.306 0-.45-.1-.45-.342 0-2.934 6.444-3.006 6.444-7.38 0-2.178-1.674-3.654-3.996-3.654-1.476 0-3.7.684-3.7 2.34v1.08h1.656v-.558c0-.63.828-1.206 1.962-1.206 1.368 0 2.232.846 2.232 2.016 0 3.438-6.462 3.114-6.462 7.794z"/><path id="O" d="M225.32 91.946c0 2.736 1.998 4.77 4.86 4.77 2.412 0 3.708-1.566 3.708-1.566l-.756-1.242s-1.116 1.26-2.826 1.26c-1.692 0-3.204-1.17-3.204-3.24 0-1.926 1.332-3.258 3.114-3.258.666 0 1.692.288 1.692.936v.504h1.584v-.936c0-1.548-2.178-1.998-3.276-1.998-2.934 0-4.896 2.088-4.896 4.77z"/><path id="P" d="M234.918 91.928c0 2.772 2.178 4.788 4.896 4.788s4.914-2.016 4.914-4.788c0-2.754-2.196-4.752-4.914-4.752s-4.896 1.998-4.896 4.752zm1.782 0c0-1.9 1.404-3.24 3.114-3.24 1.728 0 3.132 1.35 3.132 3.24 0 1.908-1.404 3.276-3.132 3.276-1.7 0-3.114-1.368-3.114-3.276z"/><path id="Q" d="M246.045 91.946c0 2.826 1.548 4.77 4.014 4.77 2.232 0 2.988-1.656 2.988-1.656h.036s-.018.198-.018.468c0 .612.324.972 1.116.972h1.674v-1.494h-.738c-.252 0-.396-.126-.396-.396v-9.666c0-.8-.342-1.152-1.152-1.152h-1.728v1.494h.738c.252 0 .396.126.396.396v2.286c0 .342.036.612.036.612h-.036s-.702-1.404-2.808-1.404c-2.412 0-4.122 1.872-4.122 4.77zm4.356 3.258c-1.512 0-2.574-1.278-2.574-3.258 0-2.07 1.188-3.258 2.6-3.258 1.746 0 2.592 1.62 2.592 3.24 0 2.322-1.278 3.276-2.628 3.276z"/><path id="R" d="M256.925 91.946c0 2.7 1.962 4.77 4.842 4.77 2.16 0 3.5-1.332 3.5-1.332l-.756-1.242s-1.098 1.062-2.664 1.062c-1.62 0-3.024-1.098-3.132-3.042h6.642l.054-.72c0-2.358-1.368-4.266-3.924-4.266-2.592 0-4.572 1.872-4.572 4.77zm1.872-1.062c.27-1.512 1.35-2.322 2.682-2.322 1.134 0 2.088.8 2.142 2.322z"/><path id="S" d="M231.184 117.348c0 .8.342 1.152 1.152 1.152h3.222c2.25 0 4.086-1.224 4.086-3.618 0-1.422-.738-2.682-2.088-3.078v-.036c.846-.414 1.584-1.35 1.584-2.736 0-2.052-1.548-3.24-3.7-3.24h-5.436v1.548h1.17zm1.8-6.2v-3.798h2.448c1.188 0 1.872.756 1.872 1.872s-.72 1.926-1.836 1.926zm0 5.418v-3.942h2.664c1.296 0 2.142.882 2.142 2.178s-.792 2.16-2.142 2.16h-2.268c-.252 0-.396-.144-.396-.396z"/><path id="T" d="M335.03 96.5h1.746v-3.726c0-.558.054-1.116.216-1.638.414-1.35 1.44-2.142 2.556-2.142.288 0 .522.054.522.054V87.32s-.234-.036-.468-.036c-1.404 0-2.448 1.044-2.88 2.376h-.036s.036-.27.036-.63v-.576c0-.738-.378-1.062-1.17-1.062h-1.656v1.494h.738c.252 0 .396.126.396.396z"/><path id="U" d="M350.725 93.944c0 1.818 1.53 2.772 3.096 2.772 2.178 0 2.898-1.8 2.898-1.8h.036s-.036.234-.036.54c0 .648.324 1.044 1.134 1.044h1.638v-1.494h-.738c-.252 0-.396-.126-.396-.396v-3.87c0-2.016-.792-3.564-3.744-3.564-.882 0-3.15.216-3.15 1.7v.9h1.638v-.522c0-.594 1.062-.702 1.494-.702 1.422 0 2.016.576 2.016 2.178v.1h-.396c-1.53 0-5.5.18-5.5 3.114zm1.764-.1c0-1.674 2.376-1.746 3.7-1.746h.45v.306c0 1.35-.954 2.898-2.43 2.898-1.152 0-1.7-.72-1.7-1.458z"/><path id="V" d="M391.175 96.5h1.746v-4.266c0-.45.036-.864.162-1.224.36-1.314 1.476-2.232 2.88-2.232 1.458 0 1.7 1.008 1.7 2.286v4.284c0 .8.342 1.152 1.152 1.152h1.728v-1.494h-.738c-.252 0-.396-.126-.396-.396v-3.942c0-2.322-.972-3.492-3.132-3.492-1.98 0-3.06 1.296-3.42 2.088h-.036s.036-.234.036-.522V88.4c0-.666-.378-1.008-1.152-1.008h-1.674v1.494h.738c.252 0 .396.126.396.396z"/><path id="W" d="M442.75 93.17c0 3.042 2.322 3.402 3.474 3.402.378 0 .612-.036.612-.036v-1.548s-.162.036-.414.036c-.666 0-1.926-.234-1.926-2.052v-4.176h2.178v-1.404h-2.178V84.9h-1.7v2.502h-1.224v1.404h1.188z"/><path id="X" d="M334.652 118.5h7.362v-1.548h-2.772v-11.16h-1.638l-3.042 2.952 1.08 1.116 1.188-1.17c.45-.45.594-.738.594-.738h.036l-.018.792v8.208h-2.8z"/><path id="Y" d="M342.56 115.134h5.976v3.366h1.8v-3.366h1.98v-1.548h-1.98v-7.794h-2.052l-5.724 8.2zm5.994-1.548h-2.97l-1.08.054v-.036s.342-.36.666-.8l2.772-3.816c.324-.45.648-1.062.648-1.062h.036l-.072 1.296z"/><path id="Z" d="M729.115 95.114s1.206 1.602 3.636 1.602c1.908 0 3.348-1.044 3.348-2.664 0-3.042-4.968-2.664-4.968-4.392 0-.72.666-1.08 1.692-1.08.558 0 1.368.234 1.368.774v.45h1.566v-.864c0-1.386-1.9-1.764-2.988-1.764-1.854 0-3.384.8-3.384 2.556 0 2.934 4.968 2.754 4.968 4.392 0 .792-.738 1.17-1.584 1.17-1.674 0-2.754-1.35-2.754-1.35z"/></defs><path d="M3 4h820v150H3z" class="E"/><path d="M1 1h820v150H1z" fill="#8e8897"/><g fill="#fff"><path d="M19.48 29.5h2.62v-5.96h6.26v5.96h2.62V17.96c0-.28.16-.44.44-.44h.86V15.3h-2.56c-.94 0-1.36.42-1.36 1.36v4.66H22.1v-4.66c0-.94-.4-1.36-1.36-1.36h-2.56v2.22h.86c.28 0 .44.16.44.44z"/><use xlink:href="#B"/><path d="M45.644 29.5h2.52v-4.04c0-.6.08-1.16.22-1.66.46-1.52 1.7-2.14 2.78-2.14.36 0 .62.04.62.04v-2.5s-.24-.04-.46-.04c-1.56 0-2.78 1.16-3.24 2.62h-.04s.04-.26.04-.64v-.6c0-.86-.46-1.24-1.36-1.24h-2.32v2.16h.8c.28 0 .44.14.44.44z"/><path d="M52.476 24.4c0 3.14 2.48 5.34 5.58 5.34 3.12 0 5.6-2.2 5.6-5.34 0-3.12-2.48-5.34-5.6-5.34-3.1 0-5.58 2.22-5.58 5.34zm2.56 0c0-1.88 1.38-3.18 3.02-3.18 1.66 0 3.04 1.3 3.04 3.18 0 1.9-1.38 3.18-3.04 3.18-1.64 0-3.02-1.28-3.02-3.18z"/><use xlink:href="#B" x="31.445"/><path d="M75.93 27.92s1.44 1.82 4.24 1.82c2.22 0 3.92-1.2 3.92-3.12 0-3.4-5.42-3.08-5.42-4.68 0-.6.62-.92 1.52-.92.56 0 1.28.24 1.28.72v.5h2.24v-1.06c0-1.66-2.2-2.12-3.58-2.12-2.12 0-3.96.94-3.96 2.98 0 3.3 5.38 3.28 5.38 4.72 0 .68-.6 1-1.38 1-1.74 0-3.04-1.5-3.04-1.5z"/><path d="M85.325 27.74s1.74 2 4.82 2c3.22 0 5.06-2.24 5.06-4.6 0-2.4-1.74-3.84-3.66-4.14l3.26-4.08V15.3h-7.72c-.96 0-1.24.42-1.24 1.36v2.16h2.36v-.86c0-.28.16-.44.44-.44h1.78l1.26-.06v.04s-.46.36-.94 1.08l-2.4 3.22.52 1.3h1c1.52 0 2.68.82 2.68 2.08 0 1.24-1.02 2.12-2.42 2.12-2.1 0-3.48-1.52-3.48-1.52z"/><path d="M97.358 29.5h2.46v-2.54h-2.46z"/><use xlink:href="#B" x="68.125"/><path d="M112.33 29.5h2.82l1.76-2.84c.14-.22.3-.54.3-.54h.04s.14.34.28.54l1.78 2.84h2.82l-3.34-5.16 1.7-2.54c.2-.3.36-.34.78-.34h.72V19.3h-1.76c-.86 0-1.2.18-1.66.96l-1 1.68-.32.66h-.04l-.32-.66-1-1.68c-.46-.78-.82-.96-1.66-.96h-1.78v2.16h.74c.42 0 .58.04.78.34l1.68 2.54z"/><use xlink:href="#B" x="89.492"/></g><path d="M23 54h120v80H23z" class="E F"/><path d="M21 51h120v80H21z" fill="#e49a80" class="G"/><g class="H"><path d="M35.282 74.5h2.358v-4.4h2.322c2.394 0 4.068-1.728 4.068-4.212s-1.674-4.158-4.068-4.158h-5.85v1.998h1.17zm2.358-6.426v-4.356h1.926c1.296 0 2.052.846 2.052 2.16 0 1.332-.756 2.196-2.088 2.196z"/><path d="M46.18 73.276c0 .864.36 1.224 1.224 1.224H53.2c.846 0 1.224-.36 1.224-1.224v-1.944h-2.142v.774c0 .252-.144.396-.396.396h-2.952c-.252 0-.396-.144-.396-.396v-3.042h4.14v-1.998h-4.14v-3.348h2.88c.252 0 .396.144.396.396v.774h2.142v-1.944c0-.846-.378-1.224-1.224-1.224H45v1.998h1.17z"/><path d="M61.008 74.5h2.286v-4.212c0-.432.036-.828.144-1.188.342-1.116 1.278-1.908 2.484-1.908 1.152 0 1.458.756 1.458 1.872v4.212c0 .864.36 1.224 1.206 1.224h2.178v-1.926h-.72c-.252 0-.396-.144-.396-.396v-3.582c0-2.43-1.152-3.492-3.204-3.492-1.584 0-2.718.936-3.15 1.818h-.036s.036-.324.036-.774v-3.222c0-.828-.378-1.206-1.224-1.206h-2.178v1.944h.72c.252 0 .396.126.396.396z"/><use xlink:href="#C"/><use xlink:href="#D"/><use xlink:href="#E"/><use xlink:href="#C" x="31.289"/><use xlink:href="#F"/><use xlink:href="#G"/></g><path d="M153 54h160v80H153z" class="E F"/><path d="M151 51h160v80H151z" fill="#e4b884" class="G"/><g class="H"><path d="M164.778 74.5h2.214v-2.286h-2.214z"/><use xlink:href="#H"/><use xlink:href="#C" x="103.667"/><path d="M185.003 74.5h2.538l1.584-2.556c.126-.198.27-.486.27-.486h.036s.126.306.252.486l1.602 2.556h2.538l-3.006-4.644 1.53-2.286c.18-.27.324-.306.702-.306h.648V65.32h-1.584c-.774 0-1.08.162-1.494.864l-.9 1.512-.288.594h-.036l-.288-.594-.9-1.512c-.414-.702-.738-.864-1.494-.864h-1.602v1.944h.666c.378 0 .522.036.702.306l1.512 2.286z"/><path d="M195.546 71.134c0 3.078 2.538 3.456 3.816 3.456.414 0 .702-.054.702-.054v-1.998s-.162.036-.414.036c-.63 0-1.818-.216-1.818-1.728v-3.708h2.088V65.32h-2.088v-2.502H195.6v2.502h-1.242v1.818h1.188z"/></g><path d="M323 54h150v80H323z" class="E F"/><path d="M321 51h150v80H321z" fill="#e4d488" class="G"/><g fill="#1a1a1a"><path d="M334.778 74.5h2.214v-2.286h-2.214z"/><use xlink:href="#F" x="225.855"/><use xlink:href="#E" x="254.121"/><use xlink:href="#D" x="275.39"/><path d="M368.147 71.134c0 3.078 2.538 3.456 3.816 3.456.414 0 .702-.054.702-.054v-1.998s-.162.036-.414.036c-.63 0-1.818-.216-1.818-1.728v-3.708h2.088V65.32h-2.088v-2.502H368.2v2.502h-1.242v1.818h1.188z"/><use xlink:href="#D" x="292.055"/></g><path d="M483 54h150v80H483z" class="E F"/><path d="M481 51h150v80H481z" fill="#b4b884" class="G"/><g fill="#fff"><path d="M494.778 74.5h2.214v-2.286h-2.214z"/><use xlink:href="#E" x="406.807"/><use xlink:href="#D" x="428.08"/><use xlink:href="#H" x="351.025"/><use xlink:href="#D" x="444.743"/></g><path d="M643 54h160v80H643z" class="E F"/><path d="M641 51h160v80H641z" fill="#849a78" class="G"/><g fill="#fff"><path d="M654.778 74.5h2.214v-2.286h-2.214z"/><use xlink:href="#F" x="545.855"/><use xlink:href="#G" x="545.856"/><use xlink:href="#F" x="561.71"/><path d="M681.78 69.9c0 2.664 1.944 4.806 4.968 4.806 2.502 0 3.87-1.656 3.87-1.656l-.954-1.584s-1.152 1.242-2.718 1.242c-1.476 0-2.862-.954-2.862-2.826 0-1.656 1.134-2.862 2.718-2.862.558 0 1.314.216 1.314.72v.504h2.016v-1.08c0-1.584-2.142-2.07-3.33-2.07-3.15 0-5.022 2.214-5.022 4.806z"/></g><g class="H"><g><path d="M33.806 115.134h5.976v3.366h1.8v-3.366h1.98v-1.548h-1.98v-7.794H39.53l-5.724 8.2zm5.994-1.548h-2.97l-1.08.054v-.036s.342-.36.666-.8l2.772-3.816c.324-.45.648-1.062.648-1.062h.036l-.072 1.296z"/><use xlink:href="#I"/><use xlink:href="#J"/><path d="M66.484 117.348c0 .8.342 1.152 1.152 1.152h3.222c2.25 0 4.086-1.224 4.086-3.618 0-1.422-.738-2.682-2.088-3.078v-.036c.846-.414 1.584-1.35 1.584-2.736 0-2.052-1.548-3.24-3.7-3.24h-5.436v1.548h1.17zm1.8-6.2v-3.798h2.448c1.188 0 1.872.756 1.872 1.872s-.72 1.926-1.836 1.926zm0 5.418v-3.942h2.664c1.296 0 2.142.882 2.142 2.178s-.792 2.16-2.142 2.16H68.68c-.252 0-.396-.144-.396-.396z"/></g><g><path d="M163.77 96.5h1.98l1.9-2.97c.144-.216.288-.486.288-.486h.036l.27.486 1.926 2.97h1.962l-3.078-4.68 1.746-2.6c.18-.27.414-.324.774-.324h.522v-1.494h-1.134c-.846 0-1.116.144-1.584.918l-1.098 1.764c-.144.234-.306.576-.306.576h-.036l-.288-.576-1.116-1.764c-.486-.756-.738-.918-1.584-.918h-1.116v1.494h.504c.378 0 .576.054.774.342l1.746 2.592z"/><use xlink:href="#K"/><use xlink:href="#L"/><path d="M193.975 92.144h5.256v-1.548h-5.256z"/><use xlink:href="#M"/><use xlink:href="#N"/><use xlink:href="#O"/><use xlink:href="#P"/><use xlink:href="#Q"/><use xlink:href="#R"/><use xlink:href="#N" x="-46.02" y="22"/><use xlink:href="#N" x="-30.868" y="22"/><path d="M190.017 118.5h1.998l6.156-11.484v-1.224h-7.722c-.8 0-1.098.342-1.098 1.152v1.602h1.656v-.8c0-.27.144-.396.396-.396h3.834c.63 0 .918-.054.918-.054v.036s-.342.45-.738 1.17z"/><use xlink:href="#L" x="15.574" y="22"/><use xlink:href="#I" x="164.698"/><use xlink:href="#J" x="164.7"/><use xlink:href="#S"/></g></g><g fill="#1a1a1a"><use xlink:href="#T"/><use xlink:href="#R" x="83.832"/><use xlink:href="#U"/><use xlink:href="#Q" x="114.488"/><path d="M372.026 92.144h5.256v-1.548h-5.256z"/><use xlink:href="#P" x="144.265"/><use xlink:href="#V"/><path d="M402.424 95.348c0 .8.342 1.152 1.152 1.152h1.728v-1.494h-.738c-.252 0-.396-.126-.396-.396v-9.666c0-.8-.342-1.152-1.152-1.152H401.3v1.494h.738c.252 0 .396.126.396.396z"/><path d="M406.556 98.12l-.72 1.26a3.02 3.02 0 0 0 2.142.9c1.278 0 2.376-.738 2.934-2.142l3.6-8.892c.126-.288.288-.36.576-.36h.234v-1.494h-1.044c-.738 0-1.062.198-1.332.918l-1.9 5.13c-.18.468-.306 1.098-.306 1.098h-.036s-.144-.63-.324-1.098l-2.07-5.13c-.288-.72-.558-.918-1.296-.918h-1.026v1.494h.216c.288 0 .45.072.576.36l3.114 7.218-.414 1c-.342.8-.9 1.314-1.602 1.314a1.9 1.9 0 0 1-1.332-.648z"/><use xlink:href="#Q" x="175.062"/><use xlink:href="#U" x="81.281"/><use xlink:href="#W"/><use xlink:href="#U" x="97.312"/><use xlink:href="#X"/><use xlink:href="#Y"/><use xlink:href="#Y" x="10.863"/><use xlink:href="#I" x="319.618"/><use xlink:href="#J" x="319.618"/><use xlink:href="#S" x="154.918"/></g><g class="H"><g><use xlink:href="#T" x="160"/><use xlink:href="#R" x="243.832"/><use xlink:href="#U" x="160"/><use xlink:href="#Q" x="274.488"/><path d="M532.026 92.144h5.256v-1.548h-5.256z"/><path d="M541.638 96.5h1.98l1.872-5.85c.144-.468.252-1 .252-1h.036l.252 1 1.9 5.85h1.962l2.394-7.254c.1-.288.27-.36.558-.36h.252v-1.494h-1.08c-.8 0-1.134.198-1.368.972l-1.602 5.418c-.144.468-.216.972-.216.972h-.036s-.1-.504-.234-.972l-1.98-6.354h-1.602l-1.962 6.354-.252.972h-.036s-.072-.504-.216-.972l-1.62-5.418c-.234-.774-.54-.972-1.35-.972h-1.098v1.494h.252c.288 0 .468.072.558.36z"/><use xlink:href="#T" x="219.766"/><use xlink:href="#J" x="500.536" y="-22"/><use xlink:href="#W" x="124.036"/><use xlink:href="#R" x="315.059"/><path d="M586.803 91.946c0 2.826 1.548 4.77 4.014 4.77 2.232 0 2.988-1.656 2.988-1.656h.036s-.018.198-.018.468c0 .612.324.972 1.116.972h1.674v-1.494h-.738c-.252 0-.396-.126-.396-.396v-9.666c0-.8-.342-1.152-1.152-1.152H592.6v1.494h.738c.252 0 .396.126.396.396v2.286c0 .342.036.612.036.612h-.036s-.702-1.404-2.808-1.404c-2.412 0-4.122 1.872-4.122 4.77zm4.356 3.258c-1.512 0-2.574-1.278-2.574-3.258 0-2.07 1.188-3.258 2.6-3.258 1.746 0 2.592 1.62 2.592 3.24 0 2.322-1.278 3.276-2.628 3.276z"/><use xlink:href="#U" x="246.975"/><use xlink:href="#W" x="165.696"/><use xlink:href="#U" x="263.007"/><use xlink:href="#N" x="283.98" y="22"/><path d="M509.167 118.716c3.384 0 4.482-2.916 4.482-6.588 0-3.654-1.098-6.552-4.482-6.552-3.402 0-4.5 2.898-4.5 6.552 0 3.672 1.098 6.588 4.5 6.588zm0-1.638c-2.088 0-2.682-2.178-2.682-4.95 0-2.754.594-4.914 2.682-4.914 2.07 0 2.664 2.16 2.664 4.914 0 2.772-.594 4.95-2.664 4.95z"/><use xlink:href="#K" x="342.024" y="22"/><path d="M524.807 119.256h1.548l4.572-14.148h-1.548z"/><use xlink:href="#M" x="331.23" y="22"/><use xlink:href="#X" x="207.25"/><path d="M550.598 116.934s1.314 1.782 3.942 1.782c2.772 0 4.572-1.962 4.572-4.194 0-2.322-1.8-4.176-4.536-4.176-.954 0-1.638.378-1.638.378h-.036s.054-.27.1-.666l.252-2.322c.036-.27.144-.396.396-.396h2.664c.252 0 .396.126.396.396v.8h1.638v-1.602c0-.8-.342-1.152-1.152-1.152h-4.428c-.8 0-1.08.342-1.152 1.152l-.504 5.256.738.342s1.008-.648 2.412-.648c1.656 0 3.024 1.008 3.024 2.592 0 1.422-1.134 2.538-2.736 2.538-1.944 0-2.97-1.404-2.97-1.404z"/><use xlink:href="#I" x="516.32"/><use xlink:href="#J" x="516.321"/><path d="M582.805 117.348c0 .8.342 1.152 1.152 1.152h3.222c2.25 0 4.086-1.224 4.086-3.618 0-1.422-.738-2.682-2.088-3.078v-.036c.846-.414 1.584-1.35 1.584-2.736 0-2.052-1.548-3.24-3.7-3.24h-5.436v1.548h1.17zm1.8-6.2v-3.798h2.448c1.188 0 1.872.756 1.872 1.872s-.72 1.926-1.836 1.926zm0 5.418v-3.942h2.664c1.296 0 2.142.882 2.142 2.178s-.792 2.16-2.142 2.16H585c-.252 0-.396-.144-.396-.396z"/></g><g><path d="M657.478 96.5h2.106l2.304-8.046.414-1.728h.036l.36 1.746 2.16 8.028h2.088l2.8-10.764c.1-.324.288-.396.612-.396h.27v-1.548h-1.026c-.9 0-1.332.18-1.548 1.044l-1.998 8.172c-.162.684-.234 1.35-.234 1.35h-.036s-.1-.648-.27-1.35l-2.376-9.18h-1.62l-2.556 9.18c-.198.702-.306 1.35-.306 1.35h-.036l-.252-1.35-1.962-8.172c-.216-.864-.666-1.044-1.566-1.044h-1.026v1.548h.27c.324 0 .522.072.612.396z"/><use xlink:href="#J" x="611.247" y="-22"/><use xlink:href="#V" x="286.25"/><use xlink:href="#M" x="487.398"/><use xlink:href="#N" x="487.398"/><use xlink:href="#T" x="378.57"/><use xlink:href="#R" x="462.403"/><use xlink:href="#Z"/><use xlink:href="#P" x="502.515"/><path d="M749.39 93.224c0 2.412 1.044 3.492 3.096 3.492 1.8 0 2.97-1.188 3.348-2.088h.036l-.018.522v.342c0 .648.378 1.008 1.152 1.008h1.674v-1.494h-.738c-.252 0-.396-.126-.396-.396v-7.218h-1.746v4.266c0 1.8-1.098 3.438-2.97 3.438-1.44 0-1.692-1.008-1.692-2.268v-4.32c0-.774-.342-1.116-1.17-1.116h-1.7v1.494h.738c.252 0 .396.126.396.396z"/><use xlink:href="#T" x="425.574"/><use xlink:href="#O" x="541.012"/><use xlink:href="#R" x="519.005"/><use xlink:href="#Z" x="56.601"/><use xlink:href="#M" x="453.718" y="22"/><use xlink:href="#L" x="480.472" y="22"/><use xlink:href="#I" x="629.598"/><use xlink:href="#J" x="629.598"/><use xlink:href="#S" x="464.898"/></g></g></svg>