<svg xmlns="http://www.w3.org/2000/svg" xmlns:xlink="http://www.w3.org/1999/xlink" viewBox="-0.5 -0.5 1047.777 408.86" height="408.86" width="1047.777"><style><![CDATA[.B{pointer-events:all}.C{fill:none}.D{stroke-width:2}.E{fill:#fff}.F{stroke-miterlimit:10}.G{fill:#1a1a1a}.H{stroke:#1a1a1a}.I{fill:#849aac}.J{fill:#8e8897}.K{stroke-dasharray:6, 6}]]></style><path d="M113.556 71.5h130v60h-130z" stroke="#849aac" class="C D K"/><g fill="#4c547a"><use xlink:href="#B"/><path d="M175.664 91.724c0 2.502 1.206 3.492 3.168 3.492 1.584 0 2.736-.954 3.168-1.908h.036l-.018.414v.252c0 .648.414 1.026 1.206 1.026h2.106v-1.926h-.72c-.252 0-.396-.144-.396-.396V85.82h-2.286v4.212c0 1.638-.918 3.096-2.574 3.096-1.134 0-1.422-.756-1.422-1.872v-4.23c0-.828-.36-1.206-1.206-1.206h-2.178v1.944h.72c.252 0 .396.126.396.396z"/><use xlink:href="#C"/><path d="M122.33 112.4c0 2.844 1.602 4.806 4.086 4.806 2.106 0 2.862-1.494 2.862-1.494h.036v.342c0 .54.306.936 1.134.936h2.106v-1.926h-.702c-.252 0-.396-.144-.396-.396v-9.234c0-.846-.378-1.224-1.224-1.224h-2.178v1.944h.72c.252 0 .396.126.396.396v1.62l.018.54h-.036s-.648-1.116-2.646-1.116c-2.43 0-4.176 1.9-4.176 4.806zm4.6 2.88c-1.35 0-2.268-1.134-2.268-2.88 0-1.818 1.044-2.844 2.304-2.844 1.53 0 2.268 1.404 2.268 2.826 0 2.034-1.116 2.898-2.304 2.898zm7.677-8.954h1.98v-2.106h-1.98zm-.108 9.45c0 .864.36 1.224 1.206 1.224h2.178v-1.926h-.72c-.252 0-.396-.144-.396-.396v-5.634c0-.846-.36-1.224-1.206-1.224h-2.178v1.944h.72c.252 0 .396.126.396.396z"/><use xlink:href="#D"/><path d="M147.343 114.354c0 1.836 1.494 2.862 3.132 2.862 2.07 0 2.772-1.62 2.772-1.62h.036s-.018.162-.018.396c0 .54.324 1.008 1.17 1.008h2.052v-1.926h-.72c-.252 0-.396-.144-.396-.396v-3.42c0-2.052-.9-3.654-3.96-3.654-.954 0-3.366.18-3.366 1.9v.972h2.124v-.486c0-.504.8-.612 1.224-.612 1.17 0 1.692.486 1.692 1.8v.072h-.288c-1.494 0-5.454.234-5.454 3.114zm2.304-.108c0-1.278 1.9-1.44 3.078-1.44h.396v.216c0 1.116-.864 2.412-2.088 2.412-.936 0-1.386-.576-1.386-1.188z"/><use xlink:href="#D" x="18.528"/><use xlink:href="#D" x="26.965"/><use xlink:href="#E"/><path d="M185.228 117h2.268v-4.032c0-.414.054-.792.144-1.152.288-1.17 1.062-2.124 2.214-2.124 1.098 0 1.242.846 1.242 1.836V117h2.286v-4.032c0-.432.036-.8.144-1.17.252-1.152 1.062-2.106 2.196-2.106 1.062 0 1.26.792 1.26 1.836v4.248c0 .864.36 1.224 1.224 1.224h2.16v-1.926h-.702c-.252 0-.396-.144-.396-.396v-3.582c0-2.412-1.098-3.492-3.006-3.492-1.458 0-2.646.9-3.132 1.9h-.036c-.396-1.242-1.296-1.9-2.682-1.9-1.44 0-2.538 1.008-2.97 1.908h-.036l.018-.396v-.27c0-.648-.396-1.026-1.206-1.026h-2.106v1.944h.72c.252 0 .396.126.396.396zm16.908 0h2.16v-.468c0-.36-.036-.612-.036-.612h.036s.828 1.296 2.736 1.296c2.43 0 4.212-1.9 4.212-4.806 0-2.844-1.584-4.806-4.068-4.806-1.944 0-2.754 1.278-2.754 1.278h-.036s.036-.324.036-.774v-2.664c0-.846-.378-1.224-1.224-1.224h-2.178v1.944h.72c.252 0 .396.126.396.396zm2.214-4.536c0-2.034 1.116-2.898 2.304-2.898 1.35 0 2.286 1.134 2.286 2.88 0 1.818-1.062 2.844-2.304 2.844-1.53 0-2.286-1.404-2.286-2.826zm8.773 3.312c0 .864.36 1.224 1.224 1.224h2.16v-1.926h-.702c-.252 0-.396-.144-.396-.396v-9.234c0-.846-.378-1.224-1.224-1.224h-2.178v1.944h.72c.252 0 .396.126.396.396z"/><use xlink:href="#E" x="43.197"/><use xlink:href="#C" x="41.239" y="22"/></g><g class="D F H B"><path d="M293.556 9.5h26.8l10.7 10v40h-37.5z" class="E"/><path d="M320.346 9.5v10h10.7" class="C"/><g fill="#e4d488"><use xlink:href="#F"/><use xlink:href="#G"/></g></g><g class="G"><use xlink:href="#H"/><use xlink:href="#I"/><path d="M989.355 145.54c0 2.704 2.064 3.024 3.088 3.024.336 0 .544-.032.544-.032v-1.376s-.144.032-.368.032c-.592 0-1.712-.208-1.712-1.824v-3.712h1.936v-1.248h-1.936v-2.224h-1.52v2.224H988.3v1.248h1.056z"/><use xlink:href="#J"/><use xlink:href="#I" x="25.218"/><path d="M1014.574 145.54c0 2.704 2.064 3.024 3.088 3.024.336 0 .544-.032.544-.032v-1.376s-.144.032-.368.032c-.592 0-1.712-.208-1.712-1.824v-3.712h1.936v-1.248h-1.936v-2.224h-1.52v2.224h-1.088v1.248h1.056zm5.32 2.96h1.584v-1.648h-1.584z"/><use xlink:href="#K"/><use xlink:href="#L"/><use xlink:href="#K" x="16.75"/></g><g stroke="#000" class="D F B"><path d="M18.556 50.5v-40c0-5.52 10.07-10 22.5-10s22.5 4.48 22.5 10v40c0 5.52-10.07 10-22.5 10s-22.5-4.48-22.5-10z" class="E"/><path d="M18.556 10.5c0 5.52 10.07 10 22.5 10s22.5-4.48 22.5-10" class="C"/></g><g class="G"><path d="M.508 82H2.06v-3.808h.608c.256 0 .624.032.8.336l1.472 2.72c.352.624.592.752 1.344.752h1.12v-1.328h-.496c-.4 0-.56-.064-.688-.32l-1.2-2.192c-.272-.512-.544-.608-.544-.608v-.032s.24-.112.608-.608l2.192-3.008H5.5l-1.872 2.624c-.208.272-.56.352-.848.352h-.72v-5.248c0-.72-.304-.928-1.024-.928H-.5v1.328h.656a.31.31 0 0 1 .352.352zm8.472 0h1.552v-3.792c0-.4.032-.768.144-1.088.32-1.168 1.312-1.984 2.56-1.984 1.296 0 1.52.896 1.52 2.032v3.808c0 .72.304 1.024 1.024 1.024h1.536v-1.328h-.656a.31.31 0 0 1-.352-.352v-3.504c0-2.064-.864-3.104-2.784-3.104-1.76 0-2.72 1.152-3.04 1.856h-.032s.032-.208.032-.464V74.8c0-.592-.336-.896-1.024-.896h-1.5v1.328h.656a.31.31 0 0 1 .352.352z"/><use xlink:href="#H" x="-950.469" y="-66.5"/><use xlink:href="#M"/><path d="M42.04 80.976c0 .72.304 1.024 1.024 1.024H44.6v-1.328h-.656a.31.31 0 0 1-.352-.352v-8.592c0-.72-.304-1.024-1.024-1.024h-1.536v1.328h.656a.31.31 0 0 1 .352.352z"/><use xlink:href="#K" x="-977.406" y="-66.5"/><path d="M54.43 77.952c0 2.512 1.376 4.24 3.568 4.24 1.984 0 2.656-1.472 2.656-1.472h.032s-.016.176-.016.416c0 .544.288.864.992.864h1.488v-1.328h-.656a.31.31 0 0 1-.352-.352v-8.592c0-.72-.304-1.024-1.024-1.024H59.58v1.328h.656a.31.31 0 0 1 .352.352v2.032c0 .304.032.544.032.544h-.032s-.624-1.248-2.496-1.248c-2.144 0-3.664 1.664-3.664 4.24zm3.872 2.896c-1.344 0-2.288-1.136-2.288-2.896 0-1.84 1.056-2.896 2.32-2.896 1.552 0 2.304 1.44 2.304 2.88 0 2.064-1.136 2.912-2.336 2.912zm5.815-3.088c0 2.336 1.376 4.144 3.616 4.144 1.184 0 1.936-.448 2.416-1.232h.032s-.032.256-.032.512v.544c0 1.632-1.152 2.256-2.56 2.256-1.216 0-2.208-.544-2.208-.544l-.528 1.248c.8.4 1.792.672 2.768.672 2.048 0 4.08-1.024 4.08-3.696v-6.112c0-.208.144-.32.352-.32h.64v-1.328H71.2c-.64 0-.896.336-.896.816v.256h-.032s-.576-1.264-2.592-1.264c-2.256 0-3.552 1.728-3.552 4.048zm3.92 2.8c-1.456 0-2.336-1.152-2.336-2.832 0-1.648.8-2.672 2.208-2.672 1.248 0 2.288.608 2.288 2.72s-1.04 2.784-2.16 2.784z"/><use xlink:href="#K" x="-949.344" y="-66.5"/><use xlink:href="#N"/><use xlink:href="#O"/><path d="M26.902 98.04c0 2.704 2.064 3.024 3.088 3.024.336 0 .544-.032.544-.032v-1.376s-.144.032-.368.032c-.592 0-1.712-.208-1.712-1.824v-3.712H30.4v-1.248h-1.936V90.68h-1.52v2.224h-1.088v1.248h1.056z"/><use xlink:href="#O" x="14.25"/><path d="M41.024 101h1.488v-.56c0-.352-.032-.608-.032-.608h.032s.736 1.36 2.544 1.36c2.128 0 3.68-1.664 3.68-4.24 0-2.512-1.376-4.24-3.552-4.24-1.904 0-2.608 1.328-2.608 1.328h-.032s.032-.288.032-.672v-2.64c0-.72-.304-1.024-1.024-1.024h-1.536v1.328h.656a.31.31 0 0 1 .352.352zm1.52-4.016c0-2.064 1.12-2.912 2.32-2.912 1.36 0 2.304 1.136 2.304 2.896 0 1.84-1.056 2.896-2.336 2.896-1.536 0-2.288-1.44-2.288-2.88zm7.276 1.744c0 1.616 1.36 2.464 2.752 2.464 1.936 0 2.576-1.6 2.576-1.6h.032s-.032.208-.032.48c0 .576.288.928 1.008.928h1.456v-1.328h-.656a.31.31 0 0 1-.352-.352v-3.44c0-1.792-.704-3.168-3.328-3.168-.784 0-2.8.192-2.8 1.52v.8h1.456v-.464c0-.528.944-.624 1.328-.624 1.264 0 1.792.512 1.792 1.936v.08H54.7c-1.36 0-4.88.16-4.88 2.768zm1.568-.08c0-1.488 2.112-1.552 3.28-1.552h.4v.272c0 1.2-.848 2.576-2.16 2.576-1.024 0-1.52-.64-1.52-1.296z"/><use xlink:href="#P"/><use xlink:href="#K" x="-957.203" y="-47.5"/></g><g class="D F H B"><path d="M303.556 19.5h26.8l10.7 10v40h-37.5z" class="E"/><path d="M330.346 19.5v10h10.7" class="C"/></g><path d="M315.166 57.5h2.376v-2.472h-2.376zm4.734-1.848s1.608 2.136 4.848 2.136c2.544 0 4.464-1.392 4.464-3.552 0-4.056-6.624-3.552-6.624-5.856 0-.96.888-1.44 2.256-1.44.744 0 1.824.312 1.824 1.032v.6h2.088V47.42c0-1.848-2.52-2.352-3.984-2.352-2.472 0-4.512 1.08-4.512 3.408 0 3.912 6.624 3.672 6.624 5.856 0 1.056-.984 1.56-2.112 1.56-2.232 0-3.672-1.8-3.672-1.8z" class="I"/><g class="D F H B"><path d="M294.556 111.5h26.8l10.7 10v40h-37.5z" class="E"/><path d="M321.346 111.5v10h10.7" class="C"/></g><g class="G"><use xlink:href="#Q"/><path d="M286.83 181.608a5.23 5.23 0 0 0 3.728 1.584c2.352 0 3.872-1.696 3.872-3.584 0-2.176-1.728-3.152-3.2-3.312l2.976-3.584v-1.008h-5.952c-.72 0-.976.304-.976 1.024v1.424h1.472v-.72a.31.31 0 0 1 .352-.352h2.176c.624 0 .96-.048.96-.048v.032s-.32.256-.656.736l-2.352 2.96.336.848h.8c1.312 0 2.432.752 2.432 2.016 0 1.216-1.024 2.064-2.24 2.064-1.744 0-2.864-1.28-2.864-1.28zm8.914-1.84c0 2.096 1.808 3.424 3.936 3.424 2.304 0 3.904-1.552 3.904-3.312 0-1.216-.656-2-1.68-2.592v-.032s1.36-1.024 1.36-2.688c0-1.76-1.376-3.056-3.536-3.056-2.272 0-3.52 1.456-3.52 3.024s1.392 2.304 1.392 2.304v.032s-1.856 1.04-1.856 2.896zm3.888-3.424c-1.008-.4-1.856-.784-1.856-1.776 0-.896.72-1.6 1.952-1.6 1.152 0 1.984.656 1.984 1.696 0 1.008-.816 1.952-1.2 1.952-.192 0-.656-.176-.88-.272zm-2.272 3.344c0-1.2 1.136-2.128 1.536-2.128.128 0 .736.24 1.168.416 1.056.432 1.904.864 1.904 1.856 0 1.12-1.104 1.904-2.288 1.904-1.232 0-2.32-.784-2.32-2.048zm11.762 3.504c2.112 0 3.632-1.552 3.632-3.776 0-2.064-1.424-3.68-3.568-3.68-.992 0-2.032.416-2.496 1.104h-.032c.24-1.936 1.328-3.872 3.392-3.872.896 0 1.616.368 1.616.368l.512-1.36s-.848-.464-2.192-.464c-3.504 0-5.088 3.536-5.088 6.48 0 3.152 1.824 5.2 4.224 5.2zm-2.544-4.528c0-.816 1.024-1.584 2.288-1.584 1.456 0 2.32.976 2.32 2.336 0 1.312-.768 2.32-2.08 2.32-1.44 0-2.528-1.632-2.528-3.072z"/><use xlink:href="#J" x="-680.203" y="34.5"/><use xlink:href="#K" x="-699.391" y="34.5"/><path d="M332.973 183h1.584v-1.648h-1.584z"/><use xlink:href="#L" x="-695.547" y="34.5"/></g><g class="D F H B"><path d="M463.556 10.5h26.8l10.7 10v40h-37.5z" class="E"/><path d="M490.346 10.5v10h10.7" class="C"/><path d="M476.556 20.5h26.8l10.7 10v40h-37.5z" class="E"/><path d="M503.346 20.5v10h10.7" class="C"/></g><path d="M486.36 58.5h2.376v-2.472h-2.376zm4.622-6.096c0 3.696 2.904 6.384 6.528 6.384s6.552-2.688 6.552-6.384c0-3.672-2.928-6.336-6.552-6.336s-6.528 2.664-6.528 6.336zm2.376 0c0-2.52 1.872-4.32 4.152-4.32 2.304 0 4.176 1.8 4.176 4.32 0 2.544-1.872 4.368-4.176 4.368-2.28 0-4.152-1.824-4.152-4.368z" class="I"/><g class="D F H B"><path d="M623.556 76.5h26.8l10.7 10v40h-37.5z" class="E"/><path d="M650.346 76.5v10h10.7" class="C"/></g><g class="G"><use xlink:href="#O" x="591.19" y="47"/><use xlink:href="#R"/><use xlink:href="#R" x="4.282"/><path d="M625.804 143.952c0 2.432 1.776 4.24 4.32 4.24 2.144 0 3.296-1.392 3.296-1.392l-.672-1.104s-.992 1.12-2.512 1.12c-1.504 0-2.848-1.04-2.848-2.88 0-1.712 1.184-2.896 2.768-2.896.592 0 1.504.256 1.504.832v.448h1.408v-.832c0-1.376-1.936-1.776-2.912-1.776-2.608 0-4.352 1.856-4.352 4.24z"/><use xlink:href="#H" x="-334.36" y="-0.5"/><use xlink:href="#N" x="636.562" y="47"/><use xlink:href="#K" x="-369.078" y="-0.5"/><path d="M663.285 148h1.584v-1.648h-1.584z"/><use xlink:href="#H" x="-302.329" y="-0.5"/><path d="M394.74 42.444c0 1.818 1.53 2.772 3.096 2.772 2.178 0 2.898-1.8 2.898-1.8h.036s-.036.234-.036.54c0 .648.324 1.044 1.134 1.044h1.638v-1.494h-.738c-.252 0-.396-.126-.396-.396v-3.87c0-2.016-.792-3.564-3.744-3.564-.882 0-3.15.216-3.15 1.7v.9h1.638v-.522c0-.594 1.062-.702 1.494-.702 1.422 0 2.016.576 2.016 2.178v.1h-.396c-1.53 0-5.5.18-5.5 3.114zm1.764-.1c0-1.674 2.376-1.746 3.7-1.746h.45v.306c0 1.35-.954 2.898-2.43 2.898-1.152 0-1.7-.72-1.7-1.458zm7.864 1.27s1.206 1.602 3.636 1.602c1.908 0 3.348-1.044 3.348-2.664 0-3.042-4.968-2.664-4.968-4.392 0-.72.666-1.08 1.692-1.08.558 0 1.368.234 1.368.774v.45H411v-.864c0-1.386-1.9-1.764-2.988-1.764-1.854 0-3.384.8-3.384 2.556 0 2.934 4.968 2.754 4.968 4.392 0 .792-.738 1.17-1.584 1.17-1.674 0-2.754-1.35-2.754-1.35zm152.325 60.234c0 .8.342 1.152 1.152 1.152h1.728v-1.494h-.738c-.252 0-.396-.126-.396-.396v-9.666c0-.8-.342-1.152-1.152-1.152h-1.728v1.494h.738c.252 0 .396.126.396.396z"/><use xlink:href="#S"/><use xlink:href="#T"/><use xlink:href="#U"/><use xlink:href="#V"/><path d="M736.515 100.446c0 2.736 1.998 4.77 4.86 4.77 2.412 0 3.708-1.566 3.708-1.566l-.756-1.242s-1.116 1.26-2.826 1.26c-1.692 0-3.204-1.17-3.204-3.24 0-1.926 1.332-3.258 3.114-3.258.666 0 1.692.288 1.692.936v.504h1.584v-.936c0-1.548-2.178-1.998-3.276-1.998-2.934 0-4.896 2.088-4.896 4.77z"/><use xlink:href="#T" x="36.457"/><use xlink:href="#W"/><path d="M768.07 106.62l-.72 1.26a3.02 3.02 0 0 0 2.142.9c1.278 0 2.376-.738 2.934-2.142l3.6-8.892c.126-.288.288-.36.576-.36h.234v-1.494h-1.044c-.738 0-1.062.198-1.332.918l-1.9 5.13c-.18.468-.306 1.098-.306 1.098h-.036s-.144-.63-.324-1.098l-2.07-5.13c-.288-.72-.558-.918-1.296-.918h-1.026v1.494h.216c.288 0 .45.072.576.36l3.114 7.218-.414 1c-.342.8-.9 1.314-1.602 1.314a1.9 1.9 0 0 1-1.332-.648z"/><use xlink:href="#S" x="352.144"/><use xlink:href="#S" x="363.042"/></g><g class="D F H B"><path d="M823.556 76.5h26.8l10.7 10v40h-37.5z" class="E"/><path d="M850.346 76.5v10h10.7" class="C"/></g><g class="I"><path d="M829 110.5h1.584v-1.648H829zm4.018 0h1.488v-.56c0-.352-.032-.608-.032-.608h.032s.736 1.36 2.544 1.36c2.128 0 3.68-1.664 3.68-4.24 0-2.512-1.376-4.24-3.552-4.24-1.904 0-2.608 1.328-2.608 1.328h-.032s.032-.288.032-.672v-2.64c0-.72-.304-1.024-1.024-1.024H832v1.328h.656a.31.31 0 0 1 .352.352zm1.52-4.016c0-2.064 1.12-2.912 2.32-2.912 1.36 0 2.304 1.136 2.304 2.896 0 1.84-1.056 2.896-2.336 2.896-1.536 0-2.288-1.44-2.288-2.88z"/><use xlink:href="#Q" x="559.298" y="-72.5"/><use xlink:href="#X"/></g><g class="D E F H B"><use xlink:href="#F" x="-970" y="52"/><use xlink:href="#G" x="-970" y="52"/></g><g class="G"><use xlink:href="#Q" x="-266.952" y="17.5"/><use xlink:href="#X" x="-826.25" y="90"/><use xlink:href="#J" x="-964.062" y="52"/><use xlink:href="#I" x="-938.844" y="52"/><path d="M50.5 197.54c0 2.704 2.064 3.024 3.088 3.024.336 0 .544-.032.544-.032v-1.376s-.144.032-.368.032c-.592 0-1.712-.208-1.712-1.824v-3.712H54v-1.248h-1.936v-2.224h-1.52v2.224h-1.088v1.248h1.056zm5.322 2.96h1.584v-1.648h-1.584z"/><use xlink:href="#K" x="-964.063" y="52"/><use xlink:href="#L" x="-964.064" y="52"/><use xlink:href="#K" x="-947.313" y="52"/></g><g class="J"><use xlink:href="#Y" class="B"/><use xlink:href="#Z" class="B"/><path d="M353.556 38.17h16.5V31.5l13.5 10-13.5 10v-6.67h-16.5zm70 0h16.5V31.5l13.5 10-13.5 10v-6.67h-16.5z" class="B"/><use xlink:href="#Y" x="270" y="60" class="B"/><use xlink:href="#Z" x="270" y="-67" class="B"/><use xlink:href="#a" class="B"/><path d="M343.556 132.5h186v7h-186z"/><use xlink:href="#a" x="89.75" class="B"/><use xlink:href="#a" x="199.75" class="B"/><use xlink:href="#a" x="289.75" class="B"/><use xlink:href="#a" x="359.75" class="B"/><path d="M815.336 213.258l77.89-83.528-4.893-4.563 17.748-4.37-3.12 18-4.9-4.57-77.89 83.528z" class="B"/><path d="M128.556 211.5h692v7h-692z"/><path d="M80.682 160.676l52.877 52.877-4.95 4.95-52.877-52.877z"/><use xlink:href="#Z" x="-180" y="-65" class="B"/><use xlink:href="#Y" x="-179" y="70" class="B"/><path d="M70.682 210.676l50.558 50.558-4.95 4.95-50.558-50.558zm916.785-49.626l-104.08 104.08-4.95-4.95 104.08-104.08z"/><path d="M116.556 259.74h195.54v-6.83l11.46 10-11.46 10v-6.83h-195.54z" class="B"/></g><g class="G"><use xlink:href="#T" x="-379.289" y="160.41"/><use xlink:href="#U" x="-379.3" y="160.4"/><use xlink:href="#V" x="-379.29" y="160.42"/><use xlink:href="#S" x="-203.437" y="160.41"/><use xlink:href="#b"/><path d="M380.186 265.4h1.746v-4.158a4.86 4.86 0 0 1 .126-1.17c.342-1.296 1.278-2.412 2.6-2.412 1.386 0 1.566 1.098 1.566 2.286v5.454h1.746v-4.158a5.23 5.23 0 0 1 .144-1.242c.324-1.242 1.296-2.34 2.556-2.34 1.35 0 1.602 1.008 1.602 2.286v4.302c0 .8.342 1.152 1.152 1.152h1.728v-1.494h-.738c-.252 0-.396-.126-.396-.396v-3.942c0-2.322-.954-3.492-3.006-3.492-1.476 0-2.736.972-3.24 2.07h-.036c-.306-1.368-1.188-2.07-2.736-2.07-1.422 0-2.682 1.026-3.114 2.088h-.036l.018-.522v-.342c0-.666-.36-1.008-1.152-1.008h-1.674v1.494h.738c.252 0 .396.126.396.396z"/><use xlink:href="#W" x="-361.044" y="160.4"/><use xlink:href="#T" x="-59.289" y="160"/><use xlink:href="#U" x="-59.3" y="160"/><use xlink:href="#V" x="-59.29" y="160"/><use xlink:href="#S" x="116.563" y="160"/><use xlink:href="#b" x="320" y="-0.41"/><path d="M700.186 265h1.746v-4.158a4.86 4.86 0 0 1 .126-1.17c.342-1.296 1.278-2.412 2.6-2.412 1.386 0 1.566 1.098 1.566 2.286V265h1.746v-4.158a5.23 5.23 0 0 1 .144-1.242c.324-1.242 1.296-2.34 2.556-2.34 1.35 0 1.602 1.008 1.602 2.286v4.302c0 .8.342 1.152 1.152 1.152h1.728v-1.494h-.738c-.252 0-.396-.126-.396-.396v-3.942c0-2.322-.954-3.492-3.006-3.492-1.476 0-2.736.972-3.24 2.07h-.036c-.306-1.368-1.188-2.07-2.736-2.07-1.422 0-2.682 1.026-3.114 2.088h-.036l.018-.522v-.342c0-.666-.36-1.008-1.152-1.008h-1.674v1.494h.738c.252 0 .396.126.396.396z"/><use xlink:href="#W" x="-41.044" y="160"/></g><path d="M453.556 231.5h150v60h-150z" stroke="#849aac" class="C D K"/><g fill="#4c547a"><use xlink:href="#B" x="350" y="160"/><path d="M525.664 251.724c0 2.502 1.206 3.492 3.168 3.492 1.584 0 2.736-.954 3.168-1.908h.036l-.018.414v.252c0 .648.414 1.026 1.206 1.026h2.106v-1.926h-.72c-.252 0-.396-.144-.396-.396v-6.858h-2.286v4.212c0 1.638-.918 3.096-2.574 3.096-1.134 0-1.422-.756-1.422-1.872v-4.23c0-.828-.36-1.206-1.206-1.206h-2.178v1.944h.72c.252 0 .396.126.396.396z"/><use xlink:href="#C" x="350" y="160"/><use xlink:href="#c"/><use xlink:href="#B" x="311.432" y="182"/><use xlink:href="#D" x="347.338" y="160"/><path d="M495.607 273.634c0 3.078 2.538 3.456 3.816 3.456.414 0 .702-.054.702-.054v-1.998s-.162.036-.414.036c-.63 0-1.818-.216-1.818-1.728v-3.708h2.088v-1.818h-2.088v-2.502h-2.232v2.502h-1.242v1.818h1.188zm6.003-.774h5.418v-1.998H501.6z"/><use xlink:href="#c" x="44.964"/><use xlink:href="#C" x="333.688" y="182"/><use xlink:href="#B" x="363.464" y="182"/><path d="M538.247 272.4c0 2.664 1.944 4.806 4.968 4.806 2.502 0 3.87-1.656 3.87-1.656l-.954-1.584s-1.152 1.242-2.718 1.242c-1.476 0-2.862-.954-2.862-2.826 0-1.656 1.134-2.862 2.718-2.862.558 0 1.314.216 1.314.72v.504h2.016v-1.08c0-1.584-2.142-2.07-3.33-2.07-3.15 0-5.022 2.214-5.022 4.806z"/><use xlink:href="#E" x="373.615" y="160"/><use xlink:href="#D" x="419.048" y="160"/><use xlink:href="#D" x="427.484" y="160"/><use xlink:href="#B" x="411.232" y="182"/><use xlink:href="#C" x="399.747" y="182"/></g><path d="M413.556 259.58h16.5v-6.67l13.5 10-13.5 10v-6.67h-16.5zm230 5.25h-16.5v6.67l-13.5-10 13.5-10v6.67h16.5zm240 .24h-139.45v6.84l-10.55-10 10.55-10v6.84h139.45z" class="J B"/><g stroke="#000" class="D"><path d="M557.556 333.5h62a3.99 3.99 0 0 1 4 4v42a3.99 3.99 0 0 1-4 4h-62a3.99 3.99 0 0 1-4-4v-42a3.99 3.99 0 0 1 4-4z" class="E"/><g class="C F B"><path d="M553.556 348.5h70"/><path d="M568.556 333.5v50"/></g></g><g class="G"><path d="M529.807 405h1.552v-3.792c0-.4.032-.768.144-1.088.32-1.168 1.312-1.984 2.56-1.984 1.296 0 1.52.896 1.52 2.032v3.808c0 .72.304 1.024 1.024 1.024h1.536v-1.328h-.656a.31.31 0 0 1-.352-.352v-3.504c0-2.064-.864-3.104-2.784-3.104-1.76 0-2.72 1.152-3.04 1.856h-.032s.032-.208.032-.464v-.304c0-.592-.336-.896-1.024-.896H528.8v1.328h.656a.31.31 0 0 1 .352.352z"/><use xlink:href="#K" x="-483.922" y="256.5"/><path d="M550.33 405h1.76l1.664-5.2c.128-.416.224-.88.224-.88H554l.224.88 1.68 5.2h1.744l2.128-6.448c.08-.256.24-.32.496-.32h.224v-1.328h-.96c-.72 0-1.008.176-1.216.864l-1.424 4.816c-.128.416-.192.864-.192.864h-.032s-.08-.448-.208-.864l-1.76-5.648H553.3l-1.744 5.648-.224.864h-.032s-.064-.448-.192-.864l-1.44-4.816c-.208-.688-.48-.864-1.2-.864h-.976v1.328h.224c.256 0 .416.064.496.32zm15.944 0h1.552v-3.808h.608c.256 0 .624.032.8.336l1.472 2.72c.352.624.592.752 1.344.752h1.12v-1.328h-.496c-.4 0-.56-.064-.688-.32l-1.2-2.192c-.272-.512-.544-.608-.544-.608v-.032s.24-.112.608-.608l2.192-3.008h-1.776l-1.872 2.624c-.208.272-.56.352-.848.352h-.72v-5.248c0-.72-.304-.928-1.024-.928h-1.536v1.328h.656a.31.31 0 0 1 .352.352z"/><use xlink:href="#X" x="-272.328" y="294.5"/><use xlink:href="#H" x="-384.705" y="256.5"/><use xlink:href="#M" x="565.765" y="323"/><use xlink:href="#R" x="-10.187" y="257"/><use xlink:href="#K" x="-411.641" y="256.5"/><use xlink:href="#N" x="612.531" y="304"/><path d="M629.882 400.76c0 2.336 1.376 4.144 3.616 4.144 1.184 0 1.936-.448 2.416-1.232h.032s-.032.256-.032.512v.544c0 1.632-1.152 2.256-2.56 2.256-1.216 0-2.208-.544-2.208-.544l-.528 1.248c.8.4 1.792.672 2.768.672 2.048 0 4.08-1.024 4.08-3.696v-6.112c0-.208.144-.32.352-.32h.64v-1.328h-1.504c-.64 0-.896.336-.896.816v.256h-.032s-.576-1.264-2.592-1.264c-2.256 0-3.552 1.728-3.552 4.048zm3.92 2.8c-1.456 0-2.336-1.152-2.336-2.832 0-1.648.8-2.672 2.208-2.672 1.248 0 2.288.608 2.288 2.72s-1.04 2.784-2.16 2.784z"/><use xlink:href="#K" x="-383.578" y="256.5"/></g><g stroke="#000" class="D"><path d="M485.056 358.5c0 13.807-11.193 25-25 25s-25-11.193-25-25 11.193-25 25-25 25 11.193 25 25z" class="E"/><g class="C F B"><path d="M435.056 358.5h50"/><path d="M460.056 333.5v50"/></g></g><g class="G"><use xlink:href="#J" x="-564.296" y="256.5"/><use xlink:href="#O" x="422.064" y="304"/><use xlink:href="#P" x="389.592" y="304"/><use xlink:href="#P" x="396.842" y="304"/><path d="M462.056 405.672h1.376l4.064-12.576h-1.376zm6.876-.672h1.552v-6.848h1.92v-1.248h-1.92v-.24c0-1.504 1.088-1.696 1.696-1.696a2.25 2.25 0 0 1 .4.032v-1.328s-.24-.048-.592-.048c-1.024 0-3.056.336-3.056 3.008v.272h-1.008v1.248h1.008z"/><use xlink:href="#O" x="455.69" y="304"/><use xlink:href="#Q" x="199.157" y="222"/><use xlink:href="#R" x="-131.093" y="257"/></g><g class="J B"><use xlink:href="#Z" x="302" y="175"/><path d="M497.017 303.248l-11.667 11.667 4.716 4.716-16.617 2.475 2.475-16.617 4.716 4.716 11.667-11.667z"/></g><defs ><path id="B" d="M163.568 90.4c0 2.826 2.232 4.806 5.022 4.806 2.808 0 5.04-1.98 5.04-4.806 0-2.808-2.232-4.806-5.04-4.806-2.8 0-5.022 1.998-5.022 4.806zm2.304 0c0-1.692 1.242-2.862 2.718-2.862 1.494 0 2.736 1.17 2.736 2.862 0 1.7-1.242 2.862-2.736 2.862-1.476 0-2.718-1.152-2.718-2.862z"/><path id="C" d="M187.196 95h2.268v-3.636c0-.54.072-1.044.198-1.494.414-1.368 1.53-1.926 2.502-1.926.324 0 .558.036.558.036v-2.25s-.216-.036-.414-.036c-1.404 0-2.502 1.044-2.916 2.358h-.036s.036-.234.036-.576v-.54c0-.774-.414-1.116-1.224-1.116h-2.088v1.944h.72c.252 0 .396.126.396.396z"/><path id="D" d="M138.762 115.578s1.296 1.638 3.816 1.638c1.998 0 3.528-1.08 3.528-2.808 0-3.06-4.878-2.772-4.878-4.212 0-.54.558-.828 1.368-.828.504 0 1.152.216 1.152.648v.45h2.016v-.954c0-1.494-1.98-1.908-3.222-1.908-1.908 0-3.564.846-3.564 2.682 0 2.97 4.842 2.952 4.842 4.248 0 .612-.54.9-1.242.9-1.566 0-2.736-1.35-2.736-1.35z"/><path id="E" d="M174.3 112.4c0 2.6 1.9 4.806 4.932 4.806 2.286 0 3.7-1.386 3.7-1.386l-.954-1.584s-1.098 1.026-2.574 1.026c-1.386 0-2.574-.846-2.754-2.466h6.336l.054-.846c0-2.43-1.44-4.356-4.068-4.356-2.754 0-4.662 1.98-4.662 4.806zm2.412-1.188c.252-1.152 1.08-1.854 2.25-1.854.936 0 1.692.756 1.728 1.854z"/><path id="F" d="M984.686 92.7l4.46 3.4-.48 3.63-5.1 1.98 1.62 6.87 5.76-.7 2.2 3-2.1 4.9 6 3.63 3.5-4.34 3.9.47 2.03 4.98 6.96-1.58-.64-5.7 3-2.37 4.78 2.45 4.05-6-4.7-3.55.5-3.55 5.27-1.98-1.54-6.8-6.08.63-2.1-2.7 2.2-5.2-6.08-3.48-3.8 4.43-3.73-.56-2.36-5.05-6.72 1.74.65 5.53-2.52 2.13-5.18-2.13zm12.5 7.7c0-4 3.33-7.23 7.43-7.23s7.42 3.23 7.42 7.23-3.32 7.24-7.42 7.24-7.43-3.24-7.43-7.24z"/><path id="G" d="M992.606 101.7l4.46 3.4-.48 3.63-5.1 1.98 1.62 6.87 5.76-.7 2.2 3-2.1 4.9 6 3.64 3.5-4.35 3.9.47 2.03 4.98 6.97-1.58-.65-5.7 3-2.37 4.78 2.45 4.05-6-4.7-3.56.5-3.55 5.27-1.98-1.54-6.8-6.08.63-2.1-2.7 2.2-5.2-6.08-3.48-3.8 4.42-3.73-.55-2.35-5.06-6.73 1.74.65 5.53-2.52 2.13-5.18-2.13zm12.5 7.7c0-4 3.33-7.23 7.43-7.23s7.42 3.24 7.42 7.23c0 4-3.32 7.24-7.42 7.24s-7.43-3.24-7.43-7.24z"/><path id="H" d="M968.695 144.436c0 2.464 1.936 4.256 4.352 4.256s4.368-1.792 4.368-4.256c0-2.448-1.952-4.224-4.368-4.224s-4.352 1.776-4.352 4.224zm1.584 0c0-1.68 1.248-2.88 2.768-2.88 1.536 0 2.784 1.2 2.784 2.88 0 1.696-1.248 2.912-2.784 2.912-1.52 0-2.768-1.216-2.768-2.912z"/><path id="I" d="M979.322 145.588c0 2.144.928 3.104 2.752 3.104 1.6 0 2.64-1.056 2.976-1.856h.032l-.016.464v.304c0 .576.336.896 1.024.896h1.488v-1.328h-.656a.31.31 0 0 1-.352-.352v-6.416h-1.552v3.792c0 1.6-.976 3.056-2.64 3.056-1.28 0-1.504-.896-1.504-2.016v-3.84c0-.688-.304-.992-1.04-.992h-1.52v1.328h.656a.31.31 0 0 1 .352.352z"/><path id="J" d="M994.916 151.7h1.552v-3.6l-.032-.704h.032s.688 1.296 2.48 1.296c2.112 0 3.68-1.664 3.68-4.24 0-2.512-1.392-4.24-3.568-4.24-2.016 0-2.688 1.44-2.688 1.44h-.032l.016-.432c0-.512-.272-.816-.992-.816h-1.456v1.328h.656a.31.31 0 0 1 .352.352zm1.504-7.216c0-2.064 1.136-2.912 2.336-2.912 1.344 0 2.288 1.136 2.288 2.896 0 1.84-1.056 2.896-2.336 2.896-1.504 0-2.288-1.44-2.288-2.88z"/><path id="K" d="M1022.976 144.452c0 2.4 1.744 4.24 4.304 4.24 1.92 0 3.12-1.184 3.12-1.184l-.672-1.104s-.976.944-2.368.944c-1.44 0-2.688-.976-2.784-2.704h5.904l.048-.64c0-2.096-1.216-3.792-3.488-3.792-2.304 0-4.064 1.664-4.064 4.24zm1.664-.944c.24-1.344 1.2-2.064 2.384-2.064 1.008 0 1.856.72 1.904 2.064z"/><path id="L" d="M1031.484 148.5h1.76l1.68-2.64c.128-.192.256-.432.256-.432h.032l.24.432 1.712 2.64h1.744l-2.736-4.16 1.552-2.32c.16-.24.368-.288.688-.288h.464v-1.328h-1.008c-.752 0-.992.128-1.408.816l-.976 1.568c-.128.208-.272.512-.272.512h-.032l-.256-.512-.992-1.568c-.432-.672-.656-.816-1.408-.816h-.992v1.328h.448c.336 0 .512.048.688.304l1.552 2.304z"/><path id="M" d="M30.377 82h1.76l1.664-5.2c.128-.416.224-.88.224-.88h.032l.224.88 1.68 5.2h1.744l2.128-6.448c.08-.256.24-.32.496-.32h.224v-1.328h-.96c-.72 0-1.008.176-1.216.864l-1.424 4.816c-.128.416-.192.864-.192.864h-.032s-.08-.448-.208-.864l-1.76-5.648h-1.424l-1.744 5.648-.224.864h-.032s-.064-.448-.192-.864l-1.44-4.816c-.208-.688-.48-.864-1.2-.864h-.976v1.328h.224c.256 0 .416.064.496.32z"/><path id="N" d="M7.664 96.952c0 2.512 1.376 4.24 3.568 4.24 1.984 0 2.656-1.472 2.656-1.472h.032s-.016.176-.016.416c0 .544.288.864.992.864h1.488v-1.328h-.656a.31.31 0 0 1-.352-.352v-8.592c0-.72-.304-1.024-1.024-1.024h-1.536v1.328h.656a.31.31 0 0 1 .352.352v2.032c0 .304.032.544.032.544h-.032s-.624-1.248-2.496-1.248c-2.144 0-3.664 1.664-3.664 4.24zm3.872 2.896c-1.344 0-2.288-1.136-2.288-2.896 0-1.84 1.056-2.896 2.32-2.896 1.552 0 2.304 1.44 2.304 2.88 0 2.064-1.136 2.912-2.336 2.912z"/><path id="O" d="M17.35 98.728c0 1.616 1.36 2.464 2.752 2.464 1.936 0 2.576-1.6 2.576-1.6h.032s-.032.208-.032.48c0 .576.288.928 1.008.928h1.456v-1.328h-.656a.31.31 0 0 1-.352-.352v-3.44c0-1.792-.704-3.168-3.328-3.168-.784 0-2.8.192-2.8 1.52v.8h1.456v-.464c0-.528.944-.624 1.328-.624 1.264 0 1.792.512 1.792 1.936v.08h-.352c-1.36 0-4.88.16-4.88 2.768zm1.568-.08c0-1.488 2.112-1.552 3.28-1.552h.4v.272c0 1.2-.848 2.576-2.16 2.576-1.024 0-1.52-.64-1.52-1.296z"/><path id="P" d="M58.38 99.768s1.072 1.424 3.232 1.424c1.696 0 2.976-.928 2.976-2.368 0-2.704-4.416-2.368-4.416-3.904 0-.64.592-.96 1.504-.96.496 0 1.216.208 1.216.688v.4h1.392v-.768c0-1.232-1.68-1.568-2.656-1.568-1.648 0-3.008.72-3.008 2.272 0 2.608 4.416 2.448 4.416 3.904 0 .704-.656 1.04-1.408 1.04-1.488 0-2.448-1.2-2.448-1.2z"/><path id="Q" d="M283.48 173.32h1.392v-1.616h-1.392zm-.032 8.656c0 .72.304 1.024 1.024 1.024h1.52v-1.328h-.656a.31.31 0 0 1-.352-.352v-5.392c0-.72-.304-1.024-1.024-1.024h-1.52v1.328h.656a.31.31 0 0 1 .352.352z"/><path id="R" d="M617.993 146.976c0 .72.304 1.024 1.024 1.024h1.536v-1.328h-.656a.31.31 0 0 1-.352-.352v-8.592c0-.72-.304-1.024-1.024-1.024h-1.536v1.328h.656a.31.31 0 0 1 .352.352z"/><path id="S" d="M560.68 100.446c0 2.826 1.548 4.77 4.014 4.77 2.232 0 2.988-1.656 2.988-1.656h.036s-.018.198-.018.468c0 .612.324.972 1.116.972h1.674v-1.494h-.738c-.252 0-.396-.126-.396-.396v-9.666c0-.8-.342-1.152-1.152-1.152h-1.728v1.494h.738c.252 0 .396.126.396.396v2.286c0 .342.036.612.036.612h-.036s-.702-1.404-2.808-1.404c-2.412 0-4.122 1.872-4.122 4.77zm4.356 3.258c-1.512 0-2.574-1.278-2.574-3.258 0-2.07 1.188-3.258 2.6-3.258 1.746 0 2.592 1.62 2.592 3.24 0 2.322-1.278 3.276-2.628 3.276z"/><path id="T" d="M709.655 100.428c0 2.772 2.178 4.788 4.896 4.788s4.914-2.016 4.914-4.788c0-2.754-2.196-4.752-4.914-4.752s-4.896 1.998-4.896 4.752zm1.782 0c0-1.9 1.404-3.24 3.114-3.24 1.728 0 3.132 1.35 3.132 3.24 0 1.908-1.404 3.276-3.132 3.276-1.7 0-3.114-1.368-3.114-3.276z"/><path id="U" d="M721.4 105h1.674v-.63c0-.396-.036-.684-.036-.684h.036s.828 1.53 2.862 1.53c2.394 0 4.14-1.872 4.14-4.77 0-2.826-1.548-4.77-3.996-4.77-2.142 0-2.934 1.494-2.934 1.494h-.036s.036-.324.036-.756v-2.97c0-.8-.342-1.152-1.152-1.152h-1.728v1.494h.738c.252 0 .396.126.396.396zm1.7-4.518c0-2.322 1.26-3.276 2.6-3.276 1.53 0 2.592 1.278 2.592 3.258 0 2.07-1.188 3.258-2.628 3.258-1.728 0-2.574-1.62-2.574-3.24z"/><path id="V" d="M732.75 94.1h1.584v-1.818h-1.584zm-2.376 13.068v1.494s.234.036.594.036c1.152 0 3.492-.36 3.492-3.402v-8.262c0-.8-.342-1.152-1.152-1.152h-1.728v1.494h.738c.252 0 .396.126.396.396v7.416c0 1.782-1.278 1.998-1.944 1.998-.234 0-.396-.018-.396-.018z"/><path id="W" d="M758.104 108.6h1.746v-4.05l-.036-.792h.036s.774 1.458 2.8 1.458c2.376 0 4.14-1.872 4.14-4.77 0-2.826-1.566-4.77-4.014-4.77-2.268 0-3.024 1.62-3.024 1.62h-.036l.018-.486c0-.576-.306-.918-1.116-.918h-1.638v1.494h.738c.252 0 .396.126.396.396zm1.692-8.118c0-2.322 1.278-3.276 2.628-3.276 1.512 0 2.574 1.278 2.574 3.258 0 2.07-1.188 3.258-2.628 3.258-1.692 0-2.574-1.62-2.574-3.24z"/><path id="X" d="M847.072 110.5h1.552v-3.792c0-.4.032-.768.144-1.088.32-1.168 1.312-1.984 2.56-1.984 1.296 0 1.52.896 1.52 2.032v3.808c0 .72.304 1.024 1.024 1.024h1.536v-1.328h-.656a.31.31 0 0 1-.352-.352v-3.504c0-2.064-.864-3.104-2.784-3.104-1.76 0-2.72 1.152-3.04 1.856h-.032s.032-.208.032-.464v-.304c0-.592-.336-.896-1.024-.896h-1.488v1.328h.656a.31.31 0 0 1 .352.352z"/><path id="Y" d="M255.595 74.752l11.667-11.667-4.716-4.716 16.617-2.475-2.475 16.617-4.716-4.716-11.667 11.667z"/><path id="Z" d="M259.857 123.835l12.067 11.253 4.55-4.878 3.053 16.52-16.693-1.893 4.55-4.878-12.067-11.253z"/><path id="a" d="M583.806 98.17h16.5V91.5l13.5 10-13.5 10v-6.67h-16.5z"/><path id="b" d="M368.97 262.134c0 2.412 1.044 3.492 3.096 3.492 1.8 0 2.97-1.188 3.348-2.088h.036l-.018.522v.342c0 .648.378 1.008 1.152 1.008h1.674v-1.494h-.738c-.252 0-.396-.126-.396-.396v-7.218h-1.746v4.266c0 1.8-1.098 3.438-2.97 3.438-1.44 0-1.692-1.008-1.692-2.268v-4.32c0-.774-.342-1.116-1.17-1.116h-1.7v1.494h.738c.252 0 .396.126.396.396z"/><path id="c" d="M464.74 280.6h2.268v-3.798l-.036-.792h.036s.8 1.206 2.628 1.206c2.412 0 4.212-1.9 4.212-4.806 0-2.844-1.602-4.806-4.086-4.806-2.142 0-2.916 1.458-2.916 1.458h-.036v-.36c0-.504-.306-.882-1.152-.882h-2.034v1.944h.72c.252 0 .396.126.396.396zm2.214-8.136c0-2.034 1.116-2.898 2.304-2.898 1.35 0 2.286 1.134 2.286 2.88 0 1.818-1.062 2.844-2.322 2.844-1.512 0-2.268-1.404-2.268-2.826z"/></defs></svg>