<svg xmlns="http://www.w3.org/2000/svg" xmlns:xlink="http://www.w3.org/1999/xlink" viewBox="-0.5 -0.5 308 616" height="616" width="308"><defs><path id="A" d="M180.124 27.432h6.426v-1.08c0-1.404-.396-2.484-1.152-3.24-.774-.756-1.836-1.134-3.168-1.134-1.35 0-2.412.396-3.168 1.152-.774.756-1.152 1.854-1.152 3.276v.8c0 1.458.378 2.556 1.17 3.312s1.872 1.134 3.258 1.134c1.206 0 2.178-.27 2.916-.8a2.87 2.87 0 0 0 1.206-2.178v-.108h-2.178l-.018.054c-.054.36-.252.63-.576.8-.324.198-.756.288-1.26.288-1.548 0-2.322-.738-2.304-2.25zm0-1.53c.072-1.332.774-2.016 2.106-2.016.63 0 1.134.162 1.512.486s.576.792.576 1.404v.126z"/><path id="B" d="M157.79 68.932c-.72-.594-1.728-.9-3.06-.9-1.188 0-2.142.27-2.844.774s-1.044 1.206-1.044 2.088v.054h2.124v-.054a1.02 1.02 0 0 1 .396-.828c.27-.216.702-.324 1.314-.324 1.314 0 1.98.558 1.98 1.674v.558h-2.502c-1.17 0-2.07.234-2.682.702s-.918 1.152-.918 2.034c0 .936.288 1.638.864 2.142s1.44.756 2.574.756c.594 0 1.098-.072 1.53-.216.414-.144.8-.396 1.188-.756v.864h2.16v-5.976c0-1.116-.36-1.98-1.08-2.592zm-1.134 5.148c0 1.17-.738 1.746-2.178 1.746-.594 0-1.044-.1-1.332-.306-.288-.198-.432-.486-.432-.864 0-.396.144-.684.45-.864.288-.18.756-.288 1.404-.288h2.088z"/><path id="C" d="M91.354 107.28h2.04v-.96h-2.04v-2.2l-1.275.525v1.665h-1.35v.96h1.35v4.515c0 1.47.765 2.205 2.295 2.205h.855v-1.1h-.645c-.45 0-.765-.1-.945-.27-.195-.18-.285-.48-.285-.9z"/><path id="D" d="M109.983 113.22c.615.615 1.485.915 2.595.915 1.005 0 1.785-.24 2.355-.735s.855-1.17.855-2.025v-.06h-1.245v.06c0 .5-.18.915-.5 1.2-.345.3-.825.435-1.455.435-1.5 0-2.25-.825-2.25-2.505v-.705c0-1.65.75-2.5 2.25-2.5.63 0 1.1.15 1.455.435.33.3.5.705.5 1.215v.075h1.245v-.075c0-.87-.285-1.545-.855-2.04s-1.365-.75-2.37-.75c-1.1 0-1.965.315-2.58.93-.63.615-.93 1.5-.93 2.67v.765c-.015 1.17.3 2.07.93 2.685z"/><path id="E" d="M171.02 113.445c.4.375.975.555 1.785.555h.825v-1.14h-.66c-.465 0-.795-.1-.975-.285-.18-.18-.27-.5-.27-.96v-7.965h-1.275v8.04c0 .795.18 1.38.57 1.755z"/><path id="F" d="M175.866 110.475h5.505v-.9c0-1.095-.3-1.935-.9-2.52s-1.425-.885-2.475-.885c-1.08 0-1.905.33-2.505.96s-.9 1.545-.9 2.715v.615c0 1.2.315 2.115.945 2.745.615.63 1.5.93 2.625.93.63 0 1.185-.105 1.665-.33s.84-.525 1.095-.915a2.48 2.48 0 0 0 .405-1.305v-.06h-1.26v.045c-.015.42-.18.78-.5 1.05s-.78.405-1.365.405c-1.56 0-2.325-.825-2.325-2.5zm.6-2.625c.36-.36.87-.555 1.53-.555s1.185.18 1.545.525.555.87.555 1.56v.135h-4.23c.03-.75.24-1.305.6-1.665z"/><path id="G" d="M94.57 126.987v7.68h1.275v-4.5c0-.66.18-1.17.57-1.56.4-.375.9-.57 1.545-.57.57 0 1.005.165 1.32.495s.48.825.48 1.455v4.68h1.3v-4.635c0-.63.165-1.125.525-1.47.345-.345.84-.525 1.5-.525.6 0 1.065.165 1.395.495.315.33.48.825.48 1.47v4.665h1.275v-4.83c0-.93-.255-1.65-.765-2.16s-1.215-.78-2.145-.78c-.6 0-1.125.105-1.56.3-.435.2-.8.5-1.125.93a2.45 2.45 0 0 0-.975-.9c-.42-.2-.885-.33-1.395-.33a3.51 3.51 0 0 0-1.395.285 2.7 2.7 0 0 0-1.035.84v-1.035z"/><path id="H" d="M108.253 126.987v10.1h1.275v-3.42c.5.75 1.32 1.125 2.43 1.125.96 0 1.74-.3 2.325-.93.585-.615.885-1.5.885-2.655v-.8c0-1.14-.3-2-.885-2.625s-1.365-.93-2.325-.93c-.54 0-1.02.105-1.425.315-.42.2-.765.495-1.02.855v-1.035zm5.085 6.06c-.375.42-.9.63-1.56.63-.705 0-1.26-.2-1.65-.63-.405-.42-.6-1-.6-1.7v-1.005c0-.72.195-1.3.585-1.7s.945-.645 1.635-.645 1.215.2 1.6.63c.36.42.555 1.035.555 1.875v.675c0 .84-.195 1.47-.555 1.9z"/><path id="I" d="M108.112 157.193c.555.36 1.32.54 2.3.54 1.125 0 1.995-.255 2.595-.795.6-.525.915-1.275.915-2.265v-7.02h-1.26v1.005c-.255-.36-.6-.63-1.035-.84s-.915-.315-1.455-.315c-.96 0-1.725.315-2.295.93s-.855 1.485-.855 2.6v.585c-.015 1.1.285 1.98.855 2.58s1.35.9 2.325.9c.54 0 1.035-.1 1.455-.285s.75-.48 1.005-.87v.8c0 .645-.195 1.125-.555 1.425-.36.315-.93.465-1.68.465-.6 0-1.065-.075-1.38-.255-.33-.18-.525-.45-.615-.825h-1.245c.06.72.36 1.26.915 1.62zm3.975-3.825c-.4.405-.93.6-1.65.6-.675 0-1.2-.195-1.575-.6s-.555-1.005-.555-1.815v-.435c0-.825.18-1.44.555-1.86.36-.42.885-.63 1.575-.63s1.245.2 1.635.63.6 1 .6 1.695v.705c0 .75-.195 1.32-.585 1.7z"/><path id="J" d="M115.958 147.653v7.68h1.275v-4.5c0-.66.18-1.17.57-1.56.4-.375.9-.57 1.545-.57.615 0 1.08.165 1.4.495s.495.825.495 1.47v4.665h1.275v-4.83c0-.915-.255-1.635-.75-2.16-.5-.5-1.215-.78-2.115-.78a3.53 3.53 0 0 0-1.41.285 2.7 2.7 0 0 0-1.035.84v-1.035z"/><path id="K" d="M125.02 168.935c-.57-.48-1.395-.72-2.46-.72-.945 0-1.68.2-2.22.63a2.02 2.02 0 0 0-.81 1.695v.045h1.245v-.045c0-.4.15-.705.45-.93.3-.2.75-.33 1.35-.33 1.35 0 2.025.585 2.025 1.74v.525h-2.385c-.96 0-1.695.195-2.2.585-.5.4-.75.93-.75 1.65 0 .75.24 1.335.72 1.725s1.185.585 2.13.585c1.14 0 1.965-.315 2.505-.96v.87h1.245v-5c0-.9-.285-1.575-.855-2.055zm-.96 5.64c-.36.33-.93.48-1.68.48-.63 0-1.095-.105-1.395-.315s-.45-.525-.45-.975c0-.42.15-.735.45-.945s.78-.315 1.44-.315h2.175v.6c0 .66-.18 1.155-.54 1.47z"/><path id="L" d="M96.155 195.887c.63.615 1.485.915 2.595.915 1.08 0 1.935-.3 2.565-.915.615-.615.93-1.515.93-2.685v-.765c0-1.155-.315-2.04-.93-2.67-.63-.615-1.485-.93-2.565-.93-1.1 0-1.965.315-2.595.93s-.93 1.5-.93 2.67v.765c0 1.17.3 2.07.93 2.685zm4.815-2.715c0 1.68-.75 2.505-2.235 2.505-1.5 0-2.235-.825-2.235-2.505v-.705c0-1.65.735-2.5 2.235-2.5 1.485 0 2.235.84 2.235 2.5z"/><path id="M" d="M112.897 195.887c.57.615 1.335.915 2.325.915.54 0 1.035-.1 1.455-.285s.75-.48 1.005-.855v1.005h1.26v-10.35h-1.26v3.7a2.65 2.65 0 0 0-1.035-.855c-.435-.2-.915-.315-1.455-.315-.96 0-1.725.315-2.295.93-.57.63-.855 1.5-.855 2.64v.825c0 1.155.285 2.04.855 2.655zm4.2-.84c-.4.42-.945.63-1.635.63s-1.215-.195-1.6-.615-.555-1.05-.555-1.9v-.7c0-.84.18-1.455.555-1.875.36-.42.885-.63 1.575-.63s1.245.2 1.635.63.6 1.005.6 1.725v1.005c0 .72-.195 1.3-.585 1.7z"/><path id="N" d="M169.085 196.127c.57.42 1.365.63 2.385.63s1.83-.195 2.43-.615a2.02 2.02 0 0 0 .9-1.755c0-.615-.2-1.095-.63-1.44-.42-.33-1.05-.555-1.905-.66l-1.17-.15c-.57-.06-.96-.165-1.185-.33-.24-.165-.345-.405-.345-.735 0-.36.15-.645.48-.855.315-.195.795-.3 1.44-.3.63 0 1.1.12 1.455.33a1.03 1.03 0 0 1 .525.93v.045h1.215v-.06c0-.7-.285-1.245-.855-1.665-.57-.405-1.365-.615-2.355-.615-.96 0-1.725.2-2.28.615-.57.405-.84.96-.84 1.665-.015.615.195 1.095.6 1.425.4.33 1.02.555 1.875.645l1.095.135c.57.06 1 .18 1.26.345a.84.84 0 0 1 .405.75c0 .405-.195.705-.555.915s-.87.315-1.5.315c-.72 0-1.245-.12-1.575-.36a1.11 1.11 0 0 1-.51-.975v-.03h-1.215v.045c0 .75.285 1.335.855 1.755z"/><path id="O" d="M192.8 208.213c.195-.18.5-.285.93-.285h.705v-.945h-.915c-.75 0-1.305.195-1.695.555s-.585.885-.585 1.575v.54h-1.08v.96h1.08v6.72h1.275v-6.72h1.92v-.96h-1.92v-.585c0-.4.1-.675.285-.855z"/><path id="P" d="M122.813 332.208c.756.666 1.8 1 3.168 1 1.314 0 2.358-.342 3.15-1.026.774-.666 1.17-1.62 1.17-2.826v-.378c0-1.08-.342-1.926-1-2.574-.666-.648-1.53-.972-2.6-.972-.54 0-1 .1-1.314.252l2.952-5.094h-2.556l-3.204 5.526c-.612 1.062-.9 2.052-.9 2.952v.36c0 1.188.378 2.124 1.134 2.8zm4.608-1.476c-.36.324-.828.468-1.44.468s-1.098-.144-1.44-.468c-.342-.306-.504-.738-.504-1.296v-.342c0-.522.162-.954.504-1.26.342-.288.828-.45 1.44-.45s1.08.162 1.44.45c.342.306.522.738.522 1.278v.324c0 .558-.18 1-.522 1.296z"/><path id="Q" d="M135.206 389.706h2.124v-1.566h-2.124v-2.6l-2.214.774v1.836h-1.638v1.566h1.638v4.914c0 .936.252 1.638.756 2.142s1.224.738 2.178.738h1.206v-1.9h-.792c-.414 0-.702-.072-.882-.252s-.252-.468-.252-.882z"/><path id="R" d="M82.204 438.884h5.712v-.96c0-1.248-.352-2.208-1.024-2.88-.688-.672-1.632-1.008-2.816-1.008-1.2 0-2.144.352-2.816 1.024-.688.672-1.024 1.648-1.024 2.912v.72c0 1.296.336 2.272 1.04 2.944s1.664 1.008 2.896 1.008c1.072 0 1.936-.24 2.592-.72a2.55 2.55 0 0 0 1.072-1.936v-.096H85.9l-.016.048c-.048.32-.224.56-.512.72-.288.176-.672.256-1.12.256-1.376 0-2.064-.656-2.048-2zm0-1.36c.064-1.184.688-1.792 1.872-1.792.56 0 1.008.144 1.344.432s.512.704.512 1.248v.112z"/><path id="S" d="M94.076 442.5h2.16l-2.928-4.336 2.768-3.984h-2.16l-1.584 2.528-1.696-2.528H88.46l2.72 4.032-2.88 4.288h2.176l1.728-2.784z"/><path id="T" d="M97.24 434.18v10.816h1.984v-3.344c.544.672 1.312.992 2.304.992.624 0 1.184-.144 1.68-.448.48-.288.864-.736 1.152-1.312s.432-1.28.432-2.08v-1.04c0-1.2-.304-2.128-.88-2.768-.592-.64-1.376-.96-2.368-.96-.96 0-1.76.368-2.368 1.088v-.944zm5.12 6.16c-.304.352-.736.528-1.296.528-.576 0-1.024-.176-1.344-.528-.336-.352-.496-.848-.496-1.456v-1.056c0-.64.16-1.136.48-1.488s.752-.544 1.328-.544c1.184 0 1.776.688 1.776 2.064v.864c0 .72-.16 1.264-.448 1.616z"/><path id="U" d="M107.244 441.668c.672.656 1.6.976 2.784.976 1.168 0 2.08-.32 2.752-.976.672-.64 1.008-1.6 1.008-2.848v-.992c0-1.216-.336-2.16-1.008-2.816-.672-.64-1.584-.976-2.752-.976-1.184 0-2.112.336-2.784.976s-1.008 1.584-1.008 2.816v.992c0 1.248.336 2.208 1.008 2.848zm4.576-2.864c0 1.376-.608 2.064-1.792 2.064-1.216 0-1.824-.688-1.824-2.064v-.944c0-1.376.608-2.064 1.824-2.064.576 0 1.008.176 1.328.512.304.336.464.848.464 1.552z"/><path id="V" d="M115.364 434.18v8.32h1.984v-4.608c0-.688.16-1.216.512-1.584s.832-.56 1.472-.56a3.61 3.61 0 0 1 1.184.208v-1.888a5.35 5.35 0 0 0-.784-.064c-.512 0-.976.096-1.392.288s-.768.464-1.04.832v-.944z"/><path id="W" d="M124.637 435.572h1.888v-1.392h-1.888v-2.32l-1.968.688v1.632h-1.456v1.392h1.456v4.368c0 .832.224 1.456.672 1.904s1.088.656 1.936.656h1.072v-1.68h-.704c-.368 0-.624-.064-.784-.224s-.224-.416-.224-.784z"/><path id="X" d="M138.27 436.004h1.856v-1.472h-1.664l.4-3.072h-1.648l-.4 3.072h-1.792l.4-3.072h-1.648l-.4 3.072h-1.856v1.472h1.664l-.24 1.76h-1.872v1.472h1.68l-.432 3.264h1.648l.432-3.264h1.792l-.432 3.264h1.664l.432-3.264h1.824v-1.472h-1.632zm-1.648 0l-.24 1.76h-1.792l.24-1.76z"/></defs><path d="M49.6 4h220.8a9.58 9.58 0 0 1 9.6 9.6v590.8a9.58 9.58 0 0 1-9.6 9.6H49.6a9.58 9.58 0 0 1-9.6-9.6V13.6A9.58 9.58 0 0 1 49.6 4z" opacity=".25"/><path d="M47.6 1h220.8a9.58 9.58 0 0 1 9.6 9.6v590.8a9.58 9.58 0 0 1-9.6 9.6H47.6a9.58 9.58 0 0 1-9.6-9.6V10.6A9.58 9.58 0 0 1 47.6 1z" fill="#fafafa"/><g fill="#333"><path d="M138.1 26.208c-.324-.468-.8-.846-1.44-1.098.558-.252 1-.594 1.296-1.044a2.65 2.65 0 0 0 .468-1.53c0-1.116-.378-1.962-1.116-2.556-.756-.594-1.818-.9-3.222-.9h-5.382V31.5h5.616c1.368 0 2.43-.306 3.168-.918s1.116-1.494 1.116-2.646c0-.666-.18-1.242-.504-1.728zm-7.038-5.076h3.132c1.242 0 1.872.522 1.872 1.548 0 1-.666 1.476-1.962 1.476h-3.042zm5.202 6.642c0 1.116-.648 1.674-1.908 1.674h-3.294v-3.24h3.204c1.332 0 1.998.522 1.998 1.566zm4.16-8.694V31.5h2.358V19.08zm15.06 0h-2.358v8.244l-5.742-8.244h-2.358V31.5h2.358v-8.226l5.742 8.226h2.358zm9.57 1.764c.18-.162.486-.252.918-.252h.828V19.08h-1.458c-.918 0-1.602.234-2.07.684s-.702 1.116-.702 1.998v.378h-1.26v1.566h1.26V31.5h2.214v-7.794h2.016V22.14h-2.016v-.468c0-.378.1-.648.27-.828zm3.28-1.818v1.782h2.214v-1.782zm0 3.114v9.36h2.214v-9.36zm4.99 8.622c.504.504 1.296.738 2.358.738h1.242v-1.926h-.846c-.486 0-.828-.1-1.008-.27s-.27-.504-.27-.972V19.08h-2.232v9.396c0 1.026.252 1.782.756 2.286z"/><use xlink:href="#A"/></g><path d="M66 51h184c4.432 0 8 3.568 8 8v194c0 4.432-3.568 8-8 8H66c-4.432 0-8-3.568-8-8V59c0-4.432 3.568-8 8-8z" fill="#e67c73"/><g fill="#fff"><path d="M138.545 65.08h-2.358v5.112h-5.238V65.08h-2.358V77.5h2.358v-5.256h5.238V77.5h2.358z"/><use xlink:href="#A" x="-37.459" y="46"/><use xlink:href="#B"/><path d="M161.656 76.564c.666.738 1.548 1.098 2.664 1.098 1.152 0 2.034-.378 2.646-1.17V77.5h2.178V65.08h-2.214v4.068c-.666-.774-1.548-1.17-2.646-1.17-.72 0-1.35.18-1.9.504s-.972.8-1.278 1.44c-.306.648-.45 1.404-.45 2.304v1.17c0 1.386.324 2.448 1 3.168zm4.698-1.494c-.378.396-.882.594-1.53.594-.612 0-1.098-.18-1.422-.576-.342-.396-.504-1-.504-1.782v-.972c0-.792.162-1.386.504-1.782s.828-.594 1.476-.594 1.152.216 1.512.612.54.954.54 1.674v1.188c0 .702-.198 1.242-.576 1.638z"/><use xlink:href="#A" x="-6.978" y="46"/><path d="M181.34 68.14v9.36h2.232v-5.184c0-.774.18-1.368.576-1.782s.936-.63 1.656-.63a4.06 4.06 0 0 1 1.332.234v-2.124c-.252-.036-.54-.072-.882-.072-.576 0-1.098.108-1.566.324s-.864.522-1.17.936V68.14zM74.4 91h167.2c3.546 0 6.4 2.854 6.4 6.4v147.2c0 3.546-2.854 6.4-6.4 6.4H74.4c-3.546 0-6.4-2.854-6.4-6.4V97.4c0-3.546 2.854-6.4 6.4-6.4z"/></g><g fill="#333"><path d="M81.985 113.46c.57.42 1.365.63 2.385.63s1.83-.195 2.43-.615a2.02 2.02 0 0 0 .9-1.755c0-.615-.2-1.095-.63-1.44-.42-.33-1.05-.555-1.905-.66l-1.17-.15c-.57-.06-.96-.165-1.185-.33-.24-.165-.345-.405-.345-.735 0-.36.15-.645.48-.855.315-.195.795-.3 1.44-.3.63 0 1.1.12 1.455.33a1.03 1.03 0 0 1 .525.93v.045h1.215v-.06c0-.7-.285-1.245-.855-1.665-.57-.405-1.365-.615-2.355-.615-.96 0-1.725.2-2.28.615-.57.405-.84.96-.84 1.665-.015.615.195 1.095.6 1.425.4.33 1.02.555 1.875.645l1.095.135c.57.06 1 .18 1.26.345a.84.84 0 0 1 .405.75c0 .405-.195.705-.555.915s-.87.315-1.5.315c-.72 0-1.245-.12-1.575-.36a1.11 1.11 0 0 1-.51-.975v-.03H81.13v.045c0 .75.285 1.335.855 1.755z"/><use xlink:href="#C"/><path d="M95 106.32V114h1.275v-4.425c0-.675.195-1.215.6-1.62.405-.4.945-.6 1.605-.6.285 0 .57.045.84.12v-1.215a4.09 4.09 0 0 0-.615-.045c-.54 0-1.02.105-1.425.3-.42.195-.765.495-1.02.885v-1.08zm6.524 6.975c.555.54 1.365.8 2.43.8s1.875-.27 2.445-.8.855-1.32.855-2.34v-4.635h-1.275v4.5c0 .72-.165 1.26-.495 1.62s-.825.525-1.515.525c-1.35 0-2-.705-2-2.145v-4.5h-1.275v4.635c-.015 1.02.27 1.8.84 2.34z"/><use xlink:href="#D"/><use xlink:href="#C" x="28.213"/><path d="M127.5 112.995c.75.765 1.83 1.14 3.2 1.14 1.245 0 2.235-.285 2.955-.87s1.095-1.395 1.095-2.445v-.075h-1.35v.06c0 .7-.24 1.2-.7 1.56-.465.36-1.125.54-1.98.54-1.02 0-1.77-.27-2.265-.8s-.735-1.365-.735-2.505v-1.455c0-1.17.24-2.025.735-2.58.48-.54 1.23-.825 2.25-.825.855 0 1.515.18 1.98.54s.705.885.705 1.545v.06h1.365v-.075c0-1.035-.36-1.845-1.08-2.43-.72-.57-1.7-.87-2.955-.87-1.395 0-2.475.4-3.225 1.155-.765.765-1.14 1.905-1.14 3.405v1.515c-.015 1.515.375 2.655 1.125 3.42zm16.886-3.435c-.3-.42-.72-.72-1.3-.9.495-.18.885-.465 1.155-.855s.405-.84.405-1.38c0-.9-.3-1.6-.87-2.07s-1.4-.705-2.505-.705h-4.545V114h4.635c1.125 0 1.98-.24 2.58-.735.585-.48.885-1.2.885-2.145 0-.615-.15-1.14-.45-1.56zm-6.285-4.7h3.2c.66 0 1.17.135 1.5.405s.495.7.495 1.23c0 .555-.18.96-.5 1.23s-.84.4-1.515.4h-3.18zm4.86 7.515c-.345.3-.87.435-1.56.435h-3.3v-3.495h3.2c1.44 0 2.16.585 2.16 1.725 0 .6-.18 1.05-.5 1.335zm3.883-8.7v1.38h1.275v-1.38zm0 2.655V114h1.275v-7.68zm3.41 0V114h1.275v-4.5c0-.66.18-1.17.57-1.56.4-.375.9-.57 1.545-.57.615 0 1.08.165 1.4.495s.495.825.495 1.47V114h1.275v-4.83c0-.915-.255-1.635-.75-2.16-.5-.5-1.215-.78-2.115-.78a3.53 3.53 0 0 0-1.41.285 2.7 2.7 0 0 0-1.035.84v-1.035zm10.025-1.455h5.865v-1.215h-7.23V114h1.365v-4.605h5.04v-1.215h-5.04zm6.75-1.2v1.38h1.275v-1.38zm0 2.655V114h1.275v-7.68z"/><use xlink:href="#E"/><use xlink:href="#F"/><path d="M81.28 128.862v1.215h4.77v-1.215zm9.865-4.545v1.395h1.3v-1.395zm-1.875 11.505v1.14h.825c.78 0 1.365-.18 1.755-.57s.6-.96.6-1.725v-7.68h-1.275v7.6c0 .45-.105.78-.285.96-.195.195-.5.285-.945.285z"/><use xlink:href="#G"/><use xlink:href="#H"/><path d="M81.28 149.528v1.215h4.77v-1.215zm15.175-1.26c-.57-.48-1.395-.72-2.46-.72-.945 0-1.68.2-2.22.63a2.02 2.02 0 0 0-.81 1.695v.045H92.2v-.045a1.09 1.09 0 0 1 .45-.93c.3-.2.75-.33 1.35-.33 1.35 0 2.025.585 2.025 1.74v.525H93.65c-.96 0-1.695.195-2.2.585-.5.4-.75.93-.75 1.65 0 .75.24 1.335.72 1.725s1.185.585 2.13.585c1.14 0 1.965-.315 2.505-.96v.87H97.3v-5c0-.9-.285-1.575-.855-2.055zm-.96 5.64c-.36.33-.93.48-1.68.48-.63 0-1.095-.105-1.395-.315s-.45-.525-.45-.975c0-.42.15-.735.45-.945s.78-.315 1.44-.315h2.175v.6c0 .66-.18 1.155-.54 1.47z"/><use xlink:href="#E" x="-71.132" y="41.333"/><path d="M103.846 144.998v1.38h1.275v-1.38zm0 2.655v7.68h1.275v-7.68z"/><use xlink:href="#I"/><use xlink:href="#J"/><use xlink:href="#G" x="29.972" y="20.666"/><use xlink:href="#F" x="-36.592" y="41.333"/><use xlink:href="#J" x="30.615"/><use xlink:href="#C" x="65.859" y="41.333"/><path d="M81.28 170.195v1.215h4.77v-1.215zm10.285 5.265c.57.42 1.365.63 2.385.63s1.83-.195 2.43-.615a2.02 2.02 0 0 0 .9-1.755c0-.615-.2-1.095-.63-1.44-.42-.33-1.05-.555-1.905-.66l-1.17-.15c-.57-.06-.96-.165-1.185-.33-.24-.165-.345-.405-.345-.735 0-.36.15-.645.48-.855.315-.195.795-.3 1.44-.3.63 0 1.1.12 1.455.33a1.03 1.03 0 0 1 .525.93v.045h1.215v-.06c0-.7-.285-1.245-.855-1.665-.57-.405-1.365-.615-2.355-.615-.96 0-1.725.2-2.28.615-.57.405-.84.96-.84 1.665-.015.615.195 1.095.6 1.425.4.33 1.02.555 1.875.645l1.095.135c.57.06 1 .18 1.26.345a.84.84 0 0 1 .405.75c0 .405-.195.705-.555.915s-.87.315-1.5.315c-.72 0-1.245-.12-1.575-.36a1.11 1.11 0 0 1-.51-.975v-.03H90.7v.045c0 .75.285 1.335.855 1.755zm7.39-9.795v1.38h1.275v-1.38zm0 2.655V176h1.275v-7.68z"/><use xlink:href="#I" x="-4.892" y="20.667"/><path d="M111.066 168.32V176h1.275v-4.5c0-.66.18-1.17.57-1.56.4-.375.9-.57 1.545-.57.615 0 1.08.165 1.4.495s.495.825.495 1.47V176h1.275v-4.83c0-.915-.255-1.635-.75-2.16-.5-.5-1.215-.78-2.115-.78a3.53 3.53 0 0 0-1.41.285 2.7 2.7 0 0 0-1.035.84v-1.035z"/><use xlink:href="#K"/><use xlink:href="#C" x="38.584" y="62"/><path d="M134.435 175.295c.555.54 1.365.8 2.43.8s1.875-.27 2.445-.8.855-1.32.855-2.34v-4.635H138.9v4.5c0 .72-.165 1.26-.495 1.62s-.825.525-1.515.525c-1.35 0-2-.705-2-2.145v-4.5h-1.275v4.635c-.015 1.02.27 1.8.84 2.34zm7.745-6.975V176h1.275v-4.425c0-.675.195-1.215.6-1.62s.945-.6 1.605-.6c.285 0 .57.045.84.12v-1.215a4.09 4.09 0 0 0-.615-.045c-.54 0-1.02.105-1.425.3-.42.195-.765.495-1.02.885v-1.08z"/><use xlink:href="#F" x="-27.041" y="62"/><path d="M81.28 190.862v1.215h4.77v-1.215z"/><use xlink:href="#E" x="-79.365" y="82.667"/><use xlink:href="#L"/><path d="M109.404 189.602c-.57-.48-1.395-.72-2.46-.72-.945 0-1.68.2-2.22.63a2.02 2.02 0 0 0-.81 1.695v.045h1.245v-.045c0-.4.15-.705.45-.93.3-.2.75-.33 1.35-.33 1.35 0 2.025.585 2.025 1.74v.525H106.6c-.96 0-1.695.195-2.2.585-.5.4-.75.93-.75 1.65 0 .75.24 1.335.72 1.725s1.185.585 2.13.585c1.14 0 1.965-.315 2.505-.96v.87h1.245v-5c0-.9-.285-1.575-.855-2.055zm-.96 5.64c-.36.33-.93.48-1.68.48-.63 0-1.095-.105-1.395-.315s-.45-.525-.45-.975c0-.42.15-.735.45-.945s.78-.315 1.44-.315h2.175v.6c0 .66-.18 1.155-.54 1.47z"/><use xlink:href="#M"/><path d="M119.963 197.417v.885h8.055v-.885zm14.432-7.815c-.57-.48-1.395-.72-2.46-.72-.945 0-1.68.2-2.22.63a2.02 2.02 0 0 0-.81 1.695v.045h1.245v-.045a1.09 1.09 0 0 1 .45-.93c.3-.2.75-.33 1.35-.33 1.35 0 2.025.585 2.025 1.74v.525H131.6c-.96 0-1.695.195-2.2.585-.5.4-.75.93-.75 1.65 0 .75.24 1.335.72 1.725s1.185.585 2.13.585c1.14 0 1.965-.315 2.505-.96v.87h1.245v-5c0-.9-.285-1.575-.855-2.055zm-.96 5.64c-.36.33-.93.48-1.68.48-.63 0-1.095-.105-1.395-.315s-.45-.525-.45-.975c0-.42.15-.735.45-.945s.78-.315 1.44-.315h2.175v.6c0 .66-.18 1.155-.54 1.47z"/><use xlink:href="#M" x="24.99"/><use xlink:href="#M" x="33.691"/><path d="M154.66 188.987v7.68h1.275v-4.425c0-.675.195-1.215.6-1.62.405-.4.945-.6 1.605-.6.285 0 .57.045.84.12v-1.215a4.09 4.09 0 0 0-.615-.045c-.54 0-1.02.105-1.425.3-.42.195-.765.495-1.02.885v-1.08z"/><use xlink:href="#F" x="-14.561" y="82.667"/><use xlink:href="#N"/><use xlink:href="#N" x="7.763"/><path d="M81.28 211.528v1.215h4.77v-1.215z"/><use xlink:href="#H" x="-17.168" y="82.666"/><use xlink:href="#K" x="-19.864" y="41.333"/><use xlink:href="#C" x="18.72" y="103.333"/><use xlink:href="#D" x="4.367" y="103.333"/><path d="M121.935 206.983v10.35h1.275v-4.5c0-.66.18-1.17.57-1.56.4-.375.9-.57 1.545-.57.615 0 1.08.165 1.4.495s.495.825.495 1.47v4.665h1.275v-4.83c0-.915-.255-1.635-.75-2.16-.5-.5-1.215-.78-2.115-.78a3.53 3.53 0 0 0-1.41.285c-.42.195-.75.48-1.02.84v-3.705zm7.58 11.1v.885h8.055v-.885z"/><use xlink:href="#C" x="49.306" y="103.333"/><use xlink:href="#K" x="24.61" y="41.333"/><path d="M154.756 217.183c.405.195.885.285 1.44.285.96 0 1.74-.3 2.325-.93.585-.615.885-1.5.885-2.655v-.8c0-1.14-.3-2-.885-2.64-.585-.615-1.365-.93-2.325-.93-.54 0-1.02.105-1.425.315a2.59 2.59 0 0 0-1.005.87v-3.705h-1.275v10.35h1.26v-1c.255.375.585.66 1.005.84zm2.82-1.47c-.375.42-.9.63-1.56.63-.705 0-1.26-.2-1.65-.63-.405-.42-.6-1-.6-1.7v-1.005c0-.72.195-1.3.585-1.7s.945-.645 1.635-.645 1.215.2 1.6.615c.36.42.555 1.035.555 1.875v.7c0 .84-.195 1.47-.555 1.9z"/><use xlink:href="#E" x="-9.257" y="103.333"/><use xlink:href="#F" x="-9.258" y="103.333"/><path d="M172.902 218.083v.885h8.055v-.885z"/><use xlink:href="#L" x="86.515" y="20.666"/><use xlink:href="#O"/><use xlink:href="#O" x="5.654"/><use xlink:href="#N" x="32.988" y="20.666"/><use xlink:href="#F" x="34.541" y="103.333"/><use xlink:href="#C" x="128.349" y="103.333"/><path d="M81.28 232.195v1.215h4.77v-1.215zm12.115-3.315c.195-.18.5-.285.93-.285h.705v-.945h-.915c-.75 0-1.305.195-1.695.555s-.585.885-.585 1.575v.54h-1.08v.96h1.08V238H93.1v-6.72h1.92v-.96H93.1v-.585c0-.4.1-.675.285-.855zm3.245-1.215v1.38h1.275v-1.38zm0 2.655V238h1.275v-7.68z"/><use xlink:href="#E" x="-70.4" y="124"/><use xlink:href="#F" x="-70.401" y="124"/><path d="M111.76 238.75v.885h8.055v-.885z"/><use xlink:href="#N" x="-47.785" y="41.333"/><path d="M128.7 227.665v1.38h1.275v-1.38zm0 2.655V238h1.275v-7.68zm9.116 1.14v-1.14h-5.94v1.14h4.44l-4.44 5.415V238h5.94v-1.125h-4.47z"/><use xlink:href="#F" x="-35.332" y="124"/></g><path d="M65.7 281h184.6c4.266 0 7.7 3.434 7.7 7.7v54.6c0 4.266-3.434 7.7-7.7 7.7H65.7c-4.266 0-7.7-3.434-7.7-7.7v-54.6c0-4.266 3.434-7.7 7.7-7.7z" fill="#d81b60"/><g fill="#fff"><path d="M138.483 309.83c.936.918 2.232 1.368 3.906 1.368 1.53 0 2.754-.378 3.654-1.134s1.35-1.818 1.35-3.186v-.1h-2.34v.1c0 .684-.234 1.224-.702 1.62s-1.098.576-1.926.576c-1 0-1.728-.27-2.214-.828-.504-.54-.738-1.386-.738-2.538v-1.782c0-1.188.234-2.07.72-2.646s1.224-.864 2.214-.864c.828 0 1.476.216 1.944.612s.702.954.702 1.638v.072h2.358v-.144c0-1.332-.468-2.358-1.368-3.114s-2.124-1.134-3.636-1.134c-1.674 0-2.97.468-3.906 1.368-.936.918-1.404 2.286-1.404 4.086v1.944c0 1.818.45 3.186 1.386 4.086zm11.715.234c.756.738 1.8 1.098 3.132 1.098 1.314 0 2.34-.36 3.096-1.098.756-.72 1.134-1.8 1.134-3.204v-1.116c0-1.368-.378-2.43-1.134-3.168-.756-.72-1.782-1.098-3.096-1.098-1.332 0-2.376.378-3.132 1.098s-1.134 1.782-1.134 3.168v1.116c0 1.404.378 2.484 1.134 3.204zm5.148-3.222c0 1.548-.684 2.322-2.016 2.322-1.368 0-2.052-.774-2.052-2.322v-1.062c0-1.548.684-2.322 2.052-2.322.648 0 1.134.198 1.494.576.342.378.522.954.522 1.746zm4.834 3.222c.666.738 1.548 1.098 2.664 1.098 1.152 0 2.034-.378 2.646-1.17V311h2.178v-12.42h-2.214v4.068c-.666-.774-1.548-1.17-2.646-1.17-.72 0-1.35.18-1.9.504s-.972.8-1.278 1.44c-.306.648-.45 1.404-.45 2.304v1.17c0 1.386.324 2.448 1 3.168zm4.698-1.494c-.378.396-.882.594-1.53.594-.612 0-1.098-.18-1.422-.576-.342-.396-.504-1-.504-1.782v-.972c0-.792.162-1.386.504-1.782s.828-.594 1.476-.594 1.152.216 1.512.612.54.954.54 1.674v1.188c0 .702-.198 1.242-.576 1.638z"/><use xlink:href="#A" x="-8.454" y="279.5"/><path d="M96.784 331.038c.432 1.26 1.062 2.412 1.9 3.474h1.638c-.648-1.08-1.134-2.25-1.458-3.5-.324-1.242-.486-2.556-.486-3.906a15.69 15.69 0 0 1 .486-3.906c.324-1.26.828-2.43 1.476-3.5h-1.638c-.846 1.044-1.476 2.178-1.908 3.42-.432 1.26-.63 2.574-.63 3.978a11.63 11.63 0 0 0 .63 3.96zM107.787 333h2.43l-3.294-4.878 3.114-4.482h-2.43l-1.782 2.844-1.908-2.844h-2.448l3.06 4.536-3.24 4.824h2.448l1.944-3.132zm4.746-.792c.774.666 1.818 1 3.132 1 1.296 0 2.34-.324 3.132-1 .774-.666 1.17-1.584 1.17-2.736v-.252c0-.576-.162-1.098-.45-1.584-.306-.486-.738-.864-1.278-1.152a2.6 2.6 0 0 0 1.08-.99c.27-.432.414-.936.414-1.476v-.198c0-.666-.162-1.26-.486-1.782s-.792-.936-1.404-1.224-1.332-.432-2.16-.432-1.548.144-2.16.432-1.08.702-1.404 1.224-.486 1.116-.486 1.782v.198c0 .558.126 1.044.396 1.476a2.4 2.4 0 0 0 1.08.99c-.558.27-1 .648-1.296 1.134a2.97 2.97 0 0 0-.45 1.62v.252c-.018 1.152.378 2.052 1.17 2.718zm4.428-7.056c-.306.27-.738.396-1.278.396-.576 0-1.008-.126-1.296-.396-.306-.27-.45-.648-.45-1.116v-.198c0-.45.144-.8.45-1.062s.738-.396 1.296-.396c.54 0 .954.144 1.26.396s.468.612.468 1.062v.198c0 .468-.162.846-.45 1.116zm.18 5.598c-.36.306-.846.45-1.458.45-.648 0-1.134-.144-1.476-.45-.36-.306-.522-.738-.522-1.296v-.27c0-.522.162-.936.522-1.242.36-.288.846-.45 1.476-.45.612 0 1.098.162 1.458.45.342.306.522.72.522 1.242v.27c0 .558-.18 1-.522 1.296z"/><use xlink:href="#P"/><path d="M131.838 325.746v2.07h5.562v-2.07z"/><use xlink:href="#P" x="17.437"/><path d="M158.275 331.02v-2.07h-1.134v-2.916h-2.358v2.916h-3.24l3.996-8.37h-2.412l-3.978 8.37v2.07h5.634V333h2.358v-1.98zm5.72-10.494v1.782h2.214v-1.782zm0 3.114V333h2.214v-9.36zm4.234 0V333h2.232v-5.292c0-.702.162-1.242.504-1.62s.828-.576 1.458-.576c.576 0 1.008.18 1.314.504.306.342.468.846.468 1.512V333h2.232v-5.328c0-.684.162-1.206.504-1.584s.828-.576 1.44-.576c.576 0 1.026.18 1.332.54s.468.882.468 1.566V333h2.232v-5.832c0-1.134-.324-2.016-.954-2.664-.648-.648-1.53-.972-2.682-.972-1.224 0-2.214.432-3.006 1.26-.324-.414-.702-.72-1.17-.936s-1-.324-1.548-.324c-.504 0-1 .108-1.458.288-.468.198-.864.468-1.188.828v-1.008zm23.067.792c-.72-.594-1.728-.9-3.06-.9-1.188 0-2.142.27-2.844.774s-1.044 1.206-1.044 2.088v.054h2.124v-.054a1.02 1.02 0 0 1 .396-.828c.27-.216.702-.324 1.314-.324 1.314 0 1.98.558 1.98 1.674v.558h-2.502c-1.17 0-2.07.234-2.682.702s-.918 1.152-.918 2.034c0 .936.288 1.638.864 2.142s1.44.756 2.574.756c.594 0 1.098-.072 1.53-.216.414-.144.8-.396 1.188-.756V333h2.16v-5.976c0-1.116-.36-1.98-1.08-2.592zm-1.134 5.148c0 1.17-.738 1.746-2.178 1.746-.594 0-1.044-.1-1.332-.306-.288-.198-.432-.486-.432-.864 0-.396.144-.684.45-.864.288-.18.756-.288 1.404-.288h2.088zm5.305 5.67c.684.468 1.602.702 2.8.702 1.368 0 2.448-.324 3.222-1.008s1.17-1.62 1.17-2.808v-8.496h-2.196v1.008c-.684-.774-1.584-1.17-2.664-1.17s-1.962.36-2.628 1.08-1 1.728-1 3.024v.72c0 1.35.324 2.376 1 3.096s1.548 1.08 2.664 1.08c1.152 0 2.016-.378 2.628-1.17v.972c0 1.278-.702 1.908-2.088 1.908-.54 0-.954-.072-1.26-.252s-.504-.414-.576-.738h-2.142c.036.9.396 1.584 1.08 2.052zm4.392-5.346c-.378.396-.882.576-1.53.576-.63 0-1.116-.18-1.44-.558s-.486-.954-.486-1.7v-.522c0-.756.162-1.314.504-1.674s.828-.558 1.458-.558 1.134.198 1.512.576c.36.396.558.918.558 1.566v.738c0 .666-.198 1.188-.576 1.566z"/><use xlink:href="#A" x="26.526" y="301.5"/><path d="M216.16 331.002c-.342 1.26-.828 2.43-1.458 3.5h1.656c.828-1.062 1.44-2.214 1.872-3.474s.648-2.574.648-3.96-.216-2.7-.648-3.96a11.68 11.68 0 0 0-1.89-3.438H214.7c.648 1.08 1.134 2.25 1.458 3.5s.504 2.574.504 3.906c0 1.35-.18 2.646-.504 3.906z"/></g><path d="M66 371h184c4.432 0 8 3.568 8 8v204c0 4.432-3.568 8-8 8H66c-4.432 0-8-3.568-8-8V379c0-4.432 3.568-8 8-8z" fill="#33b679"/><g fill="#fff"><path d="M119.6 386.088c-.792-.666-1.872-1.008-3.258-1.008h-5.364v12.42h2.358v-4.716h2.916c1.44 0 2.556-.324 3.348-1.008.792-.666 1.188-1.602 1.188-2.808 0-1.242-.396-2.196-1.188-2.88zm-1.17 2.862c0 1.188-.666 1.764-1.998 1.764h-3.096v-3.582h3.096c.63 0 1.116.162 1.476.45.342.306.522.774.522 1.368z"/><use xlink:href="#B" x="-28.827" y="320"/><use xlink:href="#Q"/><path d="M139.687 396.564c.756.738 1.8 1.098 3.132 1.098 1.296 0 2.304-.306 3.042-.918.72-.612 1.098-1.44 1.098-2.52v-.072h-2.178v.072a1.3 1.3 0 0 1-.504 1.062c-.324.262-.774.378-1.35.378-.72 0-1.26-.18-1.62-.54s-.54-.954-.54-1.782v-1.062c0-.792.162-1.386.522-1.764.36-.36.882-.558 1.584-.558.594 0 1.062.144 1.404.414s.522.63.522 1.098v.072h2.178v-.108c0-1.08-.378-1.926-1.098-2.538-.738-.612-1.764-.918-3.06-.918-1.332 0-2.376.378-3.132 1.098s-1.134 1.782-1.134 3.168v1.116c0 1.404.378 2.484 1.134 3.204zm9.063-11.484v12.42h2.232v-5.292c0-.72.18-1.278.54-1.638s.846-.558 1.494-.558c1.224 0 1.854.702 1.854 2.106v5.382h2.232v-5.832c0-1.152-.306-2.034-.9-2.682-.612-.63-1.44-.954-2.52-.954-.54 0-1.044.108-1.512.288a3.04 3.04 0 0 0-1.188.81v-4.05z"/><use xlink:href="#Q" x="31.289"/><use xlink:href="#B" x="19.23" y="320"/><path d="M182.218 396.546c.648.756 1.53 1.116 2.646 1.116.702 0 1.332-.162 1.9-.504.54-.324.972-.828 1.296-1.476s.486-1.44.486-2.34v-1.17c0-1.35-.342-2.394-1-3.114-.666-.72-1.548-1.08-2.664-1.08-.558 0-1.062.108-1.494.324a3.05 3.05 0 0 0-1.116.9v-4.122h-2.232v12.42h2.178zm3.582-1.476c-.342.396-.828.594-1.458.594-.648 0-1.152-.198-1.512-.594-.378-.396-.558-.954-.558-1.638v-1.188c0-.72.18-1.278.54-1.674s.846-.612 1.494-.612c1.332 0 1.998.774 1.998 2.322v.972c0 .8-.18 1.422-.504 1.818zm5.262 1.692c.504.504 1.296.738 2.358.738h1.242v-1.926h-.846c-.486 0-.828-.1-1.008-.27s-.27-.504-.27-.972v-9.252h-2.232v9.396c0 1.026.252 1.782.756 2.286z"/><use xlink:href="#A" x="17.736" y="366"/><path d="M74.8 411h166.4c3.767 0 6.8 3.033 6.8 6.8v156.4c0 3.767-3.033 6.8-6.8 6.8H74.8c-3.767 0-6.8-3.033-6.8-6.8V417.8c0-3.767 3.033-6.8 6.8-6.8z"/></g><path d="M68 421h180v30H68z" fill="#f5f5f5"/><g fill="#d81b60"><use xlink:href="#R"/><use xlink:href="#S"/><use xlink:href="#T"/><use xlink:href="#U"/><use xlink:href="#V"/><use xlink:href="#W"/><use xlink:href="#X"/><path d="M143.334 433.652v8.848h2.096v-11.04h-2.096l-2.352 1.392v2.16z"/></g><path d="M68 461h180v30H68z" fill="#f5f5f5"/><g fill="#d81b60"><use xlink:href="#R" y="40"/><use xlink:href="#S" y="40"/><use xlink:href="#T" y="40"/><use xlink:href="#U" y="40"/><use xlink:href="#V" y="40"/><use xlink:href="#W" y="40"/><use xlink:href="#X" y="40"/><path d="M141.27 480.836v1.664h7.2v-1.84h-4.368l2.976-3.136c.464-.464.816-.928 1.04-1.392.224-.448.336-.96.336-1.536v-.208c0-.608-.16-1.136-.448-1.616-.288-.464-.72-.832-1.264-1.088-.56-.256-1.216-.4-1.952-.4-1.12 0-1.984.272-2.624.816s-.96 1.264-.96 2.16v.384h2v-.256c0-.416.128-.736.416-.976.272-.224.656-.352 1.136-.352s.864.128 1.152.368c.288.256.432.592.432 1.008v.176c0 .32-.08.624-.208.896-.144.272-.384.576-.736.912z"/></g><path d="M68 501h180v30H68z" fill="#f5f5f5"/><g fill="#4285f4"><path d="M80.444 511.412v1.584h1.968v-1.584zm0 2.768v8.32h1.968v-8.32zm3.764 0v8.32h1.984v-4.704c0-.624.144-1.104.448-1.44s.736-.512 1.296-.512c.512 0 .896.16 1.168.448.272.304.416.752.416 1.344v4.864h1.984v-4.736c0-.608.144-1.072.448-1.408s.736-.512 1.28-.512c.512 0 .912.16 1.184.48s.416.784.416 1.392v4.784h1.984v-5.184c0-1.008-.288-1.792-.848-2.368-.576-.576-1.36-.864-2.384-.864-1.088 0-1.968.384-2.672 1.12a2.76 2.76 0 0 0-1.04-.832 3.26 3.26 0 0 0-1.376-.288c-.448 0-.88.096-1.296.256-.416.176-.768.416-1.056.736v-.896z"/><use xlink:href="#T" x="1.312" y="80"/><use xlink:href="#U" x="1.313" y="80"/><use xlink:href="#V" x="1.313" y="80"/><use xlink:href="#W" x="1.313" y="80"/><path d="M139.582 516.004h1.856v-1.472h-1.664l.4-3.072h-1.648l-.4 3.072h-1.792l.4-3.072h-1.648l-.4 3.072h-1.856v1.472h1.664l-.24 1.76h-1.872v1.472h1.68l-.432 3.264h1.648l.432-3.264h1.792l-.432 3.264h1.664l.432-3.264H141v-1.472h-1.632zm-1.648 0l-.24 1.76h-1.792l.24-1.76zm5.53 5.904c.624.512 1.536.768 2.72.768 1.12 0 2.016-.288 2.688-.864s1.008-1.376 1.008-2.384v-.256c0-.624-.16-1.152-.448-1.6-.288-.432-.72-.752-1.28-.944.496-.224.88-.528 1.136-.912s.4-.832.4-1.344v-.208c0-.896-.32-1.6-.944-2.112-.64-.512-1.504-.768-2.608-.768-1.136 0-2 .272-2.608.8s-.912 1.28-.912 2.272v.144h1.92v-.144c0-.416.128-.736.4-.96.256-.224.64-.336 1.152-.336.48 0 .864.128 1.136.352.256.224.4.544.4.96v.192c0 .448-.144.784-.432 1.008-.288.24-.688.352-1.232.352h-.608v1.776h.624c.608 0 1.072.128 1.376.368s.464.608.464 1.104v.24c0 .48-.144.848-.432 1.104s-.704.384-1.232.384c-.544 0-.96-.096-1.248-.32s-.432-.544-.432-.96v-.128h-1.952v.176c-.016.976.304 1.728.944 2.24z"/></g><path d="M68 541h180v30H68z" fill="#f5f5f5"/><g fill="#f09300"><use xlink:href="#V" x="-35" y="120"/><path d="M88.204 558.884h5.712v-.96c0-1.248-.352-2.208-1.024-2.88-.688-.672-1.632-1.008-2.816-1.008-1.2 0-2.144.352-2.816 1.024-.688.672-1.024 1.648-1.024 2.912v.72c0 1.296.336 2.272 1.04 2.944s1.664 1.008 2.896 1.008c1.072 0 1.936-.24 2.592-.72a2.55 2.55 0 0 0 1.072-1.936v-.096H91.9l-.016.048c-.048.32-.224.56-.512.72-.288.176-.672.256-1.12.256-1.376 0-2.064-.656-2.048-2zm0-1.36c.064-1.184.688-1.792 1.872-1.792.56 0 1.008.144 1.344.432s.512.704.512 1.248v.112zm7.956 4.32c.448.448 1.152.656 2.096.656h1.104v-1.712h-.752c-.432 0-.736-.08-.896-.24s-.24-.448-.24-.864v-8.224H95.5v8.352c0 .912.224 1.584.672 2.032z"/><use xlink:href="#U" x="-6" y="120"/><path d="M110.244 561.668c.672.656 1.6.976 2.784.976 1.152 0 2.048-.272 2.704-.816.64-.544.976-1.28.976-2.24v-.064h-1.936v.064c0 .4-.16.72-.448.944s-.688.336-1.2.336c-.64 0-1.12-.16-1.44-.48s-.48-.848-.48-1.584v-.944c0-.704.144-1.232.464-1.568.32-.32.784-.496 1.408-.496.528 0 .944.128 1.248.368s.464.56.464.976v.064h1.936v-.096c0-.96-.336-1.712-.976-2.256-.656-.544-1.568-.816-2.72-.816-1.184 0-2.112.336-2.784.976s-1.008 1.584-1.008 2.816v.992c0 1.248.336 2.208 1.008 2.848zm14.218-6.784c-.64-.528-1.536-.8-2.72-.8-1.056 0-1.904.24-2.528.688s-.928 1.072-.928 1.856v.048h1.888v-.048c0-.288.112-.544.352-.736s.624-.288 1.168-.288c1.168 0 1.76.496 1.76 1.488v.496h-2.224c-1.04 0-1.84.208-2.384.624s-.816 1.024-.816 1.808c0 .832.256 1.456.768 1.904s1.28.672 2.288.672c.528 0 .976-.064 1.36-.192.368-.128.72-.352 1.056-.672v.768h1.92v-5.312c0-.992-.32-1.76-.96-2.304zm-1.008 4.576c0 1.04-.656 1.552-1.936 1.552-.528 0-.928-.08-1.184-.272-.256-.176-.384-.432-.384-.768 0-.352.128-.608.4-.768.256-.16.672-.256 1.248-.256h1.856z"/><use xlink:href="#W" x="5.375" y="120"/><path d="M133.35 551.412v1.584h1.968v-1.584zm0 2.768v8.32h1.968v-8.32z"/><use xlink:href="#U" x="30.75" y="120"/><path d="M146.114 554.18v8.32h1.984v-4.704c0-.64.16-1.136.48-1.456s.752-.496 1.328-.496c1.088 0 1.648.624 1.648 1.872v4.784h1.984v-5.184c0-1.008-.272-1.792-.8-2.368-.544-.576-1.28-.864-2.24-.864-.496 0-.96.096-1.376.256-.416.176-.784.416-1.072.736v-.896zm19.436 1.824h1.856v-1.472h-1.664l.4-3.072h-1.648l-.4 3.072h-1.792l.4-3.072h-1.648l-.4 3.072H158.8v1.472h1.664l-.24 1.76h-1.872v1.472h1.68l-.432 3.264h1.648l.432-3.264h1.792l-.432 3.264h1.664l.432-3.264h1.824v-1.472h-1.632zm-1.648 0l-.24 1.76h-1.792l.24-1.76zm12.522 4.736v-1.84h-1.008v-2.592h-2.096v2.592h-2.88l3.552-7.44h-2.144l-3.536 7.44v1.84h5.008v1.76h2.096v-1.76z"/></g><g stroke-miterlimit="10" stroke="#333" stroke-width="3"><path pointer-events="stroke" d="M228.02 212H288c6.667 0 10 3.333 10 10v161.8c0 6.667-3.33 10.003-10 10l-10 .02" fill="none"/><path pointer-events="all" fill="#333" d="M271.27 393.84l9-4.52-2.25 4.5 2.26 4.5z"/><path pointer-events="stroke" d="M69.98 129.08L18 129.1c-6.667 0-10 3.333-10 10V293c0 6.667 3.333 10 10 10h18.9" fill="none"/><path pointer-events="all" fill="#333" d="M43.65 303l-9 4.5 2.25-4.5-2.25-4.5z"/></g></svg>