<svg xmlns="http://www.w3.org/2000/svg" xmlns:xlink="http://www.w3.org/1999/xlink" viewBox="-0.5 -0.5 803 282" height="282" width="803"><style><![CDATA[.B{pointer-events:all}.C{stroke-miterlimit:10}.D{pointer-events:stroke}]]></style><rect fill="#fff" rx="8.8" height="80" width="360.06" y="1" x=".94" class="B"/><g fill="#333"><path d="M27.124 16.088c-.792-.666-1.872-1.008-3.258-1.008h-5.364V27.5h2.358v-4.716h2.916c1.44 0 2.556-.324 3.348-1.008.792-.666 1.188-1.602 1.188-2.808 0-1.242-.396-2.196-1.188-2.88zm-1.17 2.862c0 1.188-.666 1.764-1.998 1.764H20.86v-3.582h3.096c.63 0 1.116.162 1.476.45.342.306.522.774.522 1.368zm3.778-3.87V27.5h2.232v-5.292c0-.72.18-1.278.54-1.638s.846-.558 1.494-.558c1.224 0 1.854.702 1.854 2.106V27.5h2.232v-5.832c0-1.152-.306-2.034-.9-2.682-.612-.63-1.44-.954-2.52-.954-.54 0-1.044.108-1.512.288a3.04 3.04 0 0 0-1.188.81v-4.05zm18.606 3.06h-2.322l-2.232 6.264-2.43-6.264h-2.412l3.816 9.162-.054.162c-.126.324-.288.54-.486.648s-.504.162-.936.162H40.3v1.998h.864c.828 0 1.494-.144 2.016-.468.504-.306.9-.8 1.17-1.494z"/><use xlink:href="#B"/><path d="M58.826 15.026v1.782h2.214v-1.782zm0 3.114v9.36h2.214v-9.36zm5.224 8.424c.756.738 1.8 1.098 3.132 1.098 1.296 0 2.304-.306 3.042-.918.72-.612 1.098-1.44 1.098-2.52v-.072h-2.178v.072a1.3 1.3 0 0 1-.504 1.062c-.324.262-.774.378-1.35.378-.72 0-1.26-.18-1.62-.54s-.54-.954-.54-1.782V22.28c0-.792.162-1.386.522-1.764.36-.36.882-.558 1.584-.558.594 0 1.062.144 1.404.414s.522.63.522 1.098v.072h2.178v-.108c0-1.08-.378-1.926-1.098-2.538-.738-.612-1.764-.918-3.06-.918-1.332 0-2.376.378-3.132 1.098s-1.134 1.782-1.134 3.168v1.116c0 1.404.378 2.484 1.134 3.204zm15.995-7.632c-.72-.594-1.728-.9-3.06-.9-1.188 0-2.142.27-2.844.774s-1.044 1.206-1.044 2.088v.054h2.124v-.054a1.02 1.02 0 0 1 .396-.828c.27-.216.702-.324 1.314-.324 1.314 0 1.98.558 1.98 1.674v.558h-2.5c-1.17 0-2.07.234-2.682.702S72.8 23.828 72.8 24.7c0 .936.288 1.638.864 2.142s1.44.756 2.574.756c.594 0 1.098-.072 1.53-.216.414-.144.8-.396 1.188-.756v.864h2.16v-5.976c0-1.116-.36-1.98-1.08-2.592zM78.9 24.08c0 1.17-.738 1.746-2.178 1.746-.594 0-1.044-.1-1.332-.306-.288-.198-.432-.486-.432-.864 0-.396.144-.684.45-.864.288-.18.756-.288 1.404-.288H78.9zm4.9 2.682c.504.504 1.296.738 2.358.738h1.242v-1.926h-.846c-.486 0-.828-.1-1.008-.27s-.27-.504-.27-.972V15.08h-2.232v9.396c0 1.026.252 1.782.756 2.286z"/><use xlink:href="#C"/><use xlink:href="#D"/><use xlink:href="#C" x="26.402"/><path d="M136.367 26.564c.756.738 1.8 1.098 3.132 1.098 1.314 0 2.34-.36 3.096-1.098.756-.72 1.134-1.8 1.134-3.204v-1.116c0-1.368-.378-2.43-1.134-3.168-.756-.72-1.782-1.098-3.096-1.098-1.332 0-2.376.378-3.132 1.098s-1.134 1.782-1.134 3.168v1.116c0 1.404.378 2.484 1.134 3.204zm5.148-3.222c0 1.548-.684 2.322-2.016 2.322-1.368 0-2.052-.774-2.052-2.322V22.28c0-1.548.684-2.322 2.052-2.322.648 0 1.134.198 1.494.576.342.378.522.954.522 1.746zm3.987-5.202v9.36h2.232v-5.184c0-.774.18-1.368.576-1.782s.936-.63 1.656-.63a4.06 4.06 0 0 1 1.332.234v-2.124c-.252-.036-.54-.072-.882-.072-.576 0-1.098.108-1.566.324s-.864.522-1.17.936V18.14z"/><use xlink:href="#E"/></g><rect fill="#d81b60" rx="4.5" height="30" width="340.06" y="41" x="10.94" class="B"/><rect fill="#fff" rx="8.8" height="80" width="800.06" y="141" x=".94" class="B"/><g fill="#333"><path d="M17.512 155.08l4.572 12.42h1.9l4.608-12.42h-2.52l-3.024 8.946-3.006-8.946zm11.642-.054v1.782h2.214v-1.782zm0 3.114v9.36h2.214v-9.36z"/><use xlink:href="#F"/><path d="M43.82 159.706h2.124v-1.566H43.82v-2.6l-2.214.774v1.836h-1.638v1.566h1.638v4.914c0 .936.252 1.638.756 2.142s1.224.738 2.178.738h1.206v-1.9h-.792c-.414 0-.702-.072-.882-.252s-.252-.468-.252-.882zm4.7 6.93c.702.684 1.746 1.026 3.132 1.026 1.368 0 2.412-.342 3.114-1.026s1.062-1.692 1.062-3.06v-5.436h-2.232v5.328c0 .738-.162 1.296-.45 1.656-.306.36-.8.54-1.494.54s-1.188-.18-1.494-.558c-.306-.36-.45-.918-.45-1.638v-5.328h-2.232v5.436c0 1.35.342 2.376 1.044 3.06zm16.187-7.704c-.72-.594-1.728-.9-3.06-.9-1.188 0-2.142.27-2.844.774s-1.044 1.206-1.044 2.088v.054h2.124v-.054a1.02 1.02 0 0 1 .396-.828c.27-.216.702-.324 1.314-.324 1.314 0 1.98.558 1.98 1.674v.558H61.08c-1.17 0-2.07.234-2.682.702s-.918 1.152-.918 2.034c0 .936.288 1.638.864 2.142s1.44.756 2.574.756c.594 0 1.098-.072 1.53-.216.414-.144.8-.396 1.188-.756v.864h2.16v-5.976c0-1.116-.36-1.98-1.08-2.592zm-1.134 5.148c0 1.17-.738 1.746-2.178 1.746-.594 0-1.044-.1-1.332-.306-.288-.198-.432-.486-.432-.864 0-.396.144-.684.45-.864.288-.18.756-.288 1.404-.288h2.088zm4.91 2.682c.504.504 1.296.738 2.358.738h1.242v-1.926h-.846c-.486 0-.828-.1-1.008-.27s-.27-.504-.27-.972v-9.252h-2.232v9.396c0 1.026.252 1.782.756 2.286z"/><use xlink:href="#G"/><use xlink:href="#D" x="-15.329" y="140"/><use xlink:href="#G" x="26.412"/><use xlink:href="#H"/><use xlink:href="#F" x="96.784"/><use xlink:href="#E" x="-15.33" y="140"/></g><rect fill="#4285f4" rx="4.5" height="30" width="340.06" y="181" x="10.94" class="B"/><path d="M87.207 104.546v9.954h2.358v-12.42h-2.358l-2.646 1.566v2.43zm8.323 1.314v2.556h2.502v-2.556zm0 6.084v2.556h2.502v-2.556zm8.287-1.8c0 3.042 1.386 4.572 4.176 4.554 1.386 0 2.43-.378 3.132-1.152.684-.756 1.044-1.9 1.044-3.402v-3.852c0-1.44-.36-2.538-1.044-3.294-.702-.738-1.746-1.116-3.132-1.116-1.368 0-2.412.378-3.114 1.116-.72.756-1.062 1.854-1.062 3.294zm5.58 1.872c-.288.432-.756.63-1.404.63s-1.116-.198-1.386-.63c-.288-.432-.414-1.116-.414-2.07v-3.312c0-.936.126-1.62.414-2.052.27-.414.738-.63 1.386-.63s1.098.216 1.386.63c.288.432.432 1.116.432 2.052v3.312c0 .954-.144 1.638-.414 2.07zm4.275-.072v2.556h2.502v-2.556z"/><use xlink:href="#I"/><use xlink:href="#I" x="10.23"/><use xlink:href="#J"/><use xlink:href="#H" x="32.406" y="-53"/><use xlink:href="#F" x="129.19" y="-53"/><use xlink:href="#F" x="136.292" y="-53"/><use xlink:href="#D" x="67.457" y="87"/><use xlink:href="#B" x="137.419" y="87"/><use xlink:href="#K"/><use xlink:href="#H" x="86.37" y="-53"/><use xlink:href="#L"/><use xlink:href="#M"/><use xlink:href="#D" x="128.137" y="87"/><use xlink:href="#L" x="30.832"/><use xlink:href="#J" x="115.278"/><use xlink:href="#D" x="158.758" y="87"/><path fill="#10387d" d="M155.94 181h10v30h-10z" class="B"/><path d="M215.94 252.08h-2.358l-3.834 7.1-3.888-7.1h-2.358v12.42h2.358v-7.92l3.096 5.526h1.584l3.042-5.472v7.866h2.358z"/><use xlink:href="#D" x="108.992" y="237"/><use xlink:href="#G" x="150.732" y="97"/><use xlink:href="#H" x="124.32" y="97"/><use xlink:href="#F" x="221.104" y="97"/><use xlink:href="#E" x="108.992" y="237"/><path d="M271.155 257.246v2.07h5.562v-2.07z"/><use xlink:href="#G" x="201.006" y="97"/><use xlink:href="#N"/><use xlink:href="#K" x="108.437" y="150"/><use xlink:href="#K" x="118.702" y="150"/><use xlink:href="#D" x="216.148" y="237"/><use xlink:href="#M" x="108.543" y="150"/><path d="M349.767 252.08v12.42H352v-5.292c0-.72.18-1.278.54-1.638s.846-.558 1.494-.558c1.224 0 1.854.702 1.854 2.106v5.382h2.232v-5.832c0-1.152-.306-2.034-.9-2.682-.612-.63-1.44-.954-2.52-.954-.54 0-1.044.108-1.512.288a3.04 3.04 0 0 0-1.188.81v-4.05z"/><use xlink:href="#N" x="65.426"/><use xlink:href="#F" x="336.627" y="97"/><use xlink:href="#M" x="149.921" y="150"/><path d="M385.942 255.14l3.204 9.36h1.9l2.178-6.336 2.16 6.336h1.9l3.222-9.36H398.1l-1.854 6.264-2.214-6.264h-1.674l-2.178 6.264-1.9-6.264z"/><use xlink:href="#N" x="106.7"/><use xlink:href="#F" x="377.9" y="97"/><use xlink:href="#D" x="309.065" y="237"/><g stroke-width="3" stroke="#333" class="C"><path fill="none" d="M190.94 259H170.9q-10 0-10-9.95l.02-9.95" class="D"/><path fill="#333" d="M160.94 232.35l4.48 9-4.5-2.26-4.5 2.25z" class="B"/></g><rect fill="#4285f4" fill-opacity=".4" rx="4.5" height="30" width="350.06" y="181" x="440.94" class="B"/><path fill="#10387d" fill-opacity=".4" d="M585.94 181h10v30h-10z" class="B"/><g opacity=".5"><path d="M450.938 167.05c.756.378 1.62.558 2.628.558s1.9-.18 2.646-.558c.756-.36 1.35-.9 1.764-1.584s.63-1.494.63-2.43v-7.956h-2.358v7.884c0 .846-.234 1.494-.702 1.926-.468.45-1.134.666-1.98.666-.864 0-1.512-.216-1.962-.666-.468-.432-.684-1.08-.684-1.926v-7.884h-2.358v7.956c0 .936.198 1.746.612 2.43s1.008 1.224 1.764 1.584z"/><use xlink:href="#L" x="244.09" y="53"/><use xlink:href="#J" x="328.537" y="53"/><use xlink:href="#N" x="186.35" y="-97"/><use xlink:href="#J" x="348.54" y="53"/><path d="M500.995 155.08v12.42h2.232v-5.292c0-.72.18-1.278.54-1.638s.846-.558 1.494-.558c1.224 0 1.854.702 1.854 2.106v5.382h2.232v-5.832c0-1.152-.306-2.034-.9-2.682-.612-.63-1.44-.954-2.52-.954-.54 0-1.044.108-1.512.288a3.04 3.04 0 0 0-1.188.81v-4.05z"/><use xlink:href="#D" x="402.321" y="140"/><use xlink:href="#M" x="294.716" y="53"/><use xlink:href="#N" x="241.298" y="-97"/><path d="M546.646 166.762c.504.504 1.296.738 2.358.738h1.242v-1.926h-.846c-.486 0-.828-.1-1.008-.27s-.27-.504-.27-.972v-9.252H545.9v9.396c0 1.026.252 1.782.756 2.286zm4.924-11.736v1.782h2.214v-1.782zm0 3.114v9.36h2.214v-9.36z"/><use xlink:href="#N" x="261.162" y="-97"/><use xlink:href="#B" x="516.369" y="140"/></g><path d="M11 131V91m340 40V91" fill="none" stroke-width="2" stroke="#000" class="C D"/><defs ><path id="B" d="M50.035 26.834c.702.522 1.692.774 2.97.774 1.296 0 2.304-.252 3.06-.774.756-.504 1.134-1.26 1.134-2.232 0-.774-.27-1.386-.774-1.836-.522-.45-1.314-.738-2.394-.864l-1.494-.18c-.486-.036-.828-.144-1.026-.306-.216-.144-.306-.36-.306-.63 0-.324.144-.558.432-.738s.756-.27 1.368-.27c.648 0 1.134.108 1.458.288.324.198.486.468.486.828v.054h2.07v-.072a2.44 2.44 0 0 0-1.062-2.088c-.72-.504-1.692-.756-2.934-.756-1.224 0-2.178.252-2.862.756-.702.504-1.044 1.224-1.044 2.142-.018.792.234 1.404.738 1.836s1.278.702 2.34.828l1.386.162c.522.072.9.18 1.134.324.234.162.36.378.36.666 0 .36-.18.612-.504.792s-.8.27-1.44.27c-.684 0-1.206-.108-1.548-.324-.36-.216-.522-.504-.522-.882v-.036h-2.088v.054c0 .954.342 1.692 1.062 2.214z"/><path id="C" d="M92.838 18.14v9.36h2.232v-5.292c0-.702.162-1.242.504-1.62s.828-.576 1.458-.576c.576 0 1.008.18 1.314.504.306.342.468.846.468 1.512V27.5h2.232v-5.328c0-.684.162-1.206.504-1.584s.828-.576 1.44-.576c.576 0 1.026.18 1.332.54s.468.882.468 1.566V27.5h2.232v-5.832c0-1.134-.324-2.016-.954-2.664-.648-.648-1.53-.972-2.682-.972-1.224 0-2.214.432-3.006 1.26-.324-.414-.702-.72-1.17-.936s-1-.324-1.548-.324c-.504 0-1 .108-1.458.288-.468.198-.864.468-1.188.828V18.14z"/><path id="D" d="M111.045 23.432h6.426v-1.08c0-1.404-.396-2.484-1.152-3.24-.774-.756-1.836-1.134-3.168-1.134-1.35 0-2.412.396-3.168 1.152-.774.756-1.152 1.854-1.152 3.276v.8c0 1.458.378 2.556 1.17 3.312s1.872 1.134 3.258 1.134c1.206 0 2.178-.27 2.916-.8a2.87 2.87 0 0 0 1.206-2.178v-.108h-2.178l-.018.054c-.054.36-.252.63-.576.8-.324.198-.756.288-1.26.288-1.548 0-2.322-.738-2.304-2.25zm0-1.53c.072-1.332.774-2.016 2.106-2.016.63 0 1.134.162 1.512.486s.576.792.576 1.404v.126z"/><path id="E" d="M161.19 18.14h-2.322l-2.232 6.264-2.43-6.264h-2.412l3.816 9.162-.054.162c-.126.324-.288.54-.486.648s-.504.162-.936.162h-.972v1.998h.864c.828 0 1.494-.144 2.016-.468.504-.306.9-.8 1.17-1.494z"/><path id="F" d="M33.39 158.14v9.36h2.232v-5.184c0-.774.18-1.368.576-1.782s.936-.63 1.656-.63a4.06 4.06 0 0 1 1.332.234v-2.124c-.252-.036-.54-.072-.882-.072-.576 0-1.098.108-1.566.324s-.864.522-1.17.936v-1.062z"/><path id="G" d="M77.5 158.14v9.36h2.232v-5.292c0-.702.162-1.242.504-1.62s.828-.576 1.458-.576c.576 0 1.008.18 1.314.504.306.342.468.846.468 1.512v5.472h2.232v-5.328c0-.684.162-1.206.504-1.584s.828-.576 1.44-.576c.576 0 1.026.18 1.332.54s.468.882.468 1.566v5.382h2.232v-5.832c0-1.134-.324-2.016-.954-2.664-.648-.648-1.53-.972-2.682-.972-1.224 0-2.214.432-3.006 1.26-.324-.414-.702-.72-1.17-.936s-1-.324-1.548-.324c-.504 0-1 .108-1.458.288-.468.198-.864.468-1.188.828v-1.008z"/><path id="H" d="M121.04 166.564c.756.738 1.8 1.098 3.132 1.098 1.314 0 2.34-.36 3.096-1.098.756-.72 1.134-1.8 1.134-3.204v-1.116c0-1.368-.378-2.43-1.134-3.168-.756-.72-1.782-1.098-3.096-1.098-1.332 0-2.376.378-3.132 1.098s-1.134 1.782-1.134 3.168v1.116c0 1.404.378 2.484 1.134 3.204zm5.148-3.222c0 1.548-.684 2.322-2.016 2.322-1.368 0-2.052-.774-2.052-2.322v-1.062c0-1.548.684-2.322 2.052-2.322.648 0 1.134.198 1.494.576.342.378.522.954.522 1.746z"/><path id="I" d="M122.65 109.406l-2.934 5.094h2.538l3.204-5.526c.612-1.044.918-2.016.918-2.952v-.378c0-1.17-.396-2.088-1.152-2.754s-1.818-1.008-3.168-1.008c-1.332 0-2.394.342-3.15 1.026-.774.684-1.152 1.62-1.152 2.808v.378c0 1.08.324 1.944 1 2.592.648.648 1.53.972 2.6.972.486 0 .918-.072 1.296-.252zm.828-2.16c-.342.306-.8.45-1.422.45s-1.098-.144-1.44-.45-.504-.738-.504-1.296v-.306c0-.54.162-.972.504-1.296.342-.306.828-.468 1.44-.468s1.08.162 1.422.468.522.738.522 1.278v.342c0 .54-.18.972-.522 1.278z"/><path id="J" d="M143.39 113.564c.756.738 1.8 1.098 3.132 1.098 1.296 0 2.304-.306 3.042-.918.72-.612 1.098-1.44 1.098-2.52v-.072h-2.178v.072c0 .45-.18.8-.504 1.062s-.774.378-1.35.378c-.72 0-1.26-.18-1.62-.54s-.54-.954-.54-1.782v-1.062c0-.792.162-1.386.522-1.764.36-.36.882-.558 1.584-.558.594 0 1.062.144 1.404.414s.522.63.522 1.098v.072h2.178v-.108c0-1.08-.378-1.926-1.098-2.538-.738-.612-1.764-.918-3.06-.918-1.332 0-2.376.378-3.132 1.098s-1.134 1.782-1.134 3.168v1.116c0 1.404.378 2.484 1.134 3.204z"/><path id="K" d="M196.155 105.14v12.168h2.232v-3.762c.612.756 1.476 1.116 2.592 1.116.702 0 1.332-.162 1.9-.504.54-.324.972-.828 1.296-1.476s.486-1.44.486-2.34v-1.17c0-1.35-.342-2.394-1-3.114-.666-.72-1.548-1.08-2.664-1.08-1.08 0-1.98.414-2.664 1.224v-1.062zm5.76 6.93c-.342.396-.828.594-1.458.594-.648 0-1.152-.198-1.512-.594-.378-.396-.558-.954-.558-1.638v-1.188c0-.72.18-1.278.54-1.674s.846-.612 1.494-.612c1.332 0 1.998.774 1.998 2.322v.972c0 .8-.18 1.422-.504 1.818z"/><path id="L" d="M216.546 105.14v9.36h2.232v-5.292c0-.72.18-1.278.54-1.638s.846-.558 1.494-.558c1.224 0 1.854.702 1.854 2.106v5.382h2.232v-5.832c0-1.134-.306-2.016-.9-2.664-.612-.648-1.44-.972-2.52-.972-.558 0-1.08.108-1.548.288-.468.198-.882.468-1.206.828v-1.008z"/><path id="M" d="M227.692 113.564c.666.738 1.548 1.098 2.664 1.098 1.152 0 2.034-.378 2.646-1.17v1.008h2.178v-12.42h-2.214v4.068c-.666-.774-1.548-1.17-2.646-1.17-.72 0-1.35.18-1.9.504s-.972.8-1.278 1.44c-.306.648-.45 1.404-.45 2.304v1.17c0 1.386.324 2.448 1 3.168zm4.698-1.494c-.378.396-.882.594-1.53.594-.612 0-1.098-.18-1.422-.576-.342-.396-.504-1-.504-1.782v-.972c0-.792.162-1.386.504-1.782s.828-.594 1.476-.594 1.152.216 1.512.612.54.954.54 1.674v1.188c0 .702-.198 1.242-.576 1.638z"/><path id="N" d="M301.572 255.932c-.72-.594-1.728-.9-3.06-.9-1.188 0-2.142.27-2.844.774s-1.044 1.206-1.044 2.088v.054h2.124v-.054a1.02 1.02 0 0 1 .396-.828c.27-.216.702-.324 1.314-.324 1.314 0 1.98.558 1.98 1.674v.558h-2.502c-1.17 0-2.07.234-2.682.702s-.918 1.152-.918 2.034c0 .936.288 1.638.864 2.142s1.44.756 2.574.756c.594 0 1.098-.072 1.53-.216.414-.144.8-.396 1.188-.756v.864h2.16v-5.976c0-1.116-.36-1.98-1.08-2.592zm-1.134 5.148c0 1.17-.738 1.746-2.178 1.746-.594 0-1.044-.1-1.332-.306-.288-.198-.432-.486-.432-.864 0-.396.144-.684.45-.864.288-.18.756-.288 1.404-.288h2.088z"/></defs></svg>