<svg xmlns="http://www.w3.org/2000/svg" xmlns:xlink="http://www.w3.org/1999/xlink" viewBox="-0.5 -0.5 803 212" height="212" width="803"><style><![CDATA[.B{pointer-events:all}]]></style><rect fill="#fff" rx="8.8" height="80" width="800.06" y="1" x=".94" class="B"/><g fill="#333"><path d="M17.512 15.08l4.572 12.42h1.9l4.608-12.42h-2.52l-3.024 8.946-3.006-8.946zm11.642-.054v1.782h2.214v-1.782zm0 3.114v9.36h2.214v-9.36z"/><use xlink:href="#B"/><path d="M43.82 19.706h2.124V18.14H43.82v-2.6l-2.214.774v1.836h-1.638v1.566h1.638v4.914c0 .936.252 1.638.756 2.142s1.224.738 2.178.738h1.206v-1.9h-.792c-.414 0-.702-.072-.882-.252s-.252-.468-.252-.882zm4.7 6.93c.702.684 1.746 1.026 3.132 1.026 1.368 0 2.412-.342 3.114-1.026s1.062-1.692 1.062-3.06V18.14h-2.232v5.328c0 .738-.162 1.296-.45 1.656-.306.36-.8.54-1.494.54s-1.188-.18-1.494-.558c-.306-.36-.45-.918-.45-1.638V18.14h-2.232v5.436c0 1.35.342 2.376 1.044 3.06zm16.187-7.704c-.72-.594-1.728-.9-3.06-.9-1.188 0-2.142.27-2.844.774s-1.044 1.206-1.044 2.088v.054h2.124v-.054a1.02 1.02 0 0 1 .396-.828c.27-.216.702-.324 1.314-.324 1.314 0 1.98.558 1.98 1.674v.558H61.08c-1.17 0-2.07.234-2.682.702s-.918 1.152-.918 2.034c0 .936.288 1.638.864 2.142s1.44.756 2.574.756c.594 0 1.098-.072 1.53-.216.414-.144.8-.396 1.188-.756v.864h2.16v-5.976c0-1.116-.36-1.98-1.08-2.592zm-1.134 5.148c0 1.17-.738 1.746-2.178 1.746-.594 0-1.044-.1-1.332-.306-.288-.198-.432-.486-.432-.864 0-.396.144-.684.45-.864.288-.18.756-.288 1.404-.288h2.088zm4.91 2.682c.504.504 1.296.738 2.358.738h1.242v-1.926h-.846c-.486 0-.828-.1-1.008-.27s-.27-.504-.27-.972V15.08h-2.232v9.396c0 1.026.252 1.782.756 2.286z"/><use xlink:href="#C"/><use xlink:href="#D"/><use xlink:href="#C" x="26.412"/><path d="M121.04 26.564c.756.738 1.8 1.098 3.132 1.098 1.314 0 2.34-.36 3.096-1.098.756-.72 1.134-1.8 1.134-3.204v-1.116c0-1.368-.378-2.43-1.134-3.168-.756-.72-1.782-1.098-3.096-1.098-1.332 0-2.376.378-3.132 1.098s-1.134 1.782-1.134 3.168v1.116c0 1.404.378 2.484 1.134 3.204zm5.148-3.222c0 1.548-.684 2.322-2.016 2.322-1.368 0-2.052-.774-2.052-2.322V22.28c0-1.548.684-2.322 2.052-2.322.648 0 1.134.198 1.494.576.342.378.522.954.522 1.746z"/><use xlink:href="#B" x="96.784"/><path d="M145.86 18.14h-2.322l-2.232 6.264-2.43-6.264h-2.412l3.816 9.162-.054.162c-.126.324-.288.54-.486.648s-.504.162-.936.162h-.972v1.998h.864c.828 0 1.494-.144 2.016-.468.504-.306.9-.8 1.17-1.494z"/></g><rect fill="#b39ddb" rx="4.5" height="30" width="300" y="41" x="221" class="B"/><g fill="#7986cb"><path d="M68.447 193.33c.936.918 2.232 1.368 3.906 1.368 1.53 0 2.754-.378 3.654-1.134s1.35-1.818 1.35-3.186v-.1h-2.34v.1c0 .684-.234 1.224-.702 1.62s-1.098.576-1.926.576c-1 0-1.728-.27-2.214-.828-.504-.54-.738-1.386-.738-2.538v-1.782c0-1.188.234-2.07.72-2.646s1.224-.864 2.214-.864c.828 0 1.476.216 1.944.612s.702.954.702 1.638v.072h2.358v-.144c0-1.332-.468-2.358-1.368-3.114s-2.124-1.134-3.636-1.134c-1.674 0-2.97.468-3.906 1.368-.936.918-1.404 2.286-1.404 4.086v1.944c0 1.818.45 3.186 1.386 4.086z"/><use xlink:href="#E"/><path d="M91.4 182.08v12.42h4.752c1.674 0 2.97-.432 3.906-1.332.918-.9 1.386-2.268 1.386-4.122v-1.53c0-1.836-.468-3.204-1.368-4.104-.9-.882-2.178-1.332-3.834-1.332zm4.824 10.368H93.75v-8.316h2.466c.972 0 1.692.288 2.16.846s.702 1.44.702 2.664v1.404c0 1.188-.234 2.052-.702 2.592s-1.188.8-2.16.8zm9.453-8.316h6.516v-2.052h-8.874v12.42h8.874v-2.052h-6.516v-3.186h5.598V187.2h-5.598zm15.02 6.426v2.88h2.052v-2.88h2.862v-2.052h-2.862v-2.88h-2.052v2.88h-2.88v2.052z"/><use xlink:href="#F"/><use xlink:href="#G"/><path d="M163.563 184.132v-2.052h-9.8v2.052h3.726V194.5h2.358v-10.368z"/><use xlink:href="#G" x="20.039"/></g><path d="M13.43 100.144c0 3.042 1.386 4.572 4.176 4.554 1.386 0 2.43-.378 3.132-1.152.684-.756 1.044-1.9 1.044-3.402v-3.852c0-1.44-.36-2.538-1.044-3.294-.702-.738-1.746-1.116-3.132-1.116-1.368 0-2.412.378-3.114 1.116-.72.756-1.062 1.854-1.062 3.294zm5.58 1.872c-.288.432-.756.63-1.404.63s-1.116-.198-1.386-.63c-.288-.432-.414-1.116-.414-2.07v-3.312c0-.936.126-1.62.414-2.052.27-.414.738-.63 1.386-.63s1.098.216 1.386.63c.288.432.432 1.116.432 2.052v3.312c0 .954-.144 1.638-.414 2.07z"/><rect fill="#7986cb" rx="4.5" height="30" width="220.06" y="41" x="10.94" class="B"/><path d="M220.443 102.628v1.872h8.1v-2.07h-4.914l3.348-3.528c.522-.522.918-1.044 1.17-1.566.252-.504.378-1.08.378-1.728v-.234c0-.684-.18-1.278-.504-1.818-.324-.522-.8-.936-1.422-1.224-.63-.288-1.368-.45-2.196-.45-1.26 0-2.232.306-2.952.918s-1.08 1.422-1.08 2.43v.432h2.25v-.288c0-.468.144-.828.468-1.098.306-.252.738-.396 1.278-.396s.972.144 1.296.414c.324.288.486.666.486 1.134v.198a2.37 2.37 0 0 1-.234 1.008c-.162.306-.432.648-.828 1.026zm11.23.702c.936.918 2.232 1.368 3.888 1.368 1.548 0 2.772-.396 3.672-1.188s1.35-1.998 1.35-3.618V97.84h-5.058v1.944h2.718v.45c0 .792-.216 1.368-.648 1.764s-1.098.576-1.998.576c-1.008 0-1.746-.27-2.232-.8s-.72-1.404-.72-2.574v-1.782c0-1.188.234-2.052.72-2.628s1.224-.864 2.214-.864c.828 0 1.476.216 1.944.612s.702.936.702 1.584v.072h2.358v-.144c0-.864-.216-1.602-.63-2.25-.414-.63-1-1.116-1.746-1.44s-1.638-.504-2.628-.504c-1.674 0-2.97.468-3.906 1.368-.936.918-1.404 2.286-1.404 4.086v1.944c0 1.818.468 3.186 1.404 4.086z"/><use xlink:href="#D" x="331.537" y="77"/><path d="M435.45 95.14v9.36h2.232v-5.292c0-.72.18-1.278.54-1.638s.846-.558 1.494-.558c1.224 0 1.854.702 1.854 2.106v5.382h2.232v-5.832c0-1.134-.306-2.016-.9-2.664-.612-.648-1.44-.972-2.52-.972-.558 0-1.08.108-1.548.288-.468.198-.882.468-1.206.828V95.14zm11.145 8.424c.666.738 1.548 1.098 2.664 1.098 1.152 0 2.034-.378 2.646-1.17v1.008h2.178V92.08h-2.214v4.068c-.666-.774-1.548-1.17-2.646-1.17-.72 0-1.35.18-1.9.504s-.972.8-1.278 1.44c-.306.648-.45 1.404-.45 2.304v1.17c0 1.386.324 2.448 1 3.168zm4.698-1.494c-.378.396-.882.594-1.53.594-.612 0-1.098-.18-1.422-.576-.342-.396-.504-1-.504-1.782v-.972c0-.792.162-1.386.504-1.782s.828-.594 1.476-.594 1.152.216 1.512.612.54.954.54 1.674v1.188c0 .702-.198 1.242-.576 1.638zm9.825 1.494c.756.738 1.8 1.098 3.132 1.098 1.314 0 2.34-.36 3.096-1.098.756-.72 1.134-1.8 1.134-3.204v-1.116c0-1.368-.378-2.43-1.134-3.168-.756-.72-1.782-1.098-3.096-1.098-1.332 0-2.376.378-3.132 1.098s-1.134 1.782-1.134 3.168v1.116c0 1.404.378 2.484 1.134 3.204zm5.148-3.222c0 1.548-.684 2.322-2.016 2.322-1.368 0-2.052-.774-2.052-2.322V99.28c0-1.548.684-2.322 2.052-2.322.648 0 1.134.198 1.494.576.342.378.522.954.522 1.746zm7.126-6.498c.18-.162.486-.252.918-.252h.828V92.08h-1.458c-.918 0-1.602.234-2.07.684s-.702 1.116-.702 1.998v.378h-1.26v1.566h1.26v7.794h2.214v-7.794h2.016V95.14h-2.016v-.468c0-.378.1-.648.27-.828zm12.218 5.778l2.718 4.878h2.808l-3.078-5.166c.828-.252 1.44-.684 1.872-1.26s.648-1.314.648-2.214c0-1.224-.396-2.16-1.188-2.808s-1.854-.972-3.204-.972h-5.4v12.42h2.358v-4.878zm-2.466-2.016v-3.474h3.114c.612 0 1.098.144 1.458.432.342.288.522.72.522 1.296 0 1.17-.666 1.746-1.98 1.746z"/><use xlink:href="#G" x="349.175" y="-90"/><path d="M517.445 92.08h-2.358l-3.834 7.1-3.888-7.1h-2.358v12.42h2.358v-7.92l3.096 5.526h1.584l3.042-5.472v7.866h2.358z"/><g fill="none" stroke="#333" stroke-width="2" stroke-miterlimit="10" class="B"><path transform="rotate(270 118.97 146)" d="M143.97 37.97h-15q-10 0-10 10V136q0 10-10 10h-7.5q-7.5 0 2.5 0h7.5q7.5 0 7.5 10v88.03q0 10 10 10h15"/><path transform="rotate(270 377.5 146)" d="M402.5 2.5h-15q-10 0-10 10V136q0 10-10 10H360q-7.5 0 2.5 0h7.5q7.5 0 7.5 10v123.5q0 10 10 10h15"/></g><g fill="#b39ddb"><use xlink:href="#F" x="198.757"/><use xlink:href="#G" x="198.757"/><path d="M362.32 184.132v-2.052h-9.8v2.052h3.726V194.5h2.358v-10.368z"/><use xlink:href="#G" x="218.796"/><use xlink:href="#E" x="299.48"/><path d="M401.33 182.08h-2.358v8.244l-5.742-8.244h-2.358v12.42h2.358v-8.226l5.742 8.226h2.358zm2.127 0v12.42h8.766v-2.052h-6.408V182.08zm13.93 7.3l4.212-7.3h-2.664l-2.736 5.202-2.736-5.202H410.8l4.23 7.308v5.112h2.358z"/></g><defs ><path id="B" d="M33.39 18.14v9.36h2.232v-5.184c0-.774.18-1.368.576-1.782s.936-.63 1.656-.63a4.06 4.06 0 0 1 1.332.234v-2.124c-.252-.036-.54-.072-.882-.072-.576 0-1.098.108-1.566.324s-.864.522-1.17.936V18.14z"/><path id="C" d="M77.5 18.14v9.36h2.232v-5.292c0-.702.162-1.242.504-1.62s.828-.576 1.458-.576c.576 0 1.008.18 1.314.504.306.342.468.846.468 1.512V27.5h2.232v-5.328c0-.684.162-1.206.504-1.584s.828-.576 1.44-.576c.576 0 1.026.18 1.332.54s.468.882.468 1.566V27.5h2.232v-5.832c0-1.134-.324-2.016-.954-2.664-.648-.648-1.53-.972-2.682-.972-1.224 0-2.214.432-3.006 1.26-.324-.414-.702-.72-1.17-.936s-1-.324-1.548-.324c-.504 0-1 .108-1.458.288-.468.198-.864.468-1.188.828V18.14z"/><path id="D" d="M95.716 23.432h6.426v-1.08c0-1.404-.396-2.484-1.152-3.24-.774-.756-1.836-1.134-3.168-1.134-1.35 0-2.412.396-3.168 1.152-.774.756-1.152 1.854-1.152 3.276v.8c0 1.458.378 2.556 1.17 3.312s1.872 1.134 3.258 1.134c1.206 0 2.178-.27 2.916-.8a2.87 2.87 0 0 0 1.206-2.178v-.108h-2.178l-.018.054c-.054.36-.252.63-.576.8-.324.198-.756.288-1.26.288-1.548 0-2.322-.738-2.304-2.25zm0-1.53c.072-1.332.774-2.016 2.106-2.016.63 0 1.134.162 1.512.486s.576.792.576 1.404v.126z"/><path id="E" d="M80.54 193.33c.9.918 2.142 1.368 3.762 1.368 1.602 0 2.862-.45 3.798-1.368s1.404-2.286 1.404-4.086V187.3c0-1.8-.468-3.168-1.368-4.086-.918-.9-2.178-1.368-3.762-1.368-1.62 0-2.898.468-3.816 1.368-.918.918-1.368 2.286-1.368 4.086v1.944c0 1.818.45 3.186 1.35 4.086zm6.606-4.122c0 2.25-.936 3.366-2.772 3.366-.954 0-1.656-.27-2.124-.828-.468-.54-.684-1.386-.684-2.538v-1.782c0-1.188.216-2.07.684-2.646s1.17-.864 2.124-.864c1.836 0 2.772 1.17 2.772 3.5z"/><path id="F" d="M131.645 182.08v12.42h4.752c1.674 0 2.97-.432 3.906-1.332.918-.9 1.386-2.268 1.386-4.122v-1.53c0-1.836-.468-3.204-1.368-4.104-.9-.882-2.178-1.332-3.834-1.332zm4.824 10.368h-2.466v-8.316h2.466c.972 0 1.692.288 2.16.846s.702 1.44.702 2.664v1.404c0 1.188-.234 2.052-.702 2.592s-1.188.8-2.16.8z"/><path id="G" d="M151.267 192.088l.9 2.412h2.52l-5.094-12.42h-1.926l-5.094 12.42h2.52l.9-2.412zm-.738-1.962h-3.798l1.9-5.058z"/></defs></svg>