<svg xmlns="http://www.w3.org/2000/svg" xmlns:xlink="http://www.w3.org/1999/xlink" viewBox="-0.5 -0.5 972 402" height="402" width="972"><style><![CDATA[.B{fill:#fff}.C{fill:#039be5}.D{fill:#a79b8e}]]></style><defs><style>@import url(https://fonts.googleapis.com/css?family=IBM+Plex+Sans);</style><path id="A" d="M22.8 379.716q-1.584 0-2.7-.576-1.098-.576-1.9-1.548l1.404-1.314q.666.8 1.458 1.224.8.414 1.836.414 1.206 0 1.818-.54.612-.54.612-1.458 0-.738-.432-1.17-.432-.432-1.53-.648l-1.116-.198q-1.836-.342-2.754-1.206-.918-.864-.918-2.376 0-.828.306-1.494.324-.684.882-1.134.576-.468 1.386-.72.8-.252 1.818-.252 1.422 0 2.466.504 1.044.486 1.782 1.422l-1.422 1.26q-.486-.63-1.188-1.008-.702-.378-1.746-.378-1.08 0-1.674.432-.594.432-.594 1.26 0 .792.486 1.188.486.378 1.512.576l1.116.234q1.9.36 2.754 1.224.882.864.882 2.376 0 .882-.306 1.602-.306.72-.9 1.242-.576.504-1.422.792-.846.27-1.926.27z"/><path id="B" d="M35.404 370.14h1.9l-3.942 11.214q-.162.468-.378.792-.198.342-.486.54-.27.216-.666.306-.396.108-.936.108h-1.134v-1.602h1.584l.54-1.584-3.402-9.774h1.962l1.872 5.508.54 2.034h.1l.594-2.034z"/><path id="C" d="M15.4 251h41.2a4.39 4.39 0 0 1 4.4 4.4v31.2a4.39 4.39 0 0 1-4.4 4.4H15.4a4.39 4.39 0 0 1-4.4-4.4v-31.2a4.39 4.39 0 0 1 4.4-4.4z"/><path id="D" d="M75.4 251h41.2a4.39 4.39 0 0 1 4.4 4.4v31.2a4.39 4.39 0 0 1-4.4 4.4H75.4a4.39 4.39 0 0 1-4.4-4.4v-31.2a4.39 4.39 0 0 1 4.4-4.4z"/><path id="E" d="M135.4 251h41.14a4.39 4.39 0 0 1 4.4 4.4v31.2a4.39 4.39 0 0 1-4.4 4.4H135.4a4.39 4.39 0 0 1-4.4-4.4v-31.2a4.39 4.39 0 0 1 4.4-4.4z"/><path id="F" d="M195.4 251h41.14a4.39 4.39 0 0 1 4.4 4.4v31.2a4.39 4.39 0 0 1-4.4 4.4H195.4a4.39 4.39 0 0 1-4.4-4.4v-31.2a4.39 4.39 0 0 1 4.4-4.4z"/><path id="G" d="M255.4 251h41.14a4.39 4.39 0 0 1 4.4 4.4v31.2a4.39 4.39 0 0 1-4.4 4.4H255.4a4.39 4.39 0 0 1-4.4-4.4v-31.2a4.39 4.39 0 0 1 4.4-4.4z"/><path id="H" d="M315.4 251h41.14a4.39 4.39 0 0 1 4.4 4.4v31.2a4.39 4.39 0 0 1-4.4 4.4H315.4a4.39 4.39 0 0 1-4.4-4.4v-31.2a4.39 4.39 0 0 1 4.4-4.4z"/><path id="I" d="M375.4 251h41.14a4.39 4.39 0 0 1 4.4 4.4v31.2a4.39 4.39 0 0 1-4.4 4.4H375.4a4.39 4.39 0 0 1-4.4-4.4v-31.2a4.39 4.39 0 0 1 4.4-4.4z"/><path id="J" d="M435.4 251h41.14a4.39 4.39 0 0 1 4.4 4.4v31.2a4.39 4.39 0 0 1-4.4 4.4H435.4a4.39 4.39 0 0 1-4.4-4.4v-31.2a4.39 4.39 0 0 1 4.4-4.4z"/><path id="K" d="M495.4 251h41.2a4.39 4.39 0 0 1 4.4 4.4v31.2a4.39 4.39 0 0 1-4.4 4.4h-41.2a4.39 4.39 0 0 1-4.4-4.4v-31.2a4.39 4.39 0 0 1 4.4-4.4z"/><path id="L" d="M615.4 251h41.14a4.39 4.39 0 0 1 4.4 4.4v31.2a4.39 4.39 0 0 1-4.4 4.4H615.4a4.39 4.39 0 0 1-4.4-4.4v-31.2a4.39 4.39 0 0 1 4.4-4.4z"/><path id="M" d="M675.34 251h41.14a4.39 4.39 0 0 1 4.4 4.4v31.2a4.39 4.39 0 0 1-4.4 4.4h-41.14a4.39 4.39 0 0 1-4.4-4.4v-31.2a4.39 4.39 0 0 1 4.4-4.4z"/><path id="N" d="M795.4 251h41.14a4.39 4.39 0 0 1 4.4 4.4v31.2a4.39 4.39 0 0 1-4.4 4.4H795.4a4.39 4.39 0 0 1-4.4-4.4v-31.2a4.39 4.39 0 0 1 4.4-4.4z"/><path id="O" d="M855.4 251h41.14a4.39 4.39 0 0 1 4.4 4.4v31.2a4.39 4.39 0 0 1-4.4 4.4H855.4a4.39 4.39 0 0 1-4.4-4.4v-31.2a4.39 4.39 0 0 1 4.4-4.4z"/><path id="P" d="M915.4 251h41.14a4.39 4.39 0 0 1 4.4 4.4v31.2a4.39 4.39 0 0 1-4.4 4.4H915.4a4.39 4.39 0 0 1-4.4-4.4v-31.2a4.39 4.39 0 0 1 4.4-4.4z"/><path id="Q" d="M22.955 197.5h-2.112v-11.168h5.04q.768 0 1.376.24.608.24 1.024.704.432.448.656 1.088.24.64.24 1.424 0 1.152-.528 1.984-.512.832-1.552 1.184l2.288 4.544h-2.352l-2.08-4.304h-2zm2.72-6.08q.608 0 .96-.32.352-.336.352-.944v-.736q0-.608-.352-.928-.352-.32-.96-.32h-2.72v3.248z"/><path id="R" d="M38.38 197.5l-.896-2.848h-3.968l-.88 2.848h-2.144l3.744-11.168h2.624l3.712 11.168zm-2.848-9.248h-.08l-1.424 4.592h2.944z"/><path id="S" d="M51.192 197.5h-2.464l-2.56-4.288h-.048l-2.528 4.288h-2.304l3.616-5.728-3.456-5.44h2.464l2.368 3.968h.048l2.4-3.968h2.304l-3.488 5.44z"/><path id="T" d="M83.252 197.5H81.14v-11.168h5.04q.768 0 1.376.24.608.24 1.024.704.432.448.656 1.088.24.64.24 1.424 0 1.152-.528 1.984-.512.832-1.552 1.184l2.288 4.544h-2.352l-2.08-4.304h-2zm2.72-6.08q.608 0 .96-.32.352-.336.352-.944v-.736q0-.608-.352-.928-.352-.32-.96-.32h-2.72v3.248z"/><path id="U" d="M91.765 186.332h5.168q.688 0 1.232.208.56.208.944.576.384.368.576.912.208.528.208 1.168 0 .64-.176 1.088-.16.432-.448.72-.272.288-.64.432-.352.144-.736.16v.096q.368 0 .784.144.432.144.784.464.368.304.608.8.24.48.24 1.2 0 .672-.224 1.264-.208.576-.592 1.008-.384.432-.912.688-.528.24-1.152.24h-5.664zm2.112 9.376h2.944q.608 0 .944-.304.336-.32.336-.912v-.544q0-.592-.336-.912-.336-.32-.944-.32h-2.944zm0-4.72h2.608q.576 0 .896-.304.32-.32.32-.88v-.496q0-.56-.32-.864-.32-.32-.896-.32h-2.608z"/><path id="V" d="M156.087 197.692q-1.104 0-2-.352-.88-.368-1.52-1.088-.624-.72-.96-1.776-.336-1.072-.336-2.48 0-1.408.336-2.496.336-1.104.96-1.84.64-.752 1.52-1.136.896-.384 2-.384 1.504 0 2.496.64.992.64 1.584 1.936l-1.808.96q-.24-.752-.784-1.2-.544-.464-1.488-.464-1.184 0-1.888.8-.688.8-.688 2.24v1.76q0 1.456.688 2.24.704.768 1.888.768.944 0 1.536-.512.608-.512.88-1.264l1.712 1.008q-.608 1.248-1.616 1.952-1.008.688-2.512.688z"/><path id="W" d="M211.548 186.332h4.064q1.088 0 1.968.352.896.352 1.52 1.056.64.688.976 1.744.352 1.04.352 2.432 0 1.392-.352 2.448-.336 1.04-.976 1.744-.624.688-1.52 1.04-.88.352-1.968.352h-4.064zm4.064 9.296q1.184 0 1.872-.688.704-.704.704-2.144v-1.76q0-1.44-.704-2.128-.688-.704-1.872-.704h-1.952v7.424z"/><path id="X" d="M282.266 197.5v-11.168h5.024q.768 0 1.376.256.624.24 1.056.704.432.448.656 1.088.224.64.224 1.408 0 .784-.224 1.424-.224.624-.656 1.088-.432.448-1.056.704-.608.24-1.376.24h-2.912v4.256zm2.112-6.08h2.72q.608 0 .96-.32.352-.336.352-.944v-.736q0-.608-.352-.928-.352-.32-.96-.32h-2.72z"/><path id="Y" d="M337.285 197.692q-1.44 0-2.448-.512-.992-.512-1.712-1.344l1.424-1.376q.576.672 1.28 1.024.72.352 1.584.352.976 0 1.472-.416.496-.432.496-1.152 0-.56-.32-.912-.32-.352-1.2-.512l-1.056-.16q-3.344-.528-3.344-3.248 0-.752.272-1.36.288-.608.816-1.04.528-.432 1.264-.656.752-.24 1.696-.24 1.264 0 2.208.416.944.416 1.616 1.232l-1.44 1.36q-.416-.512-1.008-.832-.592-.32-1.488-.32-.912 0-1.376.352-.448.336-.448.96 0 .64.368.944.368.304 1.184.448l1.04.192q1.696.304 2.496 1.088.816.768.816 2.16 0 .8-.288 1.456-.272.64-.816 1.12-.528.464-1.312.72-.768.256-1.776.256z"/><path id="Z" d="M343.13 197.5v-1.696h1.472v-7.776h-1.472v-1.696h5.072v1.696h-1.488v7.776h1.488v1.696z"/><path id="a" d="M393.188 186.332h4.064q1.088 0 1.968.352.896.352 1.52 1.056.64.688.976 1.744.352 1.04.352 2.432 0 1.392-.352 2.448-.336 1.04-.976 1.744-.624.688-1.52 1.04-.88.352-1.968.352h-4.064zm4.064 9.296q1.184 0 1.872-.688.704-.704.704-2.144v-1.76q0-1.44-.704-2.128-.688-.704-1.872-.704H395.3v7.424z"/><path id="b" d="M520.816 197.692q-.976 0-1.744-.24-.752-.256-1.28-.688-.512-.432-.784-1.024-.272-.592-.272-1.296 0-1.088.592-1.76.608-.688 1.616-.96v-.128q-.832-.304-1.36-.944-.512-.64-.512-1.616 0-.64.24-1.168.256-.528.736-.912.48-.384 1.168-.592.704-.224 1.6-.224.896 0 1.584.224.704.208 1.184.592.48.384.72.912.256.528.256 1.168 0 .976-.528 1.616-.512.64-1.344.944v.128q1.008.272 1.6.96.608.672.608 1.76 0 .704-.272 1.296-.272.592-.8 1.024-.512.432-1.28.688-.752.24-1.728.24zm0-1.648q.912 0 1.392-.416.496-.416.496-1.168v-.336q0-.752-.496-1.168-.48-.416-1.392-.416-.912 0-1.408.416-.48.416-.48 1.168v.336q0 .752.48 1.168.496.416 1.408.416zm0-5.072q.848 0 1.296-.384.448-.384.448-1.088v-.256q0-.688-.448-1.072-.448-.384-1.296-.384-.848 0-1.296.384-.448.384-.448 1.072v.256q0 .704.448 1.088.448.384 1.296.384z"/><path id="c" d="M584.832 190.524q0 1.2-.368 2.272-.352 1.056-.928 1.952-.576.88-1.296 1.584-.704.688-1.408 1.168h-2.848q.976-.704 1.76-1.36.784-.656 1.36-1.328.592-.672.96-1.392.384-.736.576-1.584l-.128-.032q-.16.32-.384.624-.208.304-.512.528-.304.224-.704.368-.4.128-.928.128-.704 0-1.296-.24-.592-.24-1.04-.688-.432-.464-.688-1.088-.24-.64-.24-1.44 0-.848.288-1.552.288-.704.816-1.216.528-.512 1.264-.8.752-.288 1.68-.288.96 0 1.712.32.752.304 1.28.88.528.56.8 1.376.272.8.272 1.808zm-4.064 1.296q.896 0 1.392-.48.496-.496.496-1.408v-.24q0-.912-.496-1.392-.496-.496-1.392-.496-.88 0-1.392.496-.496.48-.496 1.392v.24q0 .912.496 1.408.512.48 1.392.48z"/><path id="d" d="M632.645 197.5v-1.712h3.072v-7.936h-.144l-2.432 2.88-1.312-1.104 2.768-3.296h3.184v9.456h2.56v1.712z"/><path id="e" d="M645.582 197.692q-1.072 0-1.856-.384-.784-.4-1.296-1.136-.512-.736-.768-1.808-.24-1.072-.24-2.448 0-1.36.24-2.432.256-1.088.768-1.824.512-.736 1.296-1.12.784-.4 1.856-.4 2.128 0 3.136 1.52 1.024 1.52 1.024 4.256 0 2.736-1.024 4.256-1.008 1.52-3.136 1.52zm0-1.776q1.072 0 1.488-.8.432-.816.432-2.192v-2.016q0-1.376-.432-2.176-.416-.816-1.488-.816-1.072 0-1.504.816-.416.8-.416 2.176v2.016q0 1.376.416 2.192.432.8 1.504.8z"/><path id="f" d="M769.458 197.5h-7.744v-1.952l3.504-3.072q.896-.784 1.312-1.408.416-.64.416-1.376v-.208q0-.736-.48-1.12-.48-.4-1.168-.4-.864 0-1.312.496-.448.48-.64 1.168l-1.824-.704q.176-.56.496-1.056.32-.512.8-.896.496-.384 1.152-.608.656-.224 1.504-.224.88 0 1.568.256.688.24 1.152.688.48.448.72 1.056.256.608.256 1.328 0 .704-.224 1.28-.224.576-.608 1.104-.384.512-.896.992-.512.464-1.088.944l-2.352 1.936h5.456z"/><path id="g" d="M824.974 190.844q.96 0 1.408-.384.464-.4.464-1.008v-.112q0-.688-.448-1.072-.432-.4-1.2-.4-.736 0-1.312.352-.56.352-.976.992l-1.344-1.216q.288-.384.624-.72.352-.352.8-.592.448-.256 1.008-.4.56-.144 1.264-.144.848 0 1.536.208.704.192 1.2.576.512.384.784.928.272.528.272 1.2 0 .544-.176.976-.16.432-.464.752-.288.32-.688.528-.384.192-.816.288v.096q.48.096.912.304.432.208.736.56.32.336.496.8.192.464.192 1.056 0 .736-.304 1.344-.288.608-.832 1.04-.544.432-1.296.672-.752.224-1.68.224-.816 0-1.44-.176-.624-.16-1.104-.448-.464-.288-.816-.656-.352-.384-.608-.8l1.552-1.184q.192.336.416.624.224.272.512.48.288.208.656.32.368.112.832.112.928 0 1.424-.448.496-.448.496-1.232v-.112q0-.768-.544-1.168-.528-.4-1.536-.4h-1.104v-1.76z"/><path id="h" d="M886.35 197.5v-2.16h-5.056v-1.792l4.448-7.216h2.608v7.376h1.456v1.632h-1.456v2.16zm-3.328-3.792h3.328v-5.328h-.128z"/><path id="i" d="M949.022 188.156h-5.024l-.256 3.744h.112q.176-.352.384-.656.208-.304.48-.512.272-.208.624-.32.368-.128.88-.128.72 0 1.344.24.624.24 1.072.704.464.448.72 1.104.272.656.272 1.488 0 .848-.272 1.552-.272.704-.8 1.232-.528.512-1.296.8-.768.288-1.76.288-.768 0-1.376-.176-.608-.16-1.072-.448-.464-.288-.8-.656-.336-.384-.592-.8l1.536-1.184q.192.32.4.608.208.272.48.48.288.208.624.336.352.112.816.112.944 0 1.424-.528.496-.528.496-1.44v-.128q0-.864-.496-1.36-.496-.496-1.376-.496-.688 0-1.12.272-.432.256-.688.56l-1.728-.24.416-6.272h6.576z"/><path id="j" d="M368.038 313.97q-.855 0-1.3-.435-.435-.45-.435-1.26v-4.77h-1.215v-1.335h.66q.405 0 .555-.18.165-.18.165-.585v-1.365h1.47v2.13h1.635v1.335h-1.635v5.13h1.515v1.335z"/><path id="k" d="M380.617 313.97q-.645 0-1-.36-.345-.375-.42-.945h-.075q-.225.735-.825 1.1-.6.375-1.455.375-1.215 0-1.875-.63-.645-.63-.645-1.695 0-1.17.84-1.755.855-.585 2.5-.585h1.4v-.66q0-.72-.4-1.1-.4-.4-1.215-.4-.7 0-1.125.3-.435.3-.735.765l-.975-.885q.4-.66 1.095-1.08.705-.435 1.845-.435 1.515 0 2.325.705.8.705.8 2.025v3.915h.825v1.335zm-3.3-1.065q.765 0 1.26-.33.495-.345.495-.915v-1.125h-1.38q-1.695 0-1.695 1.05v.27q0 .525.345.795.36.255.975.255z"/><path id="l" d="M383.134 313.97v-7.8h1.635v1.5h.075q.165-.6.7-1.05.525-.45 1.455-.45h.435v1.575h-.645q-.975 0-1.5.315-.5.315-.5.93v4.98z"/><path id="m" d="M395.423 314.705q0 1.215-.93 1.83-.93.615-3.03.615-.96 0-1.635-.135-.66-.12-1.095-.36-.42-.24-.615-.585-.195-.345-.195-.795 0-.645.345-1.005.36-.36 1-.495v-.165q-.885-.285-.885-1.2 0-.6.405-.915.405-.33.975-.465v-.06q-.7-.33-1.065-.915-.36-.6-.36-1.395 0-1.2.795-1.935.8-.735 2.3-.735.825 0 1.4.24v-.2q0-.525.24-.8.255-.3.78-.3h1.2v1.32h-1.6v.315q.525.345.8.9.285.54.285 1.215 0 1.185-.8 1.92-.8.72-2.3.72-.57 0-1.02-.12-.3.105-.525.3-.225.18-.225.48 0 .315.285.45.285.135.8.135h1.92q1.44 0 2.085.585.645.57.645 1.575zm-1.53.18q0-.405-.315-.645-.3-.24-1.1-.24h-2.64q-.54.315-.54.9 0 .48.375.765.4.3 1.305.3h1.02q1.905 0 1.905-1.08zm-2.445-4.77q.72 0 1.1-.315.405-.33.405-1.005v-.3q0-.675-.405-1-.4-.33-1.1-.33-.72 0-1.125.33-.4.315-.4 1v.3q0 .675.4 1.005.405.315 1.125.315z"/><path id="n" d="M293.78 313.97v-7.8h1.635v1.3h.075q.255-.63.765-1.05.525-.42 1.425-.42 1.2 0 1.86.795.675.78.675 2.235v4.95h-1.635v-4.74q0-1.83-1.47-1.83-.315 0-.63.1-.3.075-.54.24-.24.165-.4.42-.135.255-.135.6v5.22z"/><path id="o" d="M307.385 312.68h-.075q-.255.7-.84 1.08-.57.4-1.35.4-1.485 0-2.295-1.065-.8-1.08-.8-3.015 0-1.935.8-3 .8-1.08 2.295-1.08.78 0 1.35.4.585.375.84 1.08h.075v-4.6h1.635v11.1h-1.635zm-1.77.06q.75 0 1.26-.36.5-.375.5-.975v-2.67q0-.6-.5-.96-.5-.375-1.26-.375-.855 0-1.365.555-.5.54-.5 1.44v1.35q0 .9.5 1.455.5.54 1.365.54z"/><path id="p" d="M122.656 302.87h1.635v4.6h.075q.255-.63.765-1.05.525-.42 1.425-.42 1.2 0 1.86.795.675.78.675 2.235v4.95h-1.635v-4.755q0-1.815-1.47-1.815-.315 0-.63.1-.3.075-.54.24-.24.165-.4.42-.135.255-.135.585v5.235h-1.635z"/><path id="q" d="M601.59 373.604h-1.264v-1.424h1.264v-1.376q0-1.008.528-1.568.528-.576 1.584-.576h1.376v1.424h-1.744v2.096h1.744v1.424h-1.744v6.896h-1.744z"/><path id="r" d="M611.634 379.124h-.064q-.112.304-.304.592-.176.288-.464.512-.272.208-.672.336-.384.128-.896.128-1.296 0-2.016-.832-.704-.832-.704-2.384v-5.296h1.744v5.072q0 1.936 1.6 1.936.336 0 .656-.08.32-.096.56-.272.256-.176.4-.448.16-.272.16-.64v-5.568h1.744v8.32h-1.744z"/><path id="s" d="M615.876 380.5v-8.32h1.744v1.6h.08q.176-.64.736-1.12.56-.48 1.552-.48h.464v1.68h-.688q-1.04 0-1.6.336-.544.336-.544.992v5.312z"/><path id="t" d="M624.367 380.5q-.912 0-1.376-.464-.464-.48-.464-1.344v-5.088h-1.296v-1.424h.704q.432 0 .592-.192.176-.192.176-.624v-1.456h1.568v2.272h1.744v1.424h-1.744v5.472h1.616v1.424z"/><path id="u" d="M627.907 368.66h1.744v4.896h.08q.272-.672.816-1.12.56-.448 1.52-.448 1.28 0 1.984.848.72.832.72 2.384v5.28h-1.744v-5.072q0-1.936-1.568-1.936-.336 0-.672.096-.32.08-.576.256-.256.176-.416.448-.144.272-.144.624v5.584h-1.744z"/><path id="v" d="M640.452 380.692q-.896 0-1.6-.304-.704-.304-1.2-.864-.496-.576-.768-1.376-.256-.816-.256-1.808 0-.992.256-1.792.272-.816.768-1.376.496-.576 1.2-.88.704-.304 1.6-.304.912 0 1.6.32.704.32 1.168.896.464.56.688 1.312.24.752.24 1.616v.656h-5.712v.272q0 .96.56 1.584.576.608 1.632.608.768 0 1.296-.336.528-.336.896-.912l1.024 1.008q-.464.768-1.344 1.232-.88.448-2.048.448zm0-7.344q-.448 0-.832.16-.368.16-.64.448-.256.288-.4.688-.144.4-.144.88v.112h3.872v-.16q0-.96-.496-1.536-.496-.592-1.36-.592z"/><path id="w" d="M662.097 380.5q-.688 0-1.056-.384-.368-.4-.448-1.008h-.08q-.24.784-.88 1.184-.64.4-1.552.4-1.296 0-2-.672-.688-.672-.688-1.808 0-1.248.896-1.872.912-.624 2.656-.624h1.504v-.704q0-.768-.416-1.184-.416-.416-1.296-.416-.736 0-1.2.32-.464.32-.784.816l-1.04-.944q.416-.704 1.168-1.152.752-.464 1.968-.464 1.616 0 2.48.752.864.752.864 2.16v4.176h.88v1.424zm-3.52-1.136q.816 0 1.344-.352.528-.368.528-.976v-1.2h-1.472q-1.808 0-1.808 1.12v.288q0 .56.368.848.384.272 1.04.272z"/><path id="x" d="M688.407 380.5v-8.32h1.744v1.376h.08q.128-.32.304-.608.192-.288.448-.496.272-.224.624-.336.368-.128.848-.128.848 0 1.504.416.656.416.96 1.28h.048q.224-.704.864-1.2.64-.496 1.648-.496 1.248 0 1.936.848.688.832.688 2.384v5.28h-1.744v-5.072q0-.96-.368-1.44-.368-.496-1.168-.496-.336 0-.64.096-.304.08-.544.256-.224.176-.368.448-.144.272-.144.624v5.584h-1.744v-5.072q0-1.936-1.52-1.936-.32 0-.64.096-.304.08-.544.256-.24.176-.384.448-.144.272-.144.624v5.584z"/><path id="y" d="M711.438 380.5v-8.32h1.744v1.376h.08q.272-.672.816-1.12.56-.448 1.52-.448 1.28 0 1.984.848.72.832.72 2.384v5.28h-1.744v-5.056q0-1.952-1.568-1.952-.336 0-.672.096-.32.08-.576.256-.256.176-.416.448-.144.272-.144.64v5.568z"/><path id="z" d="M729.203 380.692q-1.184 0-1.984-.416-.8-.416-1.392-1.152l1.12-1.024q.464.56 1.024.88.576.304 1.328.304.768 0 1.136-.288.384-.304.384-.832 0-.4-.272-.672-.256-.288-.912-.368l-.768-.096q-1.28-.16-2.016-.736-.72-.592-.72-1.744 0-.608.224-1.072.224-.48.624-.8.416-.336.976-.512.576-.176 1.264-.176 1.12 0 1.824.352.72.352 1.28.976l-1.072 1.024q-.32-.384-.848-.656-.512-.288-1.184-.288-.72 0-1.072.288-.336.288-.336.752 0 .48.304.72.304.24.976.352l.768.096q1.376.208 2 .816.64.592.64 1.6 0 .608-.24 1.104-.224.48-.656.832-.432.352-1.04.544-.608.192-1.36.192z"/><path id="AA" d="M745.547 381.284q0 1.296-.992 1.952-.992.656-3.232.656-1.024 0-1.744-.144-.704-.128-1.168-.384-.448-.256-.656-.624-.208-.368-.208-.848 0-.688.368-1.072.384-.384 1.056-.528v-.176q-.944-.304-.944-1.28 0-.64.432-.976.432-.352 1.04-.496v-.064q-.736-.352-1.136-.976-.384-.64-.384-1.488 0-1.28.848-2.064.864-.784 2.464-.784.88 0 1.504.256v-.224q0-.56.256-.864.272-.32.832-.32h1.28v1.408h-1.696v.336q.56.368.864.96.304.576.304 1.296 0 1.264-.864 2.048-.864.768-2.464.768-.608 0-1.088-.128-.32.112-.56.32-.24.192-.24.512 0 .336.304.48.304.144.864.144h2.048q1.536 0 2.224.624.688.608.688 1.68zm-1.632.192q0-.432-.336-.688-.32-.256-1.184-.256h-2.816q-.576.336-.576.96 0 .512.4.816.416.32 1.392.32h1.088q2.032 0 2.032-1.152zm-2.608-5.088q.768 0 1.184-.336.432-.352.432-1.072v-.32q0-.72-.432-1.056-.416-.352-1.184-.352-.768 0-1.2.352-.416.336-.416 1.056v.32q0 .72.416 1.072.432.336 1.2.336z"/><path id="AB" d="M750.015 380.692q-.864 0-1.584-.304-.704-.304-1.2-.864-.496-.576-.768-1.376-.272-.816-.272-1.808 0-.992.272-1.792.272-.816.768-1.376.496-.576 1.2-.88.72-.304 1.584-.304.864 0 1.568.304.72.304 1.216.88.496.56.768 1.376.272.8.272 1.792 0 .992-.272 1.808-.272.8-.768 1.376-.496.56-1.216.864-.704.304-1.568.304zm0-1.44q.896 0 1.44-.544.544-.56.544-1.664v-1.408q0-1.104-.544-1.648-.544-.56-1.44-.56-.896 0-1.44.56-.544.544-.544 1.648v1.408q0 1.104.544 1.664.544.544 1.44.544z"/><path id="AC" d="M807.28 380.692q-.896 0-1.6-.304-.704-.304-1.184-.864-.48-.576-.736-1.376-.256-.816-.256-1.808 0-.992.256-1.792.256-.816.736-1.376.48-.576 1.184-.88.704-.304 1.6-.304 1.248 0 2.048.56.8.56 1.168 1.488l-1.44.672q-.176-.576-.624-.912-.432-.352-1.152-.352-.96 0-1.456.608-.48.592-.48 1.552v1.488q0 .96.48 1.568.496.592 1.456.592.768 0 1.216-.368.464-.384.736-1.008l1.328.704q-.416 1.024-1.248 1.568-.832.544-2.032.544z"/><path id="AD" d="M812.22 368.66h1.744v7.264h.08l1.152-1.488 2-2.256h2.032l-2.912 3.216 3.264 5.104h-2.08l-2.384-3.968-1.152 1.248v2.72h-1.744z"/><path id="AE" d="M824.51 375.524q0-1.168.208-2.24.224-1.072.608-2 .384-.928.896-1.68.528-.752 1.136-1.264h1.648q-.656.608-1.184 1.36-.528.752-.896 1.6-.368.848-.576 1.76-.192.912-.192 1.824v1.28q0 .912.192 1.824.208.912.576 1.76.368.848.896 1.6.528.768 1.184 1.36h-1.648q-.608-.512-1.136-1.264-.512-.752-.896-1.68-.384-.928-.608-2-.208-1.072-.208-2.24z"/><path id="AF" d="M840.058 380.5q-.896 0-1.344-.448-.432-.464-.432-1.28V368.66h1.744v10.416h1.152v1.424z"/><path id="AG" d="M883.95 379.124h-.08q-.272.736-.896 1.152-.608.416-1.44.416-1.584 0-2.448-1.136-.864-1.152-.864-3.216 0-2.064.864-3.2.864-1.152 2.448-1.152.832 0 1.44.416.624.4.896 1.152h.08v-4.896h1.744v11.84h-1.744zm-1.888.064q.8 0 1.344-.384.544-.4.544-1.04v-2.848q0-.64-.544-1.024-.544-.4-1.344-.4-.912 0-1.456.592-.544.576-.544 1.536v1.44q0 .96.544 1.552.544.576 1.456.576z"/><path id="AH" d="M891.97 368.66h1.744v4.896h.08q.272-.752.88-1.152.624-.416 1.456-.416 1.584 0 2.448 1.152.864 1.136.864 3.2 0 2.064-.864 3.216-.864 1.136-2.448 1.136-.832 0-1.456-.416-.608-.416-.88-1.152h-.08v1.376h-1.744zm3.632 10.528q.912 0 1.456-.576.544-.592.544-1.552v-1.44q0-.96-.544-1.536-.544-.592-1.456-.592-.8 0-1.344.4-.544.384-.544 1.024v2.848q0 .64.544 1.04.544.384 1.344.384z"/><path id="AI" d="M957.433 375.524q0 1.168-.224 2.24-.208 1.072-.592 2-.384.928-.912 1.68-.512.752-1.12 1.264h-1.648q.656-.592 1.184-1.36.528-.752.896-1.6.368-.848.56-1.76.208-.912.208-1.824v-1.28q0-.912-.208-1.824-.192-.912-.56-1.76-.368-.848-.896-1.6-.528-.752-1.184-1.36h1.648q.608.512 1.12 1.264.528.752.912 1.68.384.928.592 2 .224 1.072.224 2.24z"/><path id="AJ" d="M303.758 142.5q-.896 0-1.344-.448-.432-.464-.432-1.28V130.66h1.744v10.416h1.152v1.424z"/><path id="AK" d="M713.237 132.692q-.544 0-.8-.256-.24-.256-.24-.656v-.272q0-.4.24-.656.256-.256.8-.256.544 0 .784.256.24.256.24.656v.272q0 .4-.24.656-.24.256-.784.256zm-.88 1.488h1.744v8.32h-1.744z"/><path id="AL" d="M596.727 27.692q-.928 0-1.648-.304-.72-.304-1.216-.88-.48-.576-.736-1.376-.256-.816-.256-1.824 0-1.008.256-1.808.256-.8.736-1.36.496-.576 1.216-.88.72-.304 1.648-.304 1.264 0 2.08.56.832.56 1.2 1.552l-1.68.752q-.144-.528-.544-.864-.384-.352-1.056-.352-.864 0-1.296.544-.416.544-.416 1.424v1.52q0 .88.416 1.424.432.528 1.296.528.736 0 1.136-.368.4-.384.624-.944l1.568.752q-.416 1.104-1.264 1.664-.848.544-2.064.544z"/><path id="AM" d="M601.65 27.5v-8.352h2.048v1.728h.08q.08-.336.24-.64.176-.32.448-.56.272-.24.64-.384.384-.144.88-.144h.448v1.936h-.64q-1.04 0-1.568.304-.528.304-.528.992v5.12z"/><path id="AN" d="M613.887 27.5q-.672 0-1.072-.384-.384-.4-.48-1.056h-.096q-.208.816-.848 1.232-.64.4-1.584.4-1.28 0-1.968-.672-.688-.672-.688-1.792 0-1.296.928-1.92.928-.64 2.64-.64h1.424v-.608q0-.704-.368-1.088-.368-.384-1.184-.384-.72 0-1.168.32-.432.304-.736.736l-1.216-1.088q.464-.72 1.232-1.152.768-.448 2.032-.448 1.696 0 2.576.768.88.768.88 2.208v3.936h.832V27.5zm-3.392-1.296q.688 0 1.168-.304.48-.304.48-.896V23.9h-1.312q-1.6 0-1.6 1.024v.272q0 .512.32.768.336.24.944.24z"/><path id="AO" d="M657.448 27.692q-1.2 0-2.016-.4-.816-.416-1.44-1.136l1.248-1.216q.464.528 1.008.832.56.304 1.28.304.736 0 1.056-.256.336-.256.336-.704 0-.368-.24-.576-.224-.224-.784-.304l-.832-.112q-1.36-.176-2.08-.768-.704-.608-.704-1.76 0-.608.224-1.088.224-.496.64-.832.416-.352.992-.528.592-.192 1.312-.192.608 0 1.072.096.48.08.864.256.384.16.704.416.32.24.624.544l-1.2 1.2q-.368-.384-.88-.64-.512-.256-1.12-.256-.672 0-.976.24-.288.24-.288.624 0 .416.24.64.256.208.848.304l.848.112q2.704.384 2.704 2.464 0 .608-.256 1.12-.24.496-.688.864-.448.352-1.088.56-.624.192-1.408.192z"/><path id="AP" d="M673.254 27.5l-2.784-8.352h2.016l1.168 3.6.816 2.976h.112l.816-2.976 1.136-3.6h1.952l-2.8 8.352z"/><path id="AQ" d="M683.088 27.692q-.928 0-1.664-.304-.72-.32-1.232-.88-.496-.576-.768-1.376-.272-.816-.272-1.824 0-.992.256-1.792.272-.8.768-1.36.496-.576 1.216-.88.72-.32 1.632-.32.976 0 1.696.336.72.336 1.184.912.464.576.688 1.344.24.752.24 1.616v.672h-5.552v.208q0 .912.512 1.472.512.544 1.52.544.768 0 1.248-.32.496-.32.88-.816l1.104 1.232q-.512.72-1.408 1.136-.88.4-2.048.4zm-.032-7.2q-.816 0-1.296.544-.48.544-.48 1.408v.128h3.424v-.144q0-.864-.432-1.392-.416-.544-1.216-.544z"/><path id="AR" d="M693.834 26.108h-.08q-.224.72-.848 1.152-.624.432-1.456.432-1.584 0-2.432-1.136-.832-1.136-.832-3.248 0-2.096.832-3.216.848-1.136 2.432-1.136.832 0 1.456.432.624.416.848 1.136h.08V15.66h2.048V27.5h-2.048zm-1.728-.112q.736 0 1.232-.352.496-.352.496-1.008V21.98q0-.608-.496-.976-.496-.368-1.232-.368-.8 0-1.296.544-.48.528-.48 1.424v1.44q0 .896.48 1.424.496.528 1.296.528z"/><path id="AS" d="M716.582 19.148h1.92l-3.36 9.84q-.16.448-.368.768-.192.336-.464.544-.272.208-.656.304-.384.096-.896.096h-1.232v-1.632h1.504l.384-1.168-2.992-8.752h2.032l1.456 4.416.544 2.112h.096l.576-2.112z"/><path id="AT" d="M742.823 27.5q-1.056 0-1.552-.528-.496-.528-.496-1.488V15.66h2.048v10.208h1.104V27.5z"/></defs><path d="M11.5 241h949a10.48 10.48 0 0 1 10.5 10.5v129a10.48 10.48 0 0 1-10.5 10.5h-949A10.48 10.48 0 0 1 1 380.5v-129A10.48 10.48 0 0 1 11.5 241z" class="B"/><g fill="#333"><use xlink:href="#A"/><use xlink:href="#B"/><path d="M41.772 379.716q-1.332 0-2.232-.468-.9-.468-1.566-1.296l1.26-1.152q.522.63 1.152 1 .648.342 1.494.342.864 0 1.278-.324.432-.342.432-.936 0-.45-.306-.756-.288-.324-1.026-.414l-.864-.108q-1.44-.18-2.268-.828-.8-.666-.8-1.962 0-.684.252-1.206.252-.54.702-.9.468-.378 1.098-.576.648-.198 1.422-.198 1.26 0 2.052.396.8.396 1.44 1.098l-1.206 1.152q-.36-.432-.954-.738-.576-.324-1.332-.324-.8 0-1.206.324-.378.324-.378.846 0 .54.342.8.342.27 1.098.396l.864.108q1.548.234 2.25.918.72.666.72 1.8 0 .684-.27 1.242-.252.54-.738.936-.486.396-1.17.612-.684.216-1.53.216zm8.404-.216l-4.122-12.564h2.106l1.998 6.2 1.206 4.374h.072l1.224-4.374 1.998-6.2H56.7L52.534 379.5zm20.524 0l-1.134-3.402H64.87l-1.1 3.402H61.7l4.284-12.564h2.556l4.284 12.564zm-3.438-10.692h-.1l-1.818 5.544h3.708zm7.508-1.872h5.562q1.566 0 2.448.882.9.882.9 2.358 0 .702-.198 1.206-.198.486-.504.8-.306.306-.702.468-.396.144-.774.18v.108q.378.018.828.18.468.162.864.522.396.342.666.9.27.54.27 1.332 0 .756-.252 1.422-.234.666-.666 1.152-.432.486-1.026.774-.594.27-1.296.27h-6.12zm2.034 10.818h3.492q.792 0 1.242-.414.45-.414.45-1.188v-.612q0-.774-.45-1.188-.45-.414-1.242-.414h-3.492zm0-5.508h3.15q.756 0 1.17-.378.414-.396.414-1.116v-.576q0-.72-.414-1.098-.414-.396-1.17-.396h-3.15zm9.274 7.254v-1.656h1.7v-9.252h-1.7v-1.656h5.472v1.656h-1.728v9.252h1.728v1.656z"/></g><path d="M10.6 61h950.8a9.58 9.58 0 0 1 9.6 9.6v140.8a9.58 9.58 0 0 1-9.6 9.6H10.6a9.58 9.58 0 0 1-9.6-9.6V70.6a9.58 9.58 0 0 1 9.6-9.6z" class="B"/><g fill="#333"><path d="M23.7 76.736V87.5h-2.034V76.736h-3.744v-1.8h9.522v1.8zm8.087 10.98q-1.008 0-1.8-.342-.792-.342-1.35-.972-.558-.648-.864-1.548-.288-.918-.288-2.034 0-1.116.288-2.016.306-.918.864-1.548.558-.648 1.35-1 .792-.342 1.8-.342 1.026 0 1.8.36.792.36 1.314 1.008.522.63.774 1.476.27.846.27 1.818v.738H29.52v.306q0 1.08.63 1.782.648.684 1.836.684.864 0 1.458-.378.594-.378 1.008-1.026l1.152 1.134q-.522.864-1.512 1.386-1 .504-2.304.504zm0-8.262q-.504 0-.936.18-.414.18-.72.504-.288.324-.45.774-.162.45-.162 1v.126h4.356v-.18q0-1.08-.558-1.728-.558-.666-1.53-.666zm6.347 8.046v-9.36h1.962v1.548h.1q.144-.36.342-.684.216-.324.504-.558.306-.252.702-.378.414-.144.954-.144.954 0 1.692.468.738.468 1.08 1.44h.054q.252-.792.972-1.35.72-.558 1.854-.558 1.404 0 2.178.954.774.936.774 2.682v5.94H49.33v-5.706q0-1.08-.414-1.62-.414-.558-1.314-.558-.378 0-.72.108-.342.1-.612.288-.252.198-.414.504-.162.306-.162.702V87.5h-1.962v-5.706q0-2.178-1.7-2.178-.36 0-.72.108-.342.1-.612.288-.27.198-.432.504-.162.306-.162.702V87.5zm15.89-9.36h1.962v1.548h.1q.306-.846 1-1.296.702-.468 1.638-.468 1.782 0 2.754 1.296.972 1.278.972 3.6 0 2.322-.972 3.618-.972 1.278-2.754 1.278-.936 0-1.638-.468-.684-.468-1-1.296h-.1V91.1h-1.962zm4.086 7.884q1.026 0 1.638-.648.612-.666.612-1.746V82q0-1.08-.612-1.728-.612-.666-1.638-.666-.9 0-1.512.45-.612.432-.612 1.152v3.204q0 .72.612 1.17.612.432 1.512.432zm8.564 1.476q-1.008 0-1.512-.504-.486-.522-.486-1.44V74.18h1.962v11.718h1.296V87.5zm6.807.216q-1.008 0-1.8-.342-.792-.342-1.35-.972-.558-.648-.864-1.548-.288-.918-.288-2.034 0-1.116.288-2.016.306-.918.864-1.548.558-.648 1.35-1 .792-.342 1.8-.342 1.026 0 1.8.36.792.36 1.314 1.008.522.63.774 1.476.27.846.27 1.818v.738h-6.426v.306q0 1.08.63 1.782.648.684 1.836.684.864 0 1.458-.378.594-.378 1.008-1.026l1.152 1.134q-.522.864-1.512 1.386-1 .504-2.304.504zm0-8.262q-.504 0-.936.18-.414.18-.72.504-.288.324-.45.774-.162.45-.162 1v.126h4.356v-.18q0-1.08-.558-1.728-.558-.666-1.53-.666zm11.352 8.262q-1.224 0-2.232-.414-1-.432-1.7-1.242-.702-.828-1.098-2.034-.378-1.224-.378-2.808 0-1.584.378-2.8.396-1.224 1.098-2.034.72-.828 1.7-1.242 1.008-.432 2.232-.432 1.224 0 2.214.432 1.008.414 1.7 1.242.72.8 1.098 2.034.396 1.206.396 2.8 0 1.584-.396 2.808-.378 1.206-1.098 2.034-.702.8-1.7 1.242-1 .414-2.214.414zm0-1.818q.72 0 1.314-.252.612-.252 1.026-.72.432-.486.666-1.17.234-.684.234-1.548v-1.98q0-.864-.234-1.548-.234-.684-.666-1.152-.414-.486-1.026-.738-.594-.252-1.314-.252-.738 0-1.332.252-.594.252-1.026.738-.414.468-.648 1.152-.234.684-.234 1.548v1.98q0 .864.234 1.548.234.684.648 1.17.432.468 1.026.72.594.252 1.332.252z"/><use xlink:href="#A" x="73.733" y="-292"/><path d="M106.36 90.218l4.986-16.038h1.692l-4.986 16.038zm20.922-8.2h-5.688V87.5h-2.034V74.936h2.034v5.292h5.688v-5.292h2.034V87.5h-2.034zm8.673 5.688q-.972 0-1.782-.342-.792-.342-1.35-.972-.558-.648-.864-1.548-.306-.918-.306-2.034 0-1.116.306-2.016.306-.918.864-1.548.558-.648 1.35-1 .8-.342 1.782-.342.972 0 1.764.342.8.342 1.368 1 .558.63.864 1.548.306.9.306 2.016 0 1.116-.306 2.034-.306.9-.864 1.548-.558.63-1.368.972-.792.342-1.764.342zm0-1.62q1.008 0 1.62-.612.612-.63.612-1.872v-1.584q0-1.242-.612-1.854-.612-.63-1.62-.63-1.008 0-1.62.63-.612.612-.612 1.854v1.584q0 1.242.612 1.872.612.612 1.62.612zm8.485 1.404q-1.008 0-1.512-.504-.486-.522-.486-1.44V74.18h1.962v11.718h1.296V87.5z"/><use xlink:href="#B" x="117.773" y="-292"/><path d="M161.54 87.716q-2.466 0-3.87-1.656-1.404-1.674-1.404-4.842 0-1.584.36-2.8.36-1.206 1.044-2.034.684-.828 1.656-1.242 1-.432 2.214-.432 1.638 0 2.736.72 1.116.72 1.746 2.124l-1.7.936q-.324-.9-1.008-1.422-.666-.54-1.764-.54-1.458 0-2.286 1-.828 1-.828 2.736v1.908q0 1.746.828 2.736.828 1 2.286 1 1.134 0 1.836-.576.72-.594 1.062-1.512l1.638 1q-.63 1.368-1.764 2.142-1.134.774-2.772.774z"/></g><use xlink:href="#C" class="D"/><use xlink:href="#D" class="C"/><g class="D"><use xlink:href="#E"/><use xlink:href="#F"/></g><use xlink:href="#G" class="C"/><g class="D"><use xlink:href="#H"/><use xlink:href="#I"/></g><use xlink:href="#J" class="C"/><g class="D"><use xlink:href="#K"/><use xlink:href="#K" x="60"/><use xlink:href="#L"/><use xlink:href="#M"/></g><g class="C"><use xlink:href="#M" x="60"/><use xlink:href="#N"/><use xlink:href="#O"/><use xlink:href="#P"/></g><use xlink:href="#C" y="-80" class="D"/><g class="B"><use xlink:href="#Q"/><use xlink:href="#R"/><use xlink:href="#S"/></g><use xlink:href="#D" y="-80" class="D"/><g class="B"><use xlink:href="#T"/><use xlink:href="#U"/><use xlink:href="#S" x="59.703"/></g><use xlink:href="#E" y="-80" class="D"/><g class="B"><use xlink:href="#Q" x="120.439"/><use xlink:href="#V"/><use xlink:href="#S" x="119.501"/></g><use xlink:href="#F" y="-80" class="D"/><g class="B"><use xlink:href="#Q" x="180.08"/><use xlink:href="#W"/><use xlink:href="#S" x="179.861"/></g><use xlink:href="#G" y="-80" class="C"/><g class="B"><use xlink:href="#Q" x="240.205"/><use xlink:href="#U" x="179.908"/><use xlink:href="#X"/></g><use xlink:href="#H" y="-80" class="C"/><g class="B"><use xlink:href="#Q" x="302.345"/><use xlink:href="#Y"/><use xlink:href="#Z"/></g><use xlink:href="#I" y="-80" class="C"/><g class="B"><use xlink:href="#Q" x="361.72"/><use xlink:href="#a"/><use xlink:href="#Z" x="60.626"/></g><use xlink:href="#J" y="-80" class="C"/><g class="B"><use xlink:href="#Q" x="420.611"/><use xlink:href="#Y" x="118.265"/><use xlink:href="#X" x="179.594"/></g><use xlink:href="#K" y="-80" class="D"/><g class="B"><use xlink:href="#Q" x="485.86"/><use xlink:href="#b"/></g><use xlink:href="#K" x="60" y="-80" class="D"/><g class="B"><use xlink:href="#Q" x="545.86"/><use xlink:href="#c"/></g><use xlink:href="#L" y="-80" class="C"/><g class="B"><use xlink:href="#Q" x="601.033"/><use xlink:href="#d"/><use xlink:href="#e"/></g><use xlink:href="#M" y="-80" class="C"/><g class="B"><use xlink:href="#Q" x="660.973"/><use xlink:href="#d" x="59.94"/><use xlink:href="#d" x="69.533"/></g><use xlink:href="#M" x="60" y="-80" class="C"/><g class="B"><use xlink:href="#Q" x="720.973"/><use xlink:href="#d" x="119.94"/><use xlink:href="#f"/></g><use xlink:href="#N" y="-80" class="C"/><g class="B"><use xlink:href="#Q" x="781.033"/><use xlink:href="#d" x="180"/><use xlink:href="#g"/></g><use xlink:href="#O" y="-80" class="C"/><g class="B"><use xlink:href="#Q" x="841.033"/><use xlink:href="#d" x="240"/><use xlink:href="#h"/></g><use xlink:href="#P" y="-80" class="C"/><g class="B"><use xlink:href="#Q" x="901.033"/><use xlink:href="#d" x="300"/><use xlink:href="#i"/></g><g fill="#1a1a1a"><g transform="rotate(270 395.97 307.97)"><path d="M349.74 313.97v-1.4h2.94v-7.83h-.12l-2.43 2.595-1.035-.93 2.67-2.895h2.58v9.06h2.55v1.4zm11.318.18q-1.1 0-1.86-.4-.75-.4-1.305-1.08l1.05-.96q.435.525.96.825.54.285 1.245.285.72 0 1.065-.27.36-.285.36-.78 0-.375-.255-.63-.24-.27-.855-.345l-.72-.1q-1.2-.15-1.9-.7-.675-.555-.675-1.635 0-.57.2-1.005.2-.45.585-.75.4-.315.915-.48.54-.165 1.185-.165 1.05 0 1.7.33.675.33 1.2.915l-1.005.96q-.3-.36-.795-.615-.48-.27-1.1-.27-.675 0-1.005.27-.315.27-.315.705 0 .45.285.675.285.225.915.33l.72.1q1.3.195 1.875.765.6.555.6 1.5 0 .57-.225 1.035-.2.45-.615.78-.405.33-.975.5-.57.18-1.275.18z"/><use xlink:href="#j"/><use xlink:href="#k"/><use xlink:href="#l"/><use xlink:href="#m"/></g><g transform="rotate(270 335.97 307.97)"><path d="M291.73 313.97h-7.1v-1.62l3.345-2.985q.795-.72 1.215-1.365.435-.66.435-1.38v-.195q0-.765-.465-1.2-.45-.435-1.23-.435-.435 0-.765.135-.315.12-.555.345-.24.225-.405.525-.15.3-.24.645l-1.485-.57q.165-.495.45-.945.285-.465.72-.825.435-.36 1.02-.57.6-.2 1.395-.2.795 0 1.425.24.63.225 1.05.645.435.405.66.975.225.57.225 1.245 0 .63-.195 1.17-.195.54-.54 1.02-.345.48-.8.915-.45.435-.96.885l-2.46 2.115h5.28z"/><use xlink:href="#n"/><use xlink:href="#o"/><use xlink:href="#k" x="-60"/><use xlink:href="#l" x="-60"/><use xlink:href="#m" x="-60"/></g><g transform="rotate(270 215.97 307.97)"><path d="M170.59 307.805q.975 0 1.44-.405.465-.42.465-1.065v-.105q0-.72-.45-1.095-.45-.4-1.215-.4-.75 0-1.275.345-.525.33-.885.93l-1.125-.975q.24-.345.54-.66.3-.315.705-.54.405-.24.915-.375.5-.15 1.17-.15.735 0 1.365.18.63.18 1.08.54.45.345.705.855.255.495.255 1.125 0 .495-.165.9-.15.405-.435.72-.27.3-.645.495-.36.195-.765.285v.075q.45.1.84.3.405.195.705.525.3.315.465.765.18.435.18 1.005 0 .7-.27 1.26-.27.555-.765.96-.48.405-1.17.63-.7.2-1.53.2-.735 0-1.3-.165-.555-.15-1-.405-.42-.27-.75-.6-.315-.345-.555-.705l1.245-.975q.195.315.405.585.225.255.495.45.285.18.63.285.36.105.8.105.96 0 1.47-.45.5-.465.5-1.275v-.105q0-.8-.54-1.23-.54-.42-1.53-.42h-1.1v-1.44z"/><use xlink:href="#l" x="-206.308"/><use xlink:href="#o" x="-120"/><use xlink:href="#k" x="-180"/><use xlink:href="#l" x="-180"/><use xlink:href="#m" x="-180"/></g><g transform="rotate(270 155.97 307.97)"><path d="M112.398 313.97v-2.04h-4.86v-1.455l4.245-6.975h2.22v7.095h1.425v1.335h-1.425v2.04zm-3.42-3.375h3.42v-5.55h-.105z"/><use xlink:href="#j" x="-248.701"/><use xlink:href="#p"/><use xlink:href="#k" x="-240"/><use xlink:href="#l" x="-240"/><use xlink:href="#m" x="-240"/></g><g transform="rotate(270 516.01 307.97)"><path d="M474.673 304.97h-4.65l-.27 3.705h.105q.18-.315.375-.555.195-.255.45-.435.255-.18.585-.27.33-.105.78-.105.675 0 1.245.225.585.225 1.005.645.435.42.675 1.035.24.6.24 1.365 0 .78-.255 1.44-.24.66-.72 1.14-.48.465-1.185.735-.7.255-1.575.255-.705 0-1.245-.165-.54-.15-.96-.405-.405-.27-.72-.6-.3-.345-.54-.705l1.23-.975q.195.315.405.57.2.255.48.45.27.195.6.3.345.105.78.105.93 0 1.425-.5.5-.5.5-1.4v-.18q0-.9-.5-1.4-.495-.5-1.425-.5-.675 0-1.08.255-.405.255-.7.57l-1.395-.195.4-5.835h5.94z"/><use xlink:href="#j" x="111.339"/><use xlink:href="#p" x="360.04"/><use xlink:href="#k" x="120.04"/><use xlink:href="#l" x="120.04"/><use xlink:href="#m" x="120.04"/></g><g transform="rotate(270 576 307.97)"><path d="M531.573 314.15q-.87 0-1.56-.285-.675-.285-1.155-.8-.465-.54-.72-1.3-.255-.75-.255-1.695 0-1.14.345-2.145.345-1.005.885-1.845.54-.84 1.2-1.485.675-.66 1.32-1.095h2.25q-.885.645-1.6 1.245-.705.6-1.23 1.23-.525.63-.885 1.335-.345.705-.54 1.545l.105.03q.165-.315.375-.585.225-.285.5-.495.3-.2.675-.33.375-.12.87-.12.66 0 1.215.225.57.225.975.66.42.42.645 1.02.24.6.24 1.335 0 .795-.27 1.455-.255.645-.735 1.1-.48.465-1.17.735-.675.255-1.5.255zm0-1.38q.915 0 1.425-.48.5-.495.5-1.44v-.2q0-.945-.5-1.425-.5-.495-1.425-.495-.915 0-1.425.495-.5.48-.5 1.425v.2q0 .945.5 1.44.5.48 1.425.48z"/><use xlink:href="#j" x="171.329"/><use xlink:href="#p" x="420.03"/><use xlink:href="#k" x="180.03"/><use xlink:href="#l" x="180.03"/><use xlink:href="#m" x="180.03"/></g><use xlink:href="#q"/><use xlink:href="#r"/><use xlink:href="#s"/><use xlink:href="#t"/><use xlink:href="#u"/><use xlink:href="#v"/><use xlink:href="#s" x="30.218"/><use xlink:href="#w"/><use xlink:href="#s" x="48.906"/><path d="M677.9 381.284q0 1.296-.992 1.952-.992.656-3.232.656-1.024 0-1.744-.144-.704-.128-1.168-.384-.448-.256-.656-.624-.208-.368-.208-.848 0-.688.368-1.072.384-.384 1.056-.528v-.176q-.944-.304-.944-1.28 0-.64.432-.976.432-.352 1.04-.496v-.064q-.736-.352-1.136-.976-.384-.64-.384-1.488 0-1.28.848-2.064.864-.784 2.464-.784.88 0 1.504.256v-.224q0-.56.256-.864.272-.32.832-.32h1.28v1.408H675.8v.336q.56.368.864.96.304.576.304 1.296 0 1.264-.864 2.048-.864.768-2.464.768-.608 0-1.088-.128-.32.112-.56.32-.24.192-.24.512 0 .336.304.48.304.144.864.144h2.048q1.536 0 2.224.624.688.608.688 1.68zm-1.632.192q0-.432-.336-.688-.32-.256-1.184-.256h-2.816q-.576.336-.576.96 0 .512.4.816.416.32 1.392.32h1.088q2.032 0 2.032-1.152zm-2.608-5.088q.768 0 1.184-.336.432-.352.432-1.072v-.32q0-.72-.432-1.056-.416-.352-1.184-.352-.768 0-1.2.352-.416.336-.416 1.056v.32q0 .72.416 1.072.432.336 1.2.336z"/><use xlink:href="#r" x="72.532"/><use xlink:href="#x"/><use xlink:href="#v" x="65.344"/><use xlink:href="#y"/><use xlink:href="#t" x="98.656"/><use xlink:href="#z"/><use xlink:href="#AA"/><use xlink:href="#AB"/><use xlink:href="#AB" x="12.812"/><use xlink:href="#y" x="57.156"/><use xlink:href="#z" x="55.094"/><use xlink:href="#t" x="167.375"/><use xlink:href="#w" x="139.281"/><use xlink:href="#AC"/><use xlink:href="#AD"/><use xlink:href="#AE"/><use xlink:href="#AC" x="26.062"/><use xlink:href="#AF"/><use xlink:href="#v" x="205.656"/><use xlink:href="#w" x="195.75"/><use xlink:href="#y" x="149.094"/><use xlink:href="#v" x="232.625"/><use xlink:href="#AG"/><use xlink:href="#AH"/><path d="M906.417 372.18h1.68l-3.504 9.968q-.144.416-.336.704-.176.304-.432.48-.24.192-.592.272-.352.096-.832.096h-1.008v-1.424h1.408l.48-1.408-3.024-8.688H902l1.664 4.896.48 1.808h.08l.528-1.808z"/><use xlink:href="#AC" x="109.25"/><use xlink:href="#w" x="265.468"/><use xlink:href="#AF" x="91.969"/><use xlink:href="#AF" x="96.437"/><use xlink:href="#v" x="302.094"/><use xlink:href="#s" x="332.312"/><use xlink:href="#AI"/><use xlink:href="#w" x="-362.8" y="-238"/><use xlink:href="#AJ"/><use xlink:href="#AJ" x="4.469"/><use xlink:href="#w" x="-341.207" y="-238"/><use xlink:href="#s" x="-292.3" y="-238"/><use xlink:href="#AA" x="-408.862" y="-238"/><use xlink:href="#r" x="-268.674" y="-238"/><use xlink:href="#x" x="-341.207" y="-238"/><use xlink:href="#v" x="-275.852" y="-238"/><use xlink:href="#y" x="-341.206" y="-238"/><use xlink:href="#t" x="-242.549" y="-238"/><use xlink:href="#z" x="-341.206" y="-238"/><use xlink:href="#AA" x="-341.207" y="-238"/><use xlink:href="#AB" x="-341.205" y="-238"/><use xlink:href="#AB" x="-328.395" y="-238"/><use xlink:href="#y" x="-284.048" y="-238"/><use xlink:href="#t" x="-181.612" y="-238"/><use xlink:href="#u" x="-181.612" y="-238"/><use xlink:href="#v" x="-181.612" y="-238"/><use xlink:href="#z" x="-254.518" y="-238"/><use xlink:href="#t" x="-142.237" y="-238"/><use xlink:href="#w" x="-170.331" y="-238"/><use xlink:href="#AC" x="-309.613" y="-238"/><use xlink:href="#AD" x="-309.613" y="-238"/><use xlink:href="#AE" x="-309.61" y="-238"/><use xlink:href="#AC" x="-283.55" y="-238"/><use xlink:href="#AJ" x="226.688"/><use xlink:href="#v" x="-103.956" y="-238"/><use xlink:href="#w" x="-113.862" y="-238"/><use xlink:href="#y" x="-160.518" y="-238"/><use xlink:href="#v" x="-76.987" y="-238"/><use xlink:href="#AG" x="-309.61" y="-238"/><use xlink:href="#r" x="-24.237" y="-238"/><path d="M591.64 134.18h1.744v1.376h.08q.272-.752.88-1.152.624-.416 1.456-.416 1.584 0 2.448 1.152.864 1.136.864 3.2 0 2.064-.864 3.216-.864 1.136-2.448 1.136-.832 0-1.456-.416-.608-.416-.88-1.152h-.08v4.576h-1.744zm3.632 7.008q.912 0 1.456-.576.544-.592.544-1.552v-1.44q0-.96-.544-1.536-.544-.592-1.456-.592-.8 0-1.344.4-.544.384-.544 1.024v2.848q0 .64.544 1.04.544.384 1.344.384z"/><use xlink:href="#AH" x="-287.08" y="-238"/><path d="M619.336 134.18h1.68l-3.504 9.968q-.144.416-.336.704-.176.304-.432.48-.24.192-.592.272-.352.096-.832.096h-1.008v-1.424h1.408l.48-1.408-3.024-8.688h1.744l1.664 4.896.48 1.808h.08l.528-1.808z"/><use xlink:href="#AC" x="-177.832" y="-238"/><use xlink:href="#w" x="-21.612" y="-238"/><use xlink:href="#AJ" x="341.188"/><use xlink:href="#AJ" x="345.657"/><use xlink:href="#v" x="15.013" y="-238"/><use xlink:href="#AG" x="-217.61" y="-238"/><use xlink:href="#q" x="73.2" y="-238"/><use xlink:href="#r" x="73.201" y="-238"/><use xlink:href="#y" x="-22.362" y="-238"/><use xlink:href="#AC" x="-105.707" y="-238"/><use xlink:href="#t" x="84.451" y="-238"/><use xlink:href="#AK"/><use xlink:href="#AB" x="-30.145" y="-238"/><use xlink:href="#y" x="14.202" y="-238"/><use xlink:href="#AI" x="-219.393" y="-238"/><g transform="rotate(270 36 307.97)"><use xlink:href="#l" x="-389.091"/><path d="M2.757 314.15q-.84 0-1.5-.285-.66-.285-1.125-.8-.465-.54-.72-1.3-.24-.765-.24-1.695 0-.93.24-1.68.255-.765.72-1.3.465-.54 1.125-.825.66-.285 1.5-.285.855 0 1.5.3.66.3 1.095.84.435.525.645 1.23.225.705.225 1.515v.615H.867v.255q0 .9.525 1.485.54.57 1.53.57.72 0 1.215-.315.495-.315.84-.855l.96.945q-.435.72-1.26 1.155-.825.42-1.92.42zm0-6.885q-.42 0-.78.15-.345.15-.6.42-.24.27-.375.645-.135.375-.135.825v.105h3.63v-.15q0-.9-.465-1.44-.465-.555-1.275-.555zm7.45 6.705q-.855 0-1.3-.435-.435-.45-.435-1.26v-4.77H7.267v-1.335h.66q.405 0 .555-.18.165-.18.165-.585v-1.365h1.47v2.13h1.635v1.335h-1.635v5.13h1.515v1.335zm8.043-1.3h-.06q-.105.285-.285.555-.165.27-.435.48-.255.195-.63.315-.36.12-.84.12-1.215 0-1.9-.78-.66-.78-.66-2.235v-4.965h1.635v4.755q0 1.815 1.5 1.815.315 0 .615-.075.3-.1.525-.255.24-.165.375-.42.15-.255.15-.6v-5.22h1.635v7.8H18.25z"/><use xlink:href="#l" x="-360.907"/><path d="M27.97 313.97v-7.8h1.635v1.3h.075q.255-.63.765-1.05.525-.42 1.425-.42 1.2 0 1.86.795.675.78.675 2.235v4.95H32.77v-4.74q0-1.83-1.47-1.83-.315 0-.63.1-.3.075-.54.24-.24.165-.4.42-.135.255-.135.6v5.22z"/></g></g><path d="M575.4 1H774a4.39 4.39 0 0 1 4.4 4.4v31.2A4.39 4.39 0 0 1 774 41H575.4a4.39 4.39 0 0 1-4.4-4.4V5.4a4.39 4.39 0 0 1 4.4-4.4z" class="D"/><g class="B"><path d="M588.198 27.692q-1.2 0-2.016-.4-.816-.416-1.44-1.136L586 24.94q.464.528 1.008.832.56.304 1.28.304.736 0 1.056-.256.336-.256.336-.704 0-.368-.24-.576-.224-.224-.784-.304l-.832-.112q-1.36-.176-2.08-.768-.704-.608-.704-1.76 0-.608.224-1.088.224-.496.64-.832.416-.352.992-.528.592-.192 1.312-.192.608 0 1.072.096.48.08.864.256.384.16.704.416.32.24.624.544l-1.2 1.2q-.368-.384-.88-.64-.512-.256-1.12-.256-.672 0-.976.24-.288.24-.288.624 0 .416.24.64.256.208.848.304l.848.112q2.704.384 2.704 2.464 0 .608-.256 1.12-.24.496-.688.864-.448.352-1.088.56-.624.192-1.408.192z"/><use xlink:href="#AL"/><use xlink:href="#AM"/><use xlink:href="#AN"/><path d="M619.226 27.5q-1.056 0-1.616-.544-.544-.56-.544-1.584V20.78h-1.232v-1.632h.64q.464 0 .624-.208.176-.224.176-.656V16.86h1.84v2.288h1.712v1.632h-1.712v5.088h1.584V27.5z"/><use xlink:href="#AL" x="29.093"/><path d="M630.743 15.66h2.048v4.88h.08q.256-.672.8-1.12.56-.464 1.536-.464 1.296 0 1.984.848.688.848.688 2.416v5.28h-2.048v-5.072q0-.896-.32-1.344-.32-.448-1.056-.448-.32 0-.624.096-.288.08-.528.256-.224.16-.368.416-.144.24-.144.576v5.52h-2.048zm12.084 14.256l4.592-14.256h1.712l-4.592 14.256z"/><use xlink:href="#AO"/><use xlink:href="#AN" x="54.938"/><use xlink:href="#AP"/><use xlink:href="#AQ"/><use xlink:href="#AR"/><path d="M702.025 15.66h2.048v4.864h.064q.224-.72.848-1.136.624-.432 1.456-.432 1.6 0 2.432 1.136.848 1.12.848 3.216 0 2.112-.848 3.248-.832 1.136-2.432 1.136-.832 0-1.456-.432-.608-.432-.848-1.152h-.064V27.5h-2.048zm3.76 10.336q.8 0 1.296-.528.496-.528.496-1.424v-1.44q0-.896-.496-1.424-.496-.544-1.296-.544-.736 0-1.232.368-.48.368-.48.976v2.656q0 .656.48 1.008.496.352 1.232.352z"/><use xlink:href="#AS"/><use xlink:href="#AL" x="130.187"/><use xlink:href="#AN" x="124.093"/><use xlink:href="#AT"/><use xlink:href="#AT" x="4.593"/><use xlink:href="#AQ" x="70.375"/><use xlink:href="#AM" x="157.375"/></g><path d="M795.28 1H956.6a4.39 4.39 0 0 1 4.4 4.4v31.2a4.39 4.39 0 0 1-4.4 4.4H795.28a4.39 4.39 0 0 1-4.4-4.4V5.4a4.39 4.39 0 0 1 4.4-4.4z" class="C"/><g class="B"><path d="M804.358 19.148h2.048v1.376h.064q.224-.72.848-1.136.624-.432 1.456-.432 1.6 0 2.432 1.136.848 1.12.848 3.216 0 2.112-.848 3.248-.832 1.136-2.432 1.136-.832 0-1.456-.432-.608-.432-.848-1.152h-.064V30.7h-2.048zm3.76 6.848q.8 0 1.296-.528.496-.528.496-1.424v-1.44q0-.896-.496-1.424-.496-.544-1.296-.544-.736 0-1.232.368-.48.368-.48.976v2.656q0 .656.48 1.008.496.352 1.232.352zm5.834 1.504v-8.352H816v1.728h.08q.08-.336.24-.64.176-.32.448-.56.272-.24.64-.384.384-.144.88-.144h.448v1.936h-.64q-1.04 0-1.568.304-.528.304-.528.992v5.12z"/><use xlink:href="#AQ" x="140.428"/><use xlink:href="#AO" x="174.365"/><use xlink:href="#AQ" x="157.334"/><use xlink:href="#AM" x="244.333"/><use xlink:href="#AP" x="180.928"/><use xlink:href="#AQ" x="180.928"/><use xlink:href="#AR" x="180.926"/><path d="M882.952 15.66H885v4.864h.064q.224-.72.848-1.136.624-.432 1.456-.432 1.6 0 2.432 1.136.848 1.12.848 3.216 0 2.112-.848 3.248-.832 1.136-2.432 1.136-.832 0-1.456-.432-.608-.432-.848-1.152H885V27.5h-2.048zm3.76 10.336q.8 0 1.296-.528.496-.528.496-1.424v-1.44q0-.896-.496-1.424-.496-.544-1.296-.544-.736 0-1.232.368-.48.368-.48.976v2.656q0 .656.48 1.008.496.352 1.232.352z"/><use xlink:href="#AS" x="180.918"/><use xlink:href="#AL" x="311.115"/><use xlink:href="#AN" x="305.023"/><use xlink:href="#AT" x="180.927"/><use xlink:href="#AT" x="185.521"/><use xlink:href="#AQ" x="251.302"/><use xlink:href="#AQ" x="260.24"/></g><path d="M485.684 27.5h-1.808V16.332h4.816q1.504 0 2.368.912.864.896.864 2.448 0 1.2-.56 2-.544.784-1.616 1.104l2.416 4.704h-2.016l-2.24-4.512h-2.224zm2.88-6.032q.688 0 1.072-.352.384-.368.384-1.04v-.768q0-.672-.384-1.024-.384-.368-1.072-.368h-2.88v3.552z"/><use xlink:href="#v" x="-143.222" y="-353"/><path d="M510.17 28.284q0 1.296-.992 1.952-.992.656-3.232.656-1.024 0-1.744-.144-.704-.128-1.168-.384-.448-.256-.656-.624-.208-.368-.208-.848 0-.688.368-1.072.384-.384 1.056-.528v-.176q-.944-.304-.944-1.28 0-.64.432-.976.432-.352 1.04-.496V24.3q-.736-.352-1.136-.976-.384-.64-.384-1.488 0-1.28.848-2.064.864-.784 2.464-.784.88 0 1.504.256v-.224q0-.56.256-.864.272-.32.832-.32h1.28v1.408h-1.696v.336q.56.368.864.96.304.576.304 1.296 0 1.264-.864 2.048-.864.768-2.464.768-.608 0-1.088-.128-.32.112-.56.32-.24.192-.24.512 0 .336.304.48.304.144.864.144h2.048q1.536 0 2.224.624.688.608.688 1.68zm-1.632.192q0-.432-.336-.688-.32-.256-1.184-.256H504.2q-.576.336-.576.96 0 .512.4.816.416.32 1.392.32h1.088q2.032 0 2.032-1.152zm-2.608-5.088q.768 0 1.184-.336.432-.352.432-1.072v-.32q0-.72-.432-1.056-.416-.352-1.184-.352-.768 0-1.2.352-.416.336-.416 1.056v.32q0 .72.416 1.072.432.336 1.2.336z"/><use xlink:href="#AK" x="-200.89" y="-115"/><use xlink:href="#z" x="-210.846" y="-353"/><path d="M525.802 27.5q-.912 0-1.376-.464-.464-.48-.464-1.344v-5.088h-1.296V19.18h.704q.432 0 .592-.192.176-.192.176-.624v-1.456h1.568v2.272h1.744v1.424h-1.744v5.472h1.616V27.5z"/><use xlink:href="#v" x="-107.909" y="-353"/><path d="M538.186 27.5v-8.32h1.744v1.6h.08q.176-.64.736-1.12.56-.48 1.552-.48h.464v1.68h-.688q-1.04 0-1.6.336-.544.336-.544.992V27.5zm8.764.192q-1.184 0-1.984-.416-.8-.416-1.392-1.152l1.12-1.024q.464.56 1.024.88.576.304 1.328.304.768 0 1.136-.288.384-.304.384-.832 0-.4-.272-.672-.256-.288-.912-.368l-.768-.096q-1.28-.16-2.016-.736-.72-.592-.72-1.744 0-.608.224-1.072.224-.48.624-.8.416-.336.976-.512.576-.176 1.264-.176 1.12 0 1.824.352.72.352 1.28.976L549 21.34q-.32-.384-.848-.656-.512-.288-1.184-.288-.72 0-1.072.288-.336.288-.336.752 0 .48.304.72.304.24.976.352l.768.096q1.376.208 2 .816.64.592.64 1.6 0 .608-.24 1.104-.224.48-.656.832-.432.352-1.04.544-.608.192-1.36.192zm6.5 0q-.592 0-.88-.304-.288-.32-.288-.784v-.24q0-.464.288-.768.288-.32.88-.32.592 0 .88.32.288.304.288.768v.24q0 .464-.288.784-.288.304-.88.304zm0-6.288q-.592 0-.88-.304-.288-.32-.288-.784v-.24q0-.464.288-.768.288-.32.88-.32.592 0 .88.32.288.304.288.768v.24q0 .464-.288.784-.288.304-.88.304z"/><g transform="rotate(270 36 156.52)" fill="#1a1a1a"><use xlink:href="#l" x="-346.464" y="-151.45"/><path d="M45.384 162.7q-.84 0-1.5-.285-.66-.285-1.125-.8-.465-.54-.72-1.3-.24-.765-.24-1.695 0-.93.24-1.68.255-.765.72-1.3.465-.54 1.125-.825.66-.285 1.5-.285.855 0 1.5.3.66.3 1.095.84.435.525.645 1.23.225.705.225 1.515v.615h-5.355v.255q0 .9.525 1.485.54.57 1.53.57.72 0 1.215-.315.495-.315.84-.855l.96.945q-.435.72-1.26 1.155-.825.42-1.92.42zm0-6.885q-.42 0-.78.15-.345.15-.6.42-.24.27-.375.645-.135.375-.135.825v.105h3.63v-.15q0-.9-.465-1.44-.465-.555-1.275-.555zm7.45 6.705q-.855 0-1.3-.435-.435-.45-.435-1.26v-4.77h-1.215v-1.335h.66q.405 0 .555-.18.165-.18.165-.585V152.6h1.47v2.13h1.635v1.335h-1.635v5.13h1.515v1.335zm8.043-1.3h-.06q-.105.285-.285.555-.165.27-.435.48-.255.195-.63.315-.36.12-.84.12-1.215 0-1.9-.78-.66-.78-.66-2.235v-4.965h1.635v4.755q0 1.815 1.5 1.815.315 0 .615-.075.3-.1.525-.255.24-.165.375-.42.15-.255.15-.6v-5.22h1.635v7.8h-1.635zm3.977 1.3v-7.8h1.635v1.5h.075q.165-.6.7-1.05.525-.45 1.455-.45h.435v1.575H68.5q-.975 0-1.5.315-.5.315-.5.93v4.98z"/><use xlink:href="#n" x="-223.184" y="-151.45"/></g><g class="B"><use xlink:href="#Q" y="80"/><use xlink:href="#R" y="80"/><use xlink:href="#S" y="80"/><use xlink:href="#T" y="80"/><use xlink:href="#U" y="80"/><use xlink:href="#S" x="59.703" y="80"/><use xlink:href="#Q" x="120.439" y="80"/><use xlink:href="#V" y="80"/><use xlink:href="#S" x="119.501" y="80"/><use xlink:href="#Q" x="180.08" y="80"/><use xlink:href="#W" y="80"/><use xlink:href="#S" x="179.861" y="80"/><use xlink:href="#Q" x="240.205" y="80"/><use xlink:href="#U" x="179.908" y="80"/><use xlink:href="#X" y="80"/><use xlink:href="#Q" x="302.345" y="80"/><use xlink:href="#Y" y="80"/><use xlink:href="#Z" y="80"/><use xlink:href="#Q" x="361.72" y="80"/><use xlink:href="#a" y="80"/><use xlink:href="#Z" x="60.626" y="80"/><use xlink:href="#Q" x="420.611" y="80"/><use xlink:href="#Y" x="118.265" y="80"/><use xlink:href="#X" x="179.594" y="80"/><use xlink:href="#Q" x="485.86" y="80"/><use xlink:href="#b" y="80"/><use xlink:href="#Q" x="545.86" y="80"/><use xlink:href="#c" y="80"/><use xlink:href="#Q" x="601.033" y="80"/><use xlink:href="#d" y="80"/><use xlink:href="#e" y="80"/><use xlink:href="#Q" x="660.973" y="80"/><use xlink:href="#d" x="59.94" y="80"/><use xlink:href="#d" x="69.533" y="80"/><use xlink:href="#Q" x="720.973" y="80"/><use xlink:href="#d" x="119.94" y="80"/><use xlink:href="#f" y="80"/><use xlink:href="#Q" x="781.033" y="80"/><use xlink:href="#d" x="180" y="80"/><use xlink:href="#g" y="80"/><use xlink:href="#Q" x="841.033" y="80"/><use xlink:href="#d" x="240" y="80"/><use xlink:href="#h" y="80"/><use xlink:href="#Q" x="901.033" y="80"/><use xlink:href="#d" x="300" y="80"/><use xlink:href="#i" y="80"/></g></svg>